<svg width="345" height="223" viewBox="0 0 345 223" fill="none" xmlns="http://www.w3.org/2000/svg">
<g clip-path="url(#clip0_1397_3618)" filter="url(#filter0_bd_1397_3618)">
<rect width="337" height="215" transform="translate(4)" fill="#0184FB" fill-opacity="0.04"/>
<rect width="337" height="215" transform="translate(4)" fill="white" fill-opacity="0.2"/>
<path d="M113.803 25.7916L110.292 22.2916C110.251 22.2499 110.221 22.2048 110.204 22.1562C110.186 22.1076 110.178 22.0555 110.178 21.9999C110.178 21.9444 110.186 21.8923 110.204 21.8437C110.221 21.7951 110.251 21.7499 110.292 21.7083L113.803 18.1978C113.9 18.1006 114.021 18.052 114.167 18.052C114.313 18.052 114.438 18.1041 114.542 18.2083C114.646 18.3124 114.699 18.4339 114.699 18.5728C114.699 18.7117 114.646 18.8333 114.542 18.9374L111.48 21.9999L114.542 25.0624C114.64 25.1596 114.688 25.2794 114.688 25.4216C114.688 25.5641 114.636 25.6874 114.532 25.7916C114.428 25.8958 114.306 25.9478 114.167 25.9478C114.028 25.9478 113.907 25.8958 113.803 25.7916Z" fill="#7B7B7B"/>
<path d="M142.933 25.012H138.859L138.159 27H136.493L139.979 17.256H141.827L145.313 27H143.633L142.933 25.012ZM142.485 23.71L140.903 19.188L139.307 23.71H142.485ZM153.814 19.286V27H152.218V26.09C151.966 26.4073 151.635 26.6593 151.224 26.846C150.823 27.0233 150.394 27.112 149.936 27.112C149.33 27.112 148.784 26.986 148.298 26.734C147.822 26.482 147.444 26.1087 147.164 25.614C146.894 25.1193 146.758 24.522 146.758 23.822V19.286H148.34V23.584C148.34 24.2747 148.513 24.8067 148.858 25.18C149.204 25.544 149.675 25.726 150.272 25.726C150.87 25.726 151.341 25.544 151.686 25.18C152.041 24.8067 152.218 24.2747 152.218 23.584V19.286H153.814ZM159.028 19.16C159.625 19.16 160.153 19.2813 160.61 19.524C161.077 19.7573 161.441 20.0513 161.702 20.406V19.286H163.312V27.126C163.312 27.8353 163.163 28.4653 162.864 29.016C162.565 29.576 162.131 30.0147 161.562 30.332C161.002 30.6493 160.33 30.808 159.546 30.808C158.501 30.808 157.633 30.5607 156.942 30.066C156.251 29.5807 155.859 28.918 155.766 28.078H157.348C157.469 28.4793 157.726 28.8013 158.118 29.044C158.519 29.296 158.995 29.422 159.546 29.422C160.19 29.422 160.708 29.226 161.1 28.834C161.501 28.442 161.702 27.8727 161.702 27.126V25.838C161.431 26.202 161.063 26.51 160.596 26.762C160.139 27.0047 159.616 27.126 159.028 27.126C158.356 27.126 157.74 26.958 157.18 26.622C156.629 26.2767 156.191 25.8007 155.864 25.194C155.547 24.578 155.388 23.8827 155.388 23.108C155.388 22.3333 155.547 21.6473 155.864 21.05C156.191 20.4527 156.629 19.9907 157.18 19.664C157.74 19.328 158.356 19.16 159.028 19.16ZM161.702 23.136C161.702 22.604 161.59 22.142 161.366 21.75C161.151 21.358 160.867 21.0593 160.512 20.854C160.157 20.6487 159.775 20.546 159.364 20.546C158.953 20.546 158.571 20.6487 158.216 20.854C157.861 21.05 157.572 21.344 157.348 21.736C157.133 22.1187 157.026 22.576 157.026 23.108C157.026 23.64 157.133 24.1067 157.348 24.508C157.572 24.9093 157.861 25.2173 158.216 25.432C158.58 25.6373 158.963 25.74 159.364 25.74C159.775 25.74 160.157 25.6373 160.512 25.432C160.867 25.2267 161.151 24.928 161.366 24.536C161.59 24.1347 161.702 23.668 161.702 23.136ZM172.394 19.286V27H170.798V26.09C170.546 26.4073 170.215 26.6593 169.804 26.846C169.403 27.0233 168.974 27.112 168.516 27.112C167.91 27.112 167.364 26.986 166.878 26.734C166.402 26.482 166.024 26.1087 165.744 25.614C165.474 25.1193 165.338 24.522 165.338 23.822V19.286H166.92V23.584C166.92 24.2747 167.093 24.8067 167.438 25.18C167.784 25.544 168.255 25.726 168.852 25.726C169.45 25.726 169.921 25.544 170.266 25.18C170.621 24.8067 170.798 24.2747 170.798 23.584V19.286H172.394ZM177.3 27.126C176.694 27.126 176.148 27.0187 175.662 26.804C175.186 26.58 174.808 26.2813 174.528 25.908C174.248 25.5253 174.099 25.1007 174.08 24.634H175.732C175.76 24.9607 175.914 25.236 176.194 25.46C176.484 25.6747 176.843 25.782 177.272 25.782C177.72 25.782 178.066 25.698 178.308 25.53C178.56 25.3527 178.686 25.1287 178.686 24.858C178.686 24.5687 178.546 24.354 178.266 24.214C177.996 24.074 177.562 23.92 176.964 23.752C176.386 23.5933 175.914 23.4393 175.55 23.29C175.186 23.1407 174.869 22.912 174.598 22.604C174.337 22.296 174.206 21.89 174.206 21.386C174.206 20.9753 174.328 20.602 174.57 20.266C174.813 19.9207 175.158 19.65 175.606 19.454C176.064 19.258 176.586 19.16 177.174 19.16C178.052 19.16 178.756 19.384 179.288 19.832C179.83 20.2707 180.119 20.8727 180.156 21.638H178.56C178.532 21.2927 178.392 21.0173 178.14 20.812C177.888 20.6067 177.548 20.504 177.118 20.504C176.698 20.504 176.376 20.5833 176.152 20.742C175.928 20.9007 175.816 21.1107 175.816 21.372C175.816 21.5773 175.891 21.75 176.04 21.89C176.19 22.03 176.372 22.142 176.586 22.226C176.801 22.3007 177.118 22.3987 177.538 22.52C178.098 22.6693 178.556 22.8233 178.91 22.982C179.274 23.1313 179.587 23.3553 179.848 23.654C180.11 23.9527 180.245 24.3493 180.254 24.844C180.254 25.2827 180.133 25.6747 179.89 26.02C179.648 26.3653 179.302 26.636 178.854 26.832C178.416 27.028 177.898 27.126 177.3 27.126ZM183.841 20.588V24.858C183.841 25.1473 183.906 25.3573 184.037 25.488C184.177 25.6093 184.41 25.67 184.737 25.67H185.717V27H184.457C183.738 27 183.187 26.832 182.805 26.496C182.422 26.16 182.231 25.614 182.231 24.858V20.588H181.321V19.286H182.231V17.368H183.841V19.286H185.717V20.588H183.841ZM191.496 24.83C192.392 24.0553 193.097 23.4207 193.61 22.926C194.133 22.422 194.567 21.8993 194.912 21.358C195.258 20.8167 195.43 20.2753 195.43 19.734C195.43 19.174 195.295 18.7353 195.024 18.418C194.763 18.1007 194.348 17.942 193.778 17.942C193.228 17.942 192.798 18.1193 192.49 18.474C192.192 18.8193 192.033 19.286 192.014 19.874H190.474C190.502 18.81 190.82 17.998 191.426 17.438C192.042 16.8687 192.822 16.584 193.764 16.584C194.782 16.584 195.575 16.864 196.144 17.424C196.723 17.984 197.012 18.7307 197.012 19.664C197.012 20.336 196.84 20.9847 196.494 21.61C196.158 22.226 195.752 22.7813 195.276 23.276C194.81 23.7613 194.212 24.326 193.484 24.97L192.854 25.53H197.292V26.86H190.488V25.698L191.496 24.83ZM198.694 21.764C198.694 20.1493 198.965 18.8893 199.506 17.984C200.057 17.0693 201 16.612 202.334 16.612C203.669 16.612 204.607 17.0693 205.148 17.984C205.699 18.8893 205.974 20.1493 205.974 21.764C205.974 23.3973 205.699 24.676 205.148 25.6C204.607 26.5147 203.669 26.972 202.334 26.972C201 26.972 200.057 26.5147 199.506 25.6C198.965 24.676 198.694 23.3973 198.694 21.764ZM204.406 21.764C204.406 21.008 204.355 20.3687 204.252 19.846C204.159 19.3233 203.963 18.8987 203.664 18.572C203.366 18.236 202.922 18.068 202.334 18.068C201.746 18.068 201.303 18.236 201.004 18.572C200.706 18.8987 200.505 19.3233 200.402 19.846C200.309 20.3687 200.262 21.008 200.262 21.764C200.262 22.548 200.309 23.206 200.402 23.738C200.496 24.27 200.692 24.6993 200.99 25.026C201.298 25.3527 201.746 25.516 202.334 25.516C202.922 25.516 203.366 25.3527 203.664 25.026C203.972 24.6993 204.173 24.27 204.266 23.738C204.36 23.206 204.406 22.548 204.406 21.764ZM208.545 24.83C209.441 24.0553 210.146 23.4207 210.659 22.926C211.182 22.422 211.616 21.8993 211.961 21.358C212.307 20.8167 212.479 20.2753 212.479 19.734C212.479 19.174 212.344 18.7353 212.073 18.418C211.812 18.1007 211.397 17.942 210.827 17.942C210.277 17.942 209.847 18.1193 209.539 18.474C209.241 18.8193 209.082 19.286 209.063 19.874H207.523C207.551 18.81 207.869 17.998 208.475 17.438C209.091 16.8687 209.871 16.584 210.813 16.584C211.831 16.584 212.624 16.864 213.193 17.424C213.772 17.984 214.061 18.7307 214.061 19.664C214.061 20.336 213.889 20.9847 213.543 21.61C213.207 22.226 212.801 22.7813 212.325 23.276C211.859 23.7613 211.261 24.326 210.533 24.97L209.903 25.53H214.341V26.86H207.537V25.698L208.545 24.83ZM216.625 24.83C217.521 24.0553 218.226 23.4207 218.739 22.926C219.262 22.422 219.696 21.8993 220.041 21.358C220.387 20.8167 220.559 20.2753 220.559 19.734C220.559 19.174 220.424 18.7353 220.153 18.418C219.892 18.1007 219.477 17.942 218.907 17.942C218.357 17.942 217.927 18.1193 217.619 18.474C217.321 18.8193 217.162 19.286 217.143 19.874H215.603C215.631 18.81 215.949 17.998 216.555 17.438C217.171 16.8687 217.951 16.584 218.893 16.584C219.911 16.584 220.704 16.864 221.273 17.424C221.852 17.984 222.141 18.7307 222.141 19.664C222.141 20.336 221.969 20.9847 221.623 21.61C221.287 22.226 220.881 22.7813 220.405 23.276C219.939 23.7613 219.341 24.326 218.613 24.97L217.983 25.53H222.421V26.86H215.617V25.698L216.625 24.83Z" fill="#0184FB"/>
<path d="M245.197 25.7916L248.708 22.2916C248.749 22.2499 248.779 22.2048 248.796 22.1562C248.814 22.1076 248.822 22.0555 248.822 21.9999C248.822 21.9444 248.814 21.8923 248.796 21.8437C248.779 21.7951 248.749 21.7499 248.708 21.7083L245.197 18.1978C245.1 18.1006 244.979 18.052 244.833 18.052C244.687 18.052 244.562 18.1041 244.458 18.2083C244.354 18.3124 244.301 18.4339 244.301 18.5728C244.301 18.7117 244.354 18.8333 244.458 18.9374L247.52 21.9999L244.458 25.0624C244.36 25.1596 244.312 25.2794 244.312 25.4216C244.312 25.5641 244.364 25.6874 244.468 25.7916C244.572 25.8958 244.694 25.9478 244.833 25.9478C244.972 25.9478 245.093 25.8958 245.197 25.7916Z" fill="#7B7B7B"/>
<path d="M45.7166 57.084C45.1646 57.084 44.6686 56.988 44.2286 56.796C43.7966 56.596 43.4566 56.324 43.2086 55.98C42.9606 55.628 42.8326 55.224 42.8246 54.768H43.9886C44.0286 55.16 44.1886 55.492 44.4686 55.764C44.7566 56.028 45.1726 56.16 45.7166 56.16C46.2366 56.16 46.6446 56.032 46.9406 55.776C47.2446 55.512 47.3966 55.176 47.3966 54.768C47.3966 54.448 47.3086 54.188 47.1326 53.988C46.9566 53.788 46.7366 53.636 46.4726 53.532C46.2086 53.428 45.8526 53.316 45.4046 53.196C44.8526 53.052 44.4086 52.908 44.0726 52.764C43.7446 52.62 43.4606 52.396 43.2206 52.092C42.9886 51.78 42.8726 51.364 42.8726 50.844C42.8726 50.388 42.9886 49.984 43.2206 49.632C43.4526 49.28 43.7766 49.008 44.1926 48.816C44.6166 48.624 45.1006 48.528 45.6446 48.528C46.4286 48.528 47.0686 48.724 47.5646 49.116C48.0686 49.508 48.3526 50.028 48.4166 50.676H47.2166C47.1766 50.356 47.0086 50.076 46.7126 49.836C46.4166 49.588 46.0246 49.464 45.5366 49.464C45.0806 49.464 44.7086 49.584 44.4206 49.824C44.1326 50.056 43.9886 50.384 43.9886 50.808C43.9886 51.112 44.0726 51.36 44.2406 51.552C44.4166 51.744 44.6286 51.892 44.8766 51.996C45.1326 52.092 45.4886 52.204 45.9446 52.332C46.4966 52.484 46.9406 52.636 47.2766 52.788C47.6126 52.932 47.9006 53.16 48.1406 53.472C48.3806 53.776 48.5006 54.192 48.5006 54.72C48.5006 55.128 48.3926 55.512 48.1766 55.872C47.9606 56.232 47.6406 56.524 47.2166 56.748C46.7926 56.972 46.2926 57.084 45.7166 57.084ZM55.9396 50.424V57H54.8476V56.028C54.6396 56.364 54.3476 56.628 53.9716 56.82C53.6036 57.004 53.1956 57.096 52.7476 57.096C52.2356 57.096 51.7756 56.992 51.3676 56.784C50.9596 56.568 50.6356 56.248 50.3956 55.824C50.1636 55.4 50.0476 54.884 50.0476 54.276V50.424H51.1276V54.132C51.1276 54.78 51.2916 55.28 51.6196 55.632C51.9476 55.976 52.3956 56.148 52.9636 56.148C53.5476 56.148 54.0076 55.968 54.3436 55.608C54.6796 55.248 54.8476 54.724 54.8476 54.036V50.424H55.9396Z" fill="black"/>
<path d="M90.5682 48.696V57H89.4762V50.808L86.7162 57H85.9482L83.1762 50.796V57H82.0842V48.696H83.2602L86.3322 55.56L89.4042 48.696H90.5682ZM95.2881 57.108C94.6721 57.108 94.1121 56.968 93.6081 56.688C93.1121 56.408 92.7201 56.012 92.4321 55.5C92.1521 54.98 92.0121 54.38 92.0121 53.7C92.0121 53.028 92.1561 52.436 92.4441 51.924C92.7401 51.404 93.1401 51.008 93.6441 50.736C94.1481 50.456 94.7121 50.316 95.3361 50.316C95.9601 50.316 96.5241 50.456 97.0281 50.736C97.5321 51.008 97.9281 51.4 98.2161 51.912C98.5121 52.424 98.6601 53.02 98.6601 53.7C98.6601 54.38 98.5081 54.98 98.2041 55.5C97.9081 56.012 97.5041 56.408 96.9921 56.688C96.4801 56.968 95.9121 57.108 95.2881 57.108ZM95.2881 56.148C95.6801 56.148 96.0481 56.056 96.3921 55.872C96.7361 55.688 97.0121 55.412 97.2201 55.044C97.4361 54.676 97.5441 54.228 97.5441 53.7C97.5441 53.172 97.4401 52.724 97.2321 52.356C97.0241 51.988 96.7521 51.716 96.4161 51.54C96.0801 51.356 95.7161 51.264 95.3241 51.264C94.9241 51.264 94.5561 51.356 94.2201 51.54C93.8921 51.716 93.6281 51.988 93.4281 52.356C93.2281 52.724 93.1281 53.172 93.1281 53.7C93.1281 54.236 93.2241 54.688 93.4161 55.056C93.6161 55.424 93.8801 55.7 94.2081 55.884C94.5361 56.06 94.8961 56.148 95.2881 56.148Z" fill="black"/>
<path d="M129.822 48.636V49.524H127.542V57H126.45V49.524H124.158V48.636H129.822ZM136.998 50.424V57H135.906V56.028C135.698 56.364 135.406 56.628 135.03 56.82C134.662 57.004 134.254 57.096 133.806 57.096C133.294 57.096 132.834 56.992 132.426 56.784C132.018 56.568 131.694 56.248 131.454 55.824C131.222 55.4 131.106 54.884 131.106 54.276V50.424H132.186V54.132C132.186 54.78 132.35 55.28 132.678 55.632C133.006 55.976 133.454 56.148 134.022 56.148C134.606 56.148 135.066 55.968 135.402 55.608C135.738 55.248 135.906 54.724 135.906 54.036V50.424H136.998Z" fill="black"/>
<path d="M173.807 48.636L171.383 57H170.159L168.215 50.268L166.199 57L164.987 57.012L162.647 48.636H163.811L165.635 55.728L167.651 48.636H168.875L170.795 55.704L172.631 48.636H173.807ZM181.002 53.46C181.002 53.668 180.99 53.888 180.966 54.12H175.71C175.75 54.768 175.97 55.276 176.37 55.644C176.778 56.004 177.27 56.184 177.846 56.184C178.318 56.184 178.71 56.076 179.022 55.86C179.342 55.636 179.566 55.34 179.694 54.972H180.87C180.694 55.604 180.342 56.12 179.814 56.52C179.286 56.912 178.63 57.108 177.846 57.108C177.222 57.108 176.662 56.968 176.166 56.688C175.678 56.408 175.294 56.012 175.014 55.5C174.734 54.98 174.594 54.38 174.594 53.7C174.594 53.02 174.73 52.424 175.002 51.912C175.274 51.4 175.654 51.008 176.142 50.736C176.638 50.456 177.206 50.316 177.846 50.316C178.47 50.316 179.022 50.452 179.502 50.724C179.982 50.996 180.35 51.372 180.606 51.852C180.87 52.324 181.002 52.86 181.002 53.46ZM179.874 53.232C179.874 52.816 179.782 52.46 179.598 52.164C179.414 51.86 179.162 51.632 178.842 51.48C178.53 51.32 178.182 51.24 177.798 51.24C177.246 51.24 176.774 51.416 176.382 51.768C175.998 52.12 175.778 52.608 175.722 53.232H179.874ZM182.036 53.688C182.036 53.016 182.172 52.428 182.444 51.924C182.716 51.412 183.088 51.016 183.56 50.736C184.04 50.456 184.576 50.316 185.168 50.316C185.68 50.316 186.156 50.436 186.596 50.676C187.036 50.908 187.372 51.216 187.604 51.6V48.12H188.708V57H187.604V55.764C187.388 56.156 187.068 56.48 186.644 56.736C186.22 56.984 185.724 57.108 185.156 57.108C184.572 57.108 184.04 56.964 183.56 56.676C183.088 56.388 182.716 55.984 182.444 55.464C182.172 54.944 182.036 54.352 182.036 53.688ZM187.604 53.7C187.604 53.204 187.504 52.772 187.304 52.404C187.104 52.036 186.832 51.756 186.488 51.564C186.152 51.364 185.78 51.264 185.372 51.264C184.964 51.264 184.592 51.36 184.256 51.552C183.92 51.744 183.652 52.024 183.452 52.392C183.252 52.76 183.152 53.192 183.152 53.688C183.152 54.192 183.252 54.632 183.452 55.008C183.652 55.376 183.92 55.66 184.256 55.86C184.592 56.052 184.964 56.148 185.372 56.148C185.78 56.148 186.152 56.052 186.488 55.86C186.832 55.66 187.104 55.376 187.304 55.008C187.504 54.632 187.604 54.196 187.604 53.7Z" fill="black"/>
<path d="M219.816 48.636V49.524H217.536V57H216.444V49.524H214.152V48.636H219.816ZM224.424 50.304C224.92 50.304 225.368 50.412 225.768 50.628C226.168 50.836 226.48 51.152 226.704 51.576C226.936 52 227.052 52.516 227.052 53.124V57H225.972V53.28C225.972 52.624 225.808 52.124 225.48 51.78C225.152 51.428 224.704 51.252 224.136 51.252C223.56 51.252 223.1 51.432 222.756 51.792C222.42 52.152 222.252 52.676 222.252 53.364V57H221.16V48.12H222.252V51.36C222.468 51.024 222.764 50.764 223.14 50.58C223.524 50.396 223.952 50.304 224.424 50.304ZM234.668 50.424V57H233.576V56.028C233.368 56.364 233.076 56.628 232.7 56.82C232.332 57.004 231.924 57.096 231.476 57.096C230.964 57.096 230.504 56.992 230.096 56.784C229.688 56.568 229.364 56.248 229.124 55.824C228.892 55.4 228.776 54.884 228.776 54.276V50.424H229.856V54.132C229.856 54.78 230.02 55.28 230.348 55.632C230.676 55.976 231.124 56.148 231.692 56.148C232.276 56.148 232.736 55.968 233.072 55.608C233.408 55.248 233.576 54.724 233.576 54.036V50.424H234.668Z" fill="black"/>
<path d="M265.248 48.636V49.524H261.612V52.344H264.564V53.232H261.612V57H260.52V48.636H265.248ZM267.659 51.492C267.851 51.116 268.123 50.824 268.475 50.616C268.835 50.408 269.271 50.304 269.783 50.304V51.432H269.495C268.271 51.432 267.659 52.096 267.659 53.424V57H266.567V50.424H267.659V51.492ZM271.607 49.356C271.399 49.356 271.223 49.284 271.079 49.14C270.935 48.996 270.863 48.82 270.863 48.612C270.863 48.404 270.935 48.228 271.079 48.084C271.223 47.94 271.399 47.868 271.607 47.868C271.807 47.868 271.975 47.94 272.111 48.084C272.255 48.228 272.327 48.404 272.327 48.612C272.327 48.82 272.255 48.996 272.111 49.14C271.975 49.284 271.807 49.356 271.607 49.356ZM272.135 50.424V57H271.043V50.424H272.135Z" fill="black"/>
<path d="M300.814 57.084C300.262 57.084 299.766 56.988 299.326 56.796C298.894 56.596 298.554 56.324 298.306 55.98C298.058 55.628 297.93 55.224 297.922 54.768H299.086C299.126 55.16 299.286 55.492 299.566 55.764C299.854 56.028 300.27 56.16 300.814 56.16C301.334 56.16 301.742 56.032 302.038 55.776C302.342 55.512 302.494 55.176 302.494 54.768C302.494 54.448 302.406 54.188 302.23 53.988C302.054 53.788 301.834 53.636 301.57 53.532C301.306 53.428 300.95 53.316 300.502 53.196C299.95 53.052 299.506 52.908 299.17 52.764C298.842 52.62 298.558 52.396 298.318 52.092C298.086 51.78 297.97 51.364 297.97 50.844C297.97 50.388 298.086 49.984 298.318 49.632C298.55 49.28 298.874 49.008 299.29 48.816C299.714 48.624 300.198 48.528 300.742 48.528C301.526 48.528 302.166 48.724 302.662 49.116C303.166 49.508 303.45 50.028 303.514 50.676H302.314C302.274 50.356 302.106 50.076 301.81 49.836C301.514 49.588 301.122 49.464 300.634 49.464C300.178 49.464 299.806 49.584 299.518 49.824C299.23 50.056 299.086 50.384 299.086 50.808C299.086 51.112 299.17 51.36 299.338 51.552C299.514 51.744 299.726 51.892 299.974 51.996C300.23 52.092 300.586 52.204 301.042 52.332C301.594 52.484 302.038 52.636 302.374 52.788C302.71 52.932 302.998 53.16 303.238 53.472C303.478 53.776 303.598 54.192 303.598 54.72C303.598 55.128 303.49 55.512 303.274 55.872C303.058 56.232 302.738 56.524 302.314 56.748C301.89 56.972 301.39 57.084 300.814 57.084ZM304.797 53.688C304.797 53.016 304.933 52.428 305.205 51.924C305.477 51.412 305.849 51.016 306.321 50.736C306.801 50.456 307.333 50.316 307.917 50.316C308.493 50.316 308.993 50.44 309.417 50.688C309.841 50.936 310.157 51.248 310.365 51.624V50.424H311.469V57H310.365V55.776C310.149 56.16 309.825 56.48 309.393 56.736C308.969 56.984 308.473 57.108 307.905 57.108C307.321 57.108 306.793 56.964 306.321 56.676C305.849 56.388 305.477 55.984 305.205 55.464C304.933 54.944 304.797 54.352 304.797 53.688ZM310.365 53.7C310.365 53.204 310.265 52.772 310.065 52.404C309.865 52.036 309.593 51.756 309.249 51.564C308.913 51.364 308.541 51.264 308.133 51.264C307.725 51.264 307.353 51.36 307.017 51.552C306.681 51.744 306.413 52.024 306.213 52.392C306.013 52.76 305.913 53.192 305.913 53.688C305.913 54.192 306.013 54.632 306.213 55.008C306.413 55.376 306.681 55.66 307.017 55.86C307.353 56.052 307.725 56.148 308.133 56.148C308.541 56.148 308.913 56.052 309.249 55.86C309.593 55.66 309.865 55.376 310.065 55.008C310.265 54.632 310.365 54.196 310.365 53.7ZM314.647 51.324V55.2C314.647 55.52 314.715 55.748 314.851 55.884C314.987 56.012 315.223 56.076 315.559 56.076H316.363V57H315.379C314.771 57 314.315 56.86 314.011 56.58C313.707 56.3 313.555 55.84 313.555 55.2V51.324H312.703V50.424H313.555V48.768H314.647V50.424H316.363V51.324H314.647Z" fill="black"/>
<path d="M42.9192 93.508C42.9752 92.772 43.2592 92.196 43.7712 91.78C44.2832 91.364 44.9472 91.156 45.7632 91.156C46.3072 91.156 46.7752 91.256 47.1672 91.456C47.5672 91.648 47.8672 91.912 48.0672 92.248C48.2752 92.584 48.3792 92.964 48.3792 93.388C48.3792 93.884 48.2352 94.312 47.9472 94.672C47.6672 95.032 47.2992 95.264 46.8432 95.368V95.428C47.3632 95.556 47.7752 95.808 48.0792 96.184C48.3832 96.56 48.5352 97.052 48.5352 97.66C48.5352 98.116 48.4312 98.528 48.2232 98.896C48.0152 99.256 47.7032 99.54 47.2872 99.748C46.8712 99.956 46.3712 100.06 45.7872 100.06C44.9392 100.06 44.2432 99.84 43.6992 99.4C43.1552 98.952 42.8512 98.32 42.7872 97.504H43.8432C43.8992 97.984 44.0952 98.376 44.4312 98.68C44.7672 98.984 45.2152 99.136 45.7752 99.136C46.3352 99.136 46.7592 98.992 47.0472 98.704C47.3432 98.408 47.4912 98.028 47.4912 97.564C47.4912 96.964 47.2912 96.532 46.8912 96.268C46.4912 96.004 45.8872 95.872 45.0792 95.872H44.8032V94.96H45.0912C45.8272 94.952 46.3832 94.832 46.7592 94.6C47.1352 94.36 47.3232 93.992 47.3232 93.496C47.3232 93.072 47.1832 92.732 46.9032 92.476C46.6312 92.22 46.2392 92.092 45.7272 92.092C45.2312 92.092 44.8312 92.22 44.5272 92.476C44.2232 92.732 44.0432 93.076 43.9872 93.508H42.9192ZM50.0096 95.572C50.0096 94.196 50.2336 93.124 50.6816 92.356C51.1296 91.58 51.9136 91.192 53.0336 91.192C54.1456 91.192 54.9256 91.58 55.3736 92.356C55.8216 93.124 56.0456 94.196 56.0456 95.572C56.0456 96.972 55.8216 98.06 55.3736 98.836C54.9256 99.612 54.1456 100 53.0336 100C51.9136 100 51.1296 99.612 50.6816 98.836C50.2336 98.06 50.0096 96.972 50.0096 95.572ZM54.9656 95.572C54.9656 94.876 54.9176 94.288 54.8216 93.808C54.7336 93.32 54.5456 92.928 54.2576 92.632C53.9776 92.336 53.5696 92.188 53.0336 92.188C52.4896 92.188 52.0736 92.336 51.7856 92.632C51.5056 92.928 51.3176 93.32 51.2216 93.808C51.1336 94.288 51.0896 94.876 51.0896 95.572C51.0896 96.292 51.1336 96.896 51.2216 97.384C51.3176 97.872 51.5056 98.264 51.7856 98.56C52.0736 98.856 52.4896 99.004 53.0336 99.004C53.5696 99.004 53.9776 98.856 54.2576 98.56C54.5456 98.264 54.7336 97.872 54.8216 97.384C54.9176 96.896 54.9656 96.292 54.9656 95.572Z" fill="#AAAAAA"/>
<path d="M51.2714 126.388C51.0954 125.5 50.5474 125.056 49.6274 125.056C48.9154 125.056 48.3834 125.332 48.0314 125.884C47.6794 126.428 47.5074 127.328 47.5154 128.584C47.6994 128.168 48.0034 127.844 48.4274 127.612C48.8594 127.372 49.3394 127.252 49.8674 127.252C50.6914 127.252 51.3474 127.508 51.8354 128.02C52.3314 128.532 52.5794 129.24 52.5794 130.144C52.5794 130.688 52.4714 131.176 52.2554 131.608C52.0474 132.04 51.7274 132.384 51.2954 132.64C50.8714 132.896 50.3554 133.024 49.7474 133.024C48.9234 133.024 48.2794 132.84 47.8154 132.472C47.3514 132.104 47.0274 131.596 46.8434 130.948C46.6594 130.3 46.5674 129.5 46.5674 128.548C46.5674 125.612 47.5914 124.144 49.6394 124.144C50.4234 124.144 51.0394 124.356 51.4874 124.78C51.9354 125.204 52.1994 125.74 52.2794 126.388H51.2714ZM49.6394 128.176C49.2954 128.176 48.9714 128.248 48.6674 128.392C48.3634 128.528 48.1154 128.74 47.9234 129.028C47.7394 129.308 47.6474 129.652 47.6474 130.06C47.6474 130.668 47.8234 131.164 48.1754 131.548C48.5274 131.924 49.0314 132.112 49.6874 132.112C50.2474 132.112 50.6914 131.94 51.0194 131.596C51.3554 131.244 51.5234 130.772 51.5234 130.18C51.5234 129.556 51.3634 129.068 51.0434 128.716C50.7234 128.356 50.2554 128.176 49.6394 128.176Z" fill="black"/>
<path d="M44.5009 158.32V157.324H46.7569V166H45.6529V158.32H44.5009ZM48.6087 159.508C48.6647 158.772 48.9487 158.196 49.4607 157.78C49.9727 157.364 50.6367 157.156 51.4527 157.156C51.9967 157.156 52.4647 157.256 52.8567 157.456C53.2567 157.648 53.5567 157.912 53.7567 158.248C53.9647 158.584 54.0687 158.964 54.0687 159.388C54.0687 159.884 53.9247 160.312 53.6367 160.672C53.3567 161.032 52.9887 161.264 52.5327 161.368V161.428C53.0527 161.556 53.4647 161.808 53.7687 162.184C54.0727 162.56 54.2247 163.052 54.2247 163.66C54.2247 164.116 54.1207 164.528 53.9127 164.896C53.7047 165.256 53.3927 165.54 52.9767 165.748C52.5607 165.956 52.0607 166.06 51.4767 166.06C50.6287 166.06 49.9327 165.84 49.3887 165.4C48.8447 164.952 48.5407 164.32 48.4767 163.504H49.5327C49.5887 163.984 49.7847 164.376 50.1207 164.68C50.4567 164.984 50.9047 165.136 51.4647 165.136C52.0247 165.136 52.4487 164.992 52.7367 164.704C53.0327 164.408 53.1807 164.028 53.1807 163.564C53.1807 162.964 52.9807 162.532 52.5807 162.268C52.1807 162.004 51.5767 161.872 50.7687 161.872H50.4927V160.96H50.7807C51.5167 160.952 52.0727 160.832 52.4487 160.6C52.8247 160.36 53.0127 159.992 53.0127 159.496C53.0127 159.072 52.8727 158.732 52.5927 158.476C52.3207 158.22 51.9287 158.092 51.4167 158.092C50.9207 158.092 50.5207 158.22 50.2167 158.476C49.9127 158.732 49.7327 159.076 49.6767 159.508H48.6087Z" fill="black"/>
<path d="M42.8933 198.124C43.9093 197.308 44.7053 196.64 45.2812 196.12C45.8573 195.592 46.3413 195.044 46.7333 194.476C47.1333 193.9 47.3333 193.336 47.3333 192.784C47.3333 192.264 47.2053 191.856 46.9493 191.56C46.7013 191.256 46.2973 191.104 45.7373 191.104C45.1933 191.104 44.7693 191.276 44.4653 191.62C44.1693 191.956 44.0093 192.408 43.9853 192.976H42.9293C42.9613 192.08 43.2333 191.388 43.7453 190.9C44.2573 190.412 44.9173 190.168 45.7253 190.168C46.5493 190.168 47.2013 190.396 47.6813 190.852C48.1693 191.308 48.4133 191.936 48.4133 192.736C48.4133 193.4 48.2133 194.048 47.8133 194.68C47.4213 195.304 46.9733 195.856 46.4693 196.336C45.9653 196.808 45.3213 197.36 44.5373 197.992H48.6653V198.904H42.8933V198.124ZM49.9276 194.572C49.9276 193.196 50.1516 192.124 50.5996 191.356C51.0476 190.58 51.8316 190.192 52.9516 190.192C54.0636 190.192 54.8436 190.58 55.2916 191.356C55.7396 192.124 55.9636 193.196 55.9636 194.572C55.9636 195.972 55.7396 197.06 55.2916 197.836C54.8436 198.612 54.0636 199 52.9516 199C51.8316 199 51.0476 198.612 50.5996 197.836C50.1516 197.06 49.9276 195.972 49.9276 194.572ZM54.8836 194.572C54.8836 193.876 54.8356 193.288 54.7396 192.808C54.6516 192.32 54.4636 191.928 54.1756 191.632C53.8956 191.336 53.4876 191.188 52.9516 191.188C52.4076 191.188 51.9916 191.336 51.7036 191.632C51.4236 191.928 51.2356 192.32 51.1396 192.808C51.0516 193.288 51.0076 193.876 51.0076 194.572C51.0076 195.292 51.0516 195.896 51.1396 196.384C51.2356 196.872 51.4236 197.264 51.7036 197.56C51.9916 197.856 52.4076 198.004 52.9516 198.004C53.4876 198.004 53.8956 197.856 54.1756 197.56C54.4636 197.264 54.6516 196.872 54.7396 196.384C54.8356 195.896 54.8836 195.292 54.8836 194.572Z" fill="black"/>
<circle cx="89.5" cy="194.5" r="12.5" fill="#0184FB"/>
<path d="M84.7649 93.508C84.8209 92.772 85.1049 92.196 85.6169 91.78C86.1289 91.364 86.7929 91.156 87.6089 91.156C88.1529 91.156 88.6209 91.256 89.0129 91.456C89.4129 91.648 89.7129 91.912 89.9129 92.248C90.1209 92.584 90.2249 92.964 90.2249 93.388C90.2249 93.884 90.0809 94.312 89.7929 94.672C89.5129 95.032 89.1449 95.264 88.6889 95.368V95.428C89.2089 95.556 89.6209 95.808 89.9249 96.184C90.2289 96.56 90.3809 97.052 90.3809 97.66C90.3809 98.116 90.2769 98.528 90.0689 98.896C89.8609 99.256 89.5489 99.54 89.1329 99.748C88.7169 99.956 88.2169 100.06 87.6329 100.06C86.7849 100.06 86.0889 99.84 85.5449 99.4C85.0009 98.952 84.6969 98.32 84.6329 97.504H85.6889C85.7449 97.984 85.9409 98.376 86.2769 98.68C86.6129 98.984 87.0609 99.136 87.6209 99.136C88.1809 99.136 88.6049 98.992 88.8929 98.704C89.1889 98.408 89.3369 98.028 89.3369 97.564C89.3369 96.964 89.1369 96.532 88.7369 96.268C88.3369 96.004 87.7329 95.872 86.9249 95.872H86.6489V94.96H86.9369C87.6729 94.952 88.2289 94.832 88.6049 94.6C88.9809 94.36 89.1689 93.992 89.1689 93.496C89.1689 93.072 89.0289 92.732 88.7489 92.476C88.4769 92.22 88.0849 92.092 87.5729 92.092C87.0769 92.092 86.6769 92.22 86.3729 92.476C86.0689 92.732 85.8889 93.076 85.8329 93.508H84.7649ZM91.5673 92.32V91.324H93.8233V100H92.7193V92.32H91.5673Z" fill="#AAAAAA"/>
<path d="M92.3086 125.176L88.9726 133H87.8686L91.2526 125.284H86.6206V124.348H92.3086V125.176Z" fill="black"/>
<path d="M84.2607 158.32V157.324H86.5167V166H85.4127V158.32H84.2607ZM88.1284 164.068V163.24L92.3404 157.408H93.6484V163.12H94.8484V164.068H93.6484V166H92.5684V164.068H88.1284ZM92.6164 158.548L89.3884 163.12H92.6164V158.548Z" fill="black"/>
<path d="M84.739 198.124C85.755 197.308 86.551 196.64 87.127 196.12C87.703 195.592 88.187 195.044 88.579 194.476C88.979 193.9 89.179 193.336 89.179 192.784C89.179 192.264 89.051 191.856 88.795 191.56C88.547 191.256 88.143 191.104 87.583 191.104C87.039 191.104 86.615 191.276 86.311 191.62C86.015 191.956 85.855 192.408 85.831 192.976H84.775C84.807 192.08 85.079 191.388 85.591 190.9C86.103 190.412 86.763 190.168 87.571 190.168C88.395 190.168 89.047 190.396 89.527 190.852C90.015 191.308 90.259 191.936 90.259 192.736C90.259 193.4 90.059 194.048 89.659 194.68C89.267 195.304 88.819 195.856 88.315 196.336C87.811 196.808 87.167 197.36 86.383 197.992H90.511V198.904H84.739V198.124ZM91.4853 191.32V190.324H93.7413V199H92.6373V191.32H91.4853Z" fill="white"/>
<circle cx="89.5" cy="136.5" r="1.5" fill="#0184FB"/>
<path d="M128.534 92.32V91.324H130.79V100H129.686V92.32H128.534Z" fill="black"/>
<path d="M128.543 128.488C128.095 128.312 127.751 128.056 127.511 127.72C127.271 127.384 127.151 126.976 127.151 126.496C127.151 126.064 127.259 125.676 127.475 125.332C127.691 124.98 128.011 124.704 128.435 124.504C128.867 124.296 129.387 124.192 129.995 124.192C130.603 124.192 131.119 124.296 131.543 124.504C131.975 124.704 132.299 124.98 132.515 125.332C132.739 125.676 132.851 126.064 132.851 126.496C132.851 126.96 132.727 127.368 132.479 127.72C132.231 128.064 131.891 128.32 131.459 128.488C131.955 128.64 132.347 128.908 132.635 129.292C132.931 129.668 133.079 130.124 133.079 130.66C133.079 131.18 132.951 131.636 132.695 132.028C132.439 132.412 132.075 132.712 131.603 132.928C131.139 133.136 130.603 133.24 129.995 133.24C129.387 133.24 128.851 133.136 128.387 132.928C127.931 132.712 127.575 132.412 127.319 132.028C127.063 131.636 126.935 131.18 126.935 130.66C126.935 130.124 127.079 129.664 127.367 129.28C127.655 128.896 128.047 128.632 128.543 128.488ZM131.795 126.628C131.795 126.14 131.635 125.764 131.315 125.5C130.995 125.236 130.555 125.104 129.995 125.104C129.443 125.104 129.007 125.236 128.687 125.5C128.367 125.764 128.207 126.144 128.207 126.64C128.207 127.088 128.371 127.448 128.699 127.72C129.035 127.992 129.467 128.128 129.995 128.128C130.531 128.128 130.963 127.992 131.291 127.72C131.627 127.44 131.795 127.076 131.795 126.628ZM129.995 128.968C129.403 128.968 128.919 129.108 128.543 129.388C128.167 129.66 127.979 130.072 127.979 130.624C127.979 131.136 128.159 131.548 128.519 131.86C128.887 132.172 129.379 132.328 129.995 132.328C130.611 132.328 131.099 132.172 131.459 131.86C131.819 131.548 131.999 131.136 131.999 130.624C131.999 130.088 131.815 129.68 131.447 129.4C131.079 129.112 130.595 128.968 129.995 128.968Z" fill="black"/>
<path d="M124.767 158.32V157.324H127.023V166H125.919V158.32H124.767ZM134.43 158.272H130.218V161.008C130.402 160.752 130.674 160.544 131.034 160.384C131.394 160.216 131.782 160.132 132.198 160.132C132.862 160.132 133.402 160.272 133.818 160.552C134.234 160.824 134.53 161.18 134.706 161.62C134.89 162.052 134.982 162.512 134.982 163C134.982 163.576 134.874 164.092 134.658 164.548C134.442 165.004 134.11 165.364 133.662 165.628C133.222 165.892 132.674 166.024 132.018 166.024C131.178 166.024 130.498 165.808 129.978 165.376C129.458 164.944 129.142 164.368 129.03 163.648H130.098C130.202 164.104 130.422 164.46 130.758 164.716C131.094 164.972 131.518 165.1 132.03 165.1C132.662 165.1 133.138 164.912 133.458 164.536C133.778 164.152 133.938 163.648 133.938 163.024C133.938 162.4 133.778 161.92 133.458 161.584C133.138 161.24 132.666 161.068 132.042 161.068C131.618 161.068 131.246 161.172 130.926 161.38C130.614 161.58 130.386 161.856 130.242 162.208H129.21V157.312H134.43V158.272Z" fill="black"/>
<path d="M123.71 198.124C124.726 197.308 125.522 196.64 126.098 196.12C126.674 195.592 127.158 195.044 127.55 194.476C127.95 193.9 128.15 193.336 128.15 192.784C128.15 192.264 128.022 191.856 127.766 191.56C127.518 191.256 127.114 191.104 126.554 191.104C126.01 191.104 125.586 191.276 125.282 191.62C124.986 191.956 124.826 192.408 124.802 192.976H123.746C123.778 192.08 124.05 191.388 124.562 190.9C125.074 190.412 125.734 190.168 126.542 190.168C127.366 190.168 128.018 190.396 128.498 190.852C128.986 191.308 129.23 191.936 129.23 192.736C129.23 193.4 129.03 194.048 128.63 194.68C128.238 195.304 127.79 195.856 127.286 196.336C126.782 196.808 126.138 197.36 125.354 197.992H129.482V198.904H123.71V198.124ZM130.612 198.124C131.628 197.308 132.424 196.64 133 196.12C133.576 195.592 134.06 195.044 134.452 194.476C134.852 193.9 135.052 193.336 135.052 192.784C135.052 192.264 134.924 191.856 134.668 191.56C134.42 191.256 134.016 191.104 133.456 191.104C132.912 191.104 132.488 191.276 132.184 191.62C131.888 191.956 131.728 192.408 131.704 192.976H130.648C130.68 192.08 130.952 191.388 131.464 190.9C131.976 190.412 132.636 190.168 133.444 190.168C134.268 190.168 134.92 190.396 135.4 190.852C135.888 191.308 136.132 191.936 136.132 192.736C136.132 193.4 135.932 194.048 135.532 194.68C135.14 195.304 134.692 195.856 134.188 196.336C133.684 196.808 133.04 197.36 132.256 197.992H136.384V198.904H130.612V198.124Z" fill="black"/>
<path d="M173.161 99.124C174.177 98.308 174.973 97.64 175.549 97.12C176.125 96.592 176.609 96.044 177.001 95.476C177.401 94.9 177.601 94.336 177.601 93.784C177.601 93.264 177.473 92.856 177.217 92.56C176.969 92.256 176.565 92.104 176.005 92.104C175.461 92.104 175.037 92.276 174.733 92.62C174.437 92.956 174.277 93.408 174.253 93.976H173.197C173.229 93.08 173.501 92.388 174.013 91.9C174.525 91.412 175.185 91.168 175.993 91.168C176.817 91.168 177.469 91.396 177.949 91.852C178.437 92.308 178.681 92.936 178.681 93.736C178.681 94.4 178.481 95.048 178.081 95.68C177.689 96.304 177.241 96.856 176.737 97.336C176.233 97.808 175.589 98.36 174.805 98.992H178.933V99.904H173.161V99.124Z" fill="black"/>
<path d="M174.369 130.672C174.449 131.128 174.633 131.48 174.921 131.728C175.217 131.976 175.613 132.1 176.109 132.1C176.773 132.1 177.261 131.84 177.573 131.32C177.893 130.8 178.045 129.924 178.029 128.692C177.861 129.052 177.581 129.336 177.189 129.544C176.797 129.744 176.361 129.844 175.881 129.844C175.345 129.844 174.865 129.736 174.441 129.52C174.025 129.296 173.697 128.972 173.457 128.548C173.217 128.124 173.097 127.612 173.097 127.012C173.097 126.156 173.345 125.468 173.841 124.948C174.337 124.42 175.041 124.156 175.953 124.156C177.073 124.156 177.857 124.52 178.305 125.248C178.761 125.976 178.989 127.06 178.989 128.5C178.989 129.508 178.897 130.34 178.713 130.996C178.537 131.652 178.233 132.152 177.801 132.496C177.377 132.84 176.793 133.012 176.049 133.012C175.233 133.012 174.597 132.792 174.141 132.352C173.685 131.912 173.425 131.352 173.361 130.672H174.369ZM176.061 128.92C176.597 128.92 177.037 128.756 177.381 128.428C177.725 128.092 177.897 127.64 177.897 127.072C177.897 126.472 177.729 125.988 177.393 125.62C177.057 125.252 176.585 125.068 175.977 125.068C175.417 125.068 174.969 125.244 174.633 125.596C174.305 125.948 174.141 126.412 174.141 126.988C174.141 127.572 174.305 128.04 174.633 128.392C174.961 128.744 175.437 128.92 176.061 128.92Z" fill="black"/>
<path d="M170.726 158.32V157.324H172.982V166H171.878V158.32H170.726ZM179.693 159.388C179.517 158.5 178.969 158.056 178.049 158.056C177.337 158.056 176.805 158.332 176.453 158.884C176.101 159.428 175.929 160.328 175.937 161.584C176.121 161.168 176.425 160.844 176.849 160.612C177.281 160.372 177.761 160.252 178.289 160.252C179.113 160.252 179.769 160.508 180.257 161.02C180.753 161.532 181.001 162.24 181.001 163.144C181.001 163.688 180.893 164.176 180.677 164.608C180.469 165.04 180.149 165.384 179.717 165.64C179.293 165.896 178.777 166.024 178.169 166.024C177.345 166.024 176.701 165.84 176.237 165.472C175.773 165.104 175.449 164.596 175.265 163.948C175.081 163.3 174.989 162.5 174.989 161.548C174.989 158.612 176.013 157.144 178.061 157.144C178.845 157.144 179.461 157.356 179.909 157.78C180.357 158.204 180.621 158.74 180.701 159.388H179.693ZM178.061 161.176C177.717 161.176 177.393 161.248 177.089 161.392C176.785 161.528 176.537 161.74 176.345 162.028C176.161 162.308 176.069 162.652 176.069 163.06C176.069 163.668 176.245 164.164 176.597 164.548C176.949 164.924 177.453 165.112 178.109 165.112C178.669 165.112 179.113 164.94 179.441 164.596C179.777 164.244 179.945 163.772 179.945 163.18C179.945 162.556 179.785 162.068 179.465 161.716C179.145 161.356 178.677 161.176 178.061 161.176Z" fill="black"/>
<path d="M169.628 198.124C170.644 197.308 171.44 196.64 172.016 196.12C172.592 195.592 173.076 195.044 173.468 194.476C173.868 193.9 174.068 193.336 174.068 192.784C174.068 192.264 173.94 191.856 173.684 191.56C173.436 191.256 173.032 191.104 172.472 191.104C171.928 191.104 171.504 191.276 171.2 191.62C170.904 191.956 170.744 192.408 170.72 192.976H169.664C169.696 192.08 169.968 191.388 170.48 190.9C170.992 190.412 171.652 190.168 172.46 190.168C173.284 190.168 173.936 190.396 174.416 190.852C174.904 191.308 175.148 191.936 175.148 192.736C175.148 193.4 174.948 194.048 174.548 194.68C174.156 195.304 173.708 195.856 173.204 196.336C172.7 196.808 172.056 197.36 171.272 197.992H175.4V198.904H169.628V198.124ZM176.638 192.508C176.694 191.772 176.978 191.196 177.49 190.78C178.002 190.364 178.666 190.156 179.482 190.156C180.026 190.156 180.494 190.256 180.886 190.456C181.286 190.648 181.586 190.912 181.786 191.248C181.994 191.584 182.098 191.964 182.098 192.388C182.098 192.884 181.954 193.312 181.666 193.672C181.386 194.032 181.018 194.264 180.562 194.368V194.428C181.082 194.556 181.494 194.808 181.798 195.184C182.102 195.56 182.254 196.052 182.254 196.66C182.254 197.116 182.15 197.528 181.942 197.896C181.734 198.256 181.422 198.54 181.006 198.748C180.59 198.956 180.09 199.06 179.506 199.06C178.658 199.06 177.962 198.84 177.418 198.4C176.874 197.952 176.57 197.32 176.506 196.504H177.562C177.618 196.984 177.814 197.376 178.15 197.68C178.486 197.984 178.934 198.136 179.494 198.136C180.054 198.136 180.478 197.992 180.766 197.704C181.062 197.408 181.21 197.028 181.21 196.564C181.21 195.964 181.01 195.532 180.61 195.268C180.21 195.004 179.606 194.872 178.798 194.872H178.522V193.96H178.81C179.546 193.952 180.102 193.832 180.478 193.6C180.854 193.36 181.042 192.992 181.042 192.496C181.042 192.072 180.902 191.732 180.622 191.476C180.35 191.22 179.958 191.092 179.446 191.092C178.95 191.092 178.55 191.22 178.246 191.476C177.942 191.732 177.762 192.076 177.706 192.508H176.638Z" fill="black"/>
<path d="M221.687 93.508C221.743 92.772 222.027 92.196 222.539 91.78C223.051 91.364 223.715 91.156 224.531 91.156C225.075 91.156 225.543 91.256 225.935 91.456C226.335 91.648 226.635 91.912 226.835 92.248C227.043 92.584 227.147 92.964 227.147 93.388C227.147 93.884 227.003 94.312 226.715 94.672C226.435 95.032 226.067 95.264 225.611 95.368V95.428C226.131 95.556 226.543 95.808 226.847 96.184C227.151 96.56 227.303 97.052 227.303 97.66C227.303 98.116 227.199 98.528 226.991 98.896C226.783 99.256 226.471 99.54 226.055 99.748C225.639 99.956 225.139 100.06 224.555 100.06C223.707 100.06 223.011 99.84 222.467 99.4C221.923 98.952 221.619 98.32 221.555 97.504H222.611C222.667 97.984 222.863 98.376 223.199 98.68C223.535 98.984 223.983 99.136 224.543 99.136C225.103 99.136 225.527 98.992 225.815 98.704C226.111 98.408 226.259 98.028 226.259 97.564C226.259 96.964 226.059 96.532 225.659 96.268C225.259 96.004 224.655 95.872 223.847 95.872H223.571V94.96H223.859C224.595 94.952 225.151 94.832 225.527 94.6C225.903 94.36 226.091 93.992 226.091 93.496C226.091 93.072 225.951 92.732 225.671 92.476C225.399 92.22 225.007 92.092 224.495 92.092C223.999 92.092 223.599 92.22 223.295 92.476C222.991 92.732 222.811 93.076 222.755 93.508H221.687Z" fill="black"/>
<path d="M219.267 125.32V124.324H221.523V133H220.419V125.32H219.267ZM223.398 128.572C223.398 127.196 223.622 126.124 224.07 125.356C224.518 124.58 225.302 124.192 226.422 124.192C227.534 124.192 228.314 124.58 228.762 125.356C229.21 126.124 229.434 127.196 229.434 128.572C229.434 129.972 229.21 131.06 228.762 131.836C228.314 132.612 227.534 133 226.422 133C225.302 133 224.518 132.612 224.07 131.836C223.622 131.06 223.398 129.972 223.398 128.572ZM228.354 128.572C228.354 127.876 228.306 127.288 228.21 126.808C228.122 126.32 227.934 125.928 227.646 125.632C227.366 125.336 226.958 125.188 226.422 125.188C225.878 125.188 225.462 125.336 225.174 125.632C224.894 125.928 224.706 126.32 224.61 126.808C224.522 127.288 224.478 127.876 224.478 128.572C224.478 129.292 224.522 129.896 224.61 130.384C224.706 130.872 224.894 131.264 225.174 131.56C225.462 131.856 225.878 132.004 226.422 132.004C226.958 132.004 227.366 131.856 227.646 131.56C227.934 131.264 228.122 130.872 228.21 130.384C228.306 129.896 228.354 129.292 228.354 128.572Z" fill="black"/>
<path d="M219.759 158.32V157.324H222.015V166H220.911V158.32H219.759ZM229.23 158.176L225.894 166H224.79L228.174 158.284H223.542V157.348H229.23V158.176Z" fill="black"/>
<path d="M217.887 198.124C218.903 197.308 219.699 196.64 220.275 196.12C220.851 195.592 221.335 195.044 221.727 194.476C222.127 193.9 222.327 193.336 222.327 192.784C222.327 192.264 222.199 191.856 221.943 191.56C221.695 191.256 221.291 191.104 220.731 191.104C220.187 191.104 219.763 191.276 219.459 191.62C219.163 191.956 219.003 192.408 218.979 192.976H217.923C217.955 192.08 218.227 191.388 218.739 190.9C219.251 190.412 219.911 190.168 220.719 190.168C221.543 190.168 222.195 190.396 222.675 190.852C223.163 191.308 223.407 191.936 223.407 192.736C223.407 193.4 223.207 194.048 222.807 194.68C222.415 195.304 221.967 195.856 221.463 196.336C220.959 196.808 220.315 197.36 219.531 197.992H223.659V198.904H217.887V198.124ZM224.658 197.068V196.24L228.87 190.408H230.178V196.12H231.378V197.068H230.178V199H229.098V197.068H224.658ZM229.146 191.548L225.918 196.12H229.146V191.548Z" fill="black"/>
<path d="M263.207 98.068V97.24L267.419 91.408H268.727V97.12H269.927V98.068H268.727V100H267.647V98.068H263.207ZM267.695 92.548L264.467 97.12H267.695V92.548Z" fill="black"/>
<path d="M263.112 125.32V124.324H265.368V133H264.264V125.32H263.112ZM266.956 125.32V124.324H269.212V133H268.108V125.32H266.956Z" fill="black"/>
<path d="M261.249 158.32V157.324H263.505V166H262.401V158.32H261.249ZM266.965 161.488C266.517 161.312 266.173 161.056 265.933 160.72C265.693 160.384 265.573 159.976 265.573 159.496C265.573 159.064 265.681 158.676 265.897 158.332C266.113 157.98 266.433 157.704 266.857 157.504C267.289 157.296 267.809 157.192 268.417 157.192C269.025 157.192 269.541 157.296 269.965 157.504C270.397 157.704 270.721 157.98 270.937 158.332C271.161 158.676 271.273 159.064 271.273 159.496C271.273 159.96 271.149 160.368 270.901 160.72C270.653 161.064 270.313 161.32 269.881 161.488C270.377 161.64 270.769 161.908 271.057 162.292C271.353 162.668 271.501 163.124 271.501 163.66C271.501 164.18 271.373 164.636 271.117 165.028C270.861 165.412 270.497 165.712 270.025 165.928C269.561 166.136 269.025 166.24 268.417 166.24C267.809 166.24 267.273 166.136 266.809 165.928C266.353 165.712 265.997 165.412 265.741 165.028C265.485 164.636 265.357 164.18 265.357 163.66C265.357 163.124 265.501 162.664 265.789 162.28C266.077 161.896 266.469 161.632 266.965 161.488ZM270.217 159.628C270.217 159.14 270.057 158.764 269.737 158.5C269.417 158.236 268.977 158.104 268.417 158.104C267.865 158.104 267.429 158.236 267.109 158.5C266.789 158.764 266.629 159.144 266.629 159.64C266.629 160.088 266.793 160.448 267.121 160.72C267.457 160.992 267.889 161.128 268.417 161.128C268.953 161.128 269.385 160.992 269.713 160.72C270.049 160.44 270.217 160.076 270.217 159.628ZM268.417 161.968C267.825 161.968 267.341 162.108 266.965 162.388C266.589 162.66 266.401 163.072 266.401 163.624C266.401 164.136 266.581 164.548 266.941 164.86C267.309 165.172 267.801 165.328 268.417 165.328C269.033 165.328 269.521 165.172 269.881 164.86C270.241 164.548 270.421 164.136 270.421 163.624C270.421 163.088 270.237 162.68 269.869 162.4C269.501 162.112 269.017 161.968 268.417 161.968Z" fill="black"/>
<path d="M259.893 198.124C260.909 197.308 261.705 196.64 262.281 196.12C262.857 195.592 263.341 195.044 263.733 194.476C264.133 193.9 264.333 193.336 264.333 192.784C264.333 192.264 264.205 191.856 263.949 191.56C263.701 191.256 263.297 191.104 262.737 191.104C262.193 191.104 261.769 191.276 261.465 191.62C261.169 191.956 261.009 192.408 260.985 192.976H259.929C259.961 192.08 260.233 191.388 260.745 190.9C261.257 190.412 261.917 190.168 262.725 190.168C263.549 190.168 264.201 190.396 264.681 190.852C265.169 191.308 265.413 191.936 265.413 192.736C265.413 193.4 265.213 194.048 264.813 194.68C264.421 195.304 263.973 195.856 263.469 196.336C262.965 196.808 262.321 197.36 261.537 197.992H265.665V198.904H259.893V198.124ZM272.46 191.272H268.248V194.008C268.432 193.752 268.704 193.544 269.064 193.384C269.424 193.216 269.812 193.132 270.228 193.132C270.892 193.132 271.432 193.272 271.848 193.552C272.264 193.824 272.56 194.18 272.736 194.62C272.92 195.052 273.012 195.512 273.012 196C273.012 196.576 272.904 197.092 272.688 197.548C272.472 198.004 272.14 198.364 271.692 198.628C271.252 198.892 270.704 199.024 270.048 199.024C269.208 199.024 268.528 198.808 268.008 198.376C267.488 197.944 267.172 197.368 267.06 196.648H268.128C268.232 197.104 268.452 197.46 268.788 197.716C269.124 197.972 269.548 198.1 270.06 198.1C270.692 198.1 271.168 197.912 271.488 197.536C271.808 197.152 271.968 196.648 271.968 196.024C271.968 195.4 271.808 194.92 271.488 194.584C271.168 194.24 270.696 194.068 270.072 194.068C269.648 194.068 269.276 194.172 268.956 194.38C268.644 194.58 268.416 194.856 268.272 195.208H267.24V190.312H272.46V191.272Z" fill="black"/>
<path d="M311.008 92.272H306.796V95.008C306.98 94.752 307.252 94.544 307.612 94.384C307.972 94.216 308.36 94.132 308.776 94.132C309.44 94.132 309.98 94.272 310.396 94.552C310.812 94.824 311.108 95.18 311.284 95.62C311.468 96.052 311.56 96.512 311.56 97C311.56 97.576 311.452 98.092 311.236 98.548C311.02 99.004 310.688 99.364 310.24 99.628C309.8 99.892 309.252 100.024 308.596 100.024C307.756 100.024 307.076 99.808 306.556 99.376C306.036 98.944 305.72 98.368 305.608 97.648H306.676C306.78 98.104 307 98.46 307.336 98.716C307.672 98.972 308.096 99.1 308.608 99.1C309.24 99.1 309.716 98.912 310.036 98.536C310.356 98.152 310.516 97.648 310.516 97.024C310.516 96.4 310.356 95.92 310.036 95.584C309.716 95.24 309.244 95.068 308.62 95.068C308.196 95.068 307.824 95.172 307.504 95.38C307.192 95.58 306.964 95.856 306.82 96.208H305.788V91.312H311.008V92.272Z" fill="black"/>
<path d="M303.583 125.32V124.324H305.839V133H304.735V125.32H303.583ZM307.583 132.124C308.599 131.308 309.395 130.64 309.971 130.12C310.547 129.592 311.031 129.044 311.423 128.476C311.823 127.9 312.023 127.336 312.023 126.784C312.023 126.264 311.895 125.856 311.639 125.56C311.391 125.256 310.987 125.104 310.427 125.104C309.883 125.104 309.459 125.276 309.155 125.62C308.859 125.956 308.699 126.408 308.675 126.976H307.619C307.651 126.08 307.923 125.388 308.435 124.9C308.947 124.412 309.607 124.168 310.415 124.168C311.239 124.168 311.891 124.396 312.371 124.852C312.859 125.308 313.103 125.936 313.103 126.736C313.103 127.4 312.903 128.048 312.503 128.68C312.111 129.304 311.663 129.856 311.159 130.336C310.655 130.808 310.011 131.36 309.227 131.992H313.355V132.904H307.583V132.124Z" fill="black"/>
<path d="M303.255 158.32V157.324H305.511V166H304.407V158.32H303.255ZM308.791 163.672C308.871 164.128 309.055 164.48 309.343 164.728C309.639 164.976 310.035 165.1 310.531 165.1C311.195 165.1 311.683 164.84 311.995 164.32C312.315 163.8 312.467 162.924 312.451 161.692C312.283 162.052 312.003 162.336 311.611 162.544C311.219 162.744 310.783 162.844 310.303 162.844C309.767 162.844 309.287 162.736 308.863 162.52C308.447 162.296 308.119 161.972 307.879 161.548C307.639 161.124 307.519 160.612 307.519 160.012C307.519 159.156 307.767 158.468 308.263 157.948C308.759 157.42 309.463 157.156 310.375 157.156C311.495 157.156 312.279 157.52 312.727 158.248C313.183 158.976 313.411 160.06 313.411 161.5C313.411 162.508 313.319 163.34 313.135 163.996C312.959 164.652 312.655 165.152 312.223 165.496C311.799 165.84 311.215 166.012 310.471 166.012C309.655 166.012 309.019 165.792 308.563 165.352C308.107 164.912 307.847 164.352 307.783 163.672H308.791ZM310.483 161.92C311.019 161.92 311.459 161.756 311.803 161.428C312.147 161.092 312.319 160.64 312.319 160.072C312.319 159.472 312.151 158.988 311.815 158.62C311.479 158.252 311.007 158.068 310.399 158.068C309.839 158.068 309.391 158.244 309.055 158.596C308.727 158.948 308.563 159.412 308.563 159.988C308.563 160.572 308.727 161.04 309.055 161.392C309.383 161.744 309.859 161.92 310.483 161.92Z" fill="black"/>
<path d="M301.852 198.124C302.868 197.308 303.664 196.64 304.24 196.12C304.816 195.592 305.3 195.044 305.692 194.476C306.092 193.9 306.292 193.336 306.292 192.784C306.292 192.264 306.164 191.856 305.908 191.56C305.66 191.256 305.256 191.104 304.696 191.104C304.152 191.104 303.728 191.276 303.424 191.62C303.128 191.956 302.968 192.408 302.944 192.976H301.888C301.92 192.08 302.192 191.388 302.704 190.9C303.216 190.412 303.876 190.168 304.684 190.168C305.508 190.168 306.16 190.396 306.64 190.852C307.128 191.308 307.372 191.936 307.372 192.736C307.372 193.4 307.172 194.048 306.772 194.68C306.38 195.304 305.932 195.856 305.428 196.336C304.924 196.808 304.28 197.36 303.496 197.992H307.624V198.904H301.852V198.124ZM313.723 192.388C313.547 191.5 312.999 191.056 312.079 191.056C311.367 191.056 310.835 191.332 310.483 191.884C310.131 192.428 309.959 193.328 309.967 194.584C310.151 194.168 310.455 193.844 310.879 193.612C311.311 193.372 311.791 193.252 312.319 193.252C313.143 193.252 313.799 193.508 314.287 194.02C314.783 194.532 315.031 195.24 315.031 196.144C315.031 196.688 314.923 197.176 314.707 197.608C314.499 198.04 314.179 198.384 313.747 198.64C313.323 198.896 312.807 199.024 312.199 199.024C311.375 199.024 310.731 198.84 310.267 198.472C309.803 198.104 309.479 197.596 309.295 196.948C309.111 196.3 309.019 195.5 309.019 194.548C309.019 191.612 310.043 190.144 312.091 190.144C312.875 190.144 313.491 190.356 313.939 190.78C314.387 191.204 314.651 191.74 314.731 192.388H313.723ZM312.091 194.176C311.747 194.176 311.423 194.248 311.119 194.392C310.815 194.528 310.567 194.74 310.375 195.028C310.191 195.308 310.099 195.652 310.099 196.06C310.099 196.668 310.275 197.164 310.627 197.548C310.979 197.924 311.483 198.112 312.139 198.112C312.699 198.112 313.143 197.94 313.471 197.596C313.807 197.244 313.975 196.772 313.975 196.18C313.975 195.556 313.815 195.068 313.495 194.716C313.175 194.356 312.707 194.176 312.091 194.176Z" fill="black"/>
</g>
<defs>
<filter id="filter0_bd_1397_3618" x="-26" y="-30" width="397" height="275" filterUnits="userSpaceOnUse" color-interpolation-filters="sRGB">
<feFlood flood-opacity="0" result="BackgroundImageFix"/>
<feGaussianBlur in="BackgroundImageFix" stdDeviation="15"/>
<feComposite in2="SourceAlpha" operator="in" result="effect1_backgroundBlur_1397_3618"/>
<feColorMatrix in="SourceAlpha" type="matrix" values="0 0 0 0 0 0 0 0 0 0 0 0 0 0 0 0 0 0 127 0" result="hardAlpha"/>
<feOffset dy="4"/>
<feGaussianBlur stdDeviation="2"/>
<feComposite in2="hardAlpha" operator="out"/>
<feColorMatrix type="matrix" values="0 0 0 0 0 0 0 0 0 0 0 0 0 0 0 0 0 0 0.25 0"/>
<feBlend mode="normal" in2="effect1_backgroundBlur_1397_3618" result="effect2_dropShadow_1397_3618"/>
<feBlend mode="normal" in="SourceGraphic" in2="effect2_dropShadow_1397_3618" result="shape"/>
</filter>
<clipPath id="clip0_1397_3618">
<rect width="337" height="215" fill="white" transform="translate(4)"/>
</clipPath>
</defs>
</svg>
