<svg width="563" height="586" viewBox="0 0 563 586" fill="none" xmlns="http://www.w3.org/2000/svg">
<g clip-path="url(#clip0_921_3450)">
<path d="M42.5942 552.841L250.677 134.671C260.053 115.862 279.605 103.937 301.052 103.937H540.955C556.815 103.937 567.19 120.031 560.307 133.993L352.224 552.163C342.848 570.972 323.296 582.897 301.85 582.897H61.9461C46.0855 582.897 35.7113 566.803 42.5942 552.841Z" fill="#F0F0E7"/>
<path d="M301.85 569.615H61.9464C54.3652 569.615 47.3826 565.833 43.2928 559.628C39.2029 553.326 38.8039 545.57 42.0958 538.977L250.178 120.807C259.555 101.997 279.505 89.8779 300.952 89.8779H540.855C548.437 89.8779 555.419 93.6592 559.509 99.8644C563.599 106.07 563.998 113.923 560.706 120.516L352.723 538.589C343.347 557.398 323.396 569.615 301.85 569.615ZM43.0933 539.268C39.9012 545.667 40.3002 553.035 44.1905 559.046C48.0809 565.058 54.7642 568.645 61.9464 568.645H301.85C322.997 568.645 342.549 556.72 351.726 538.201L559.808 120.031C563 113.632 562.601 106.263 558.711 100.252C554.821 94.2409 548.237 90.6536 540.955 90.6536H301.052C279.904 90.6536 260.353 102.579 251.176 121.098L43.0933 539.268Z" fill="#A3B2BF"/>
<path d="M0.299561 520.167C0.299561 520.167 17.0579 504.073 43.4922 506.981C69.9264 509.89 66.6346 522.979 66.6346 522.979C66.6346 522.979 72.7195 516.677 82.8942 521.04C93.0689 525.403 97.3582 537.522 97.3582 537.522C97.3582 537.522 100.052 534.323 109.328 537.522C118.605 540.722 124.491 550.321 126.087 555.265C127.683 560.21 128.88 570.875 128.88 570.875L132.87 582.898C132.87 582.898 118.406 562.828 100.65 552.744C82.8942 542.661 47.2827 523.27 47.2827 523.27L0.299561 520.167Z" fill="#0184FB"/>
<path d="M132.969 582.897C132.969 582.897 109.129 540.14 66.6342 526.372C24.2396 512.605 0.299161 520.07 0.299161 520.07C0.299161 520.07 -4.78819 536.165 25.7359 535.971C56.26 535.777 57.457 532.577 57.457 532.577C57.457 532.577 50.7737 545.085 59.5518 550.417C68.2302 555.653 89.8764 550.417 89.8764 550.417C89.8764 550.417 91.672 563.894 103.044 568.742C114.415 573.59 123.692 574.268 123.692 574.268L132.969 582.897Z" fill="#0184FB"/>
<path d="M157.708 583.479C157.609 583.382 148.731 570.293 136.86 545.86C125.888 523.27 110.027 485.942 96.8597 436.688C77.4081 364.359 74.615 359.318 74.4155 358.93L74.8145 358.639L74.615 358.057L75.014 358.154C76.4106 358.93 84.8895 388.21 97.8572 436.397C111.024 485.554 126.885 522.785 137.858 545.375C149.728 569.808 158.606 582.8 158.706 582.897L157.708 583.479Z" fill="#0184FB"/>
<path d="M102.246 453.268C102.246 453.268 113.817 439.888 112.52 420.012C111.224 400.136 94.3655 404.693 94.3655 404.693C94.3655 404.693 102.246 396.258 98.0563 384.138C94.8643 375.024 85.3878 379 85.3878 379C85.3878 379 91.2732 373.57 89.6772 367.656C87.5824 359.415 79.8017 361.645 79.8017 361.645C79.8017 361.645 81.7968 350.01 71.6221 348.75L102.246 453.268Z" fill="#0184FB"/>
<path d="M102.246 453.266C102.246 453.266 80.2012 440.371 67.6325 420.302C55.0637 400.232 76.9094 405.467 76.9094 405.467C76.9094 405.467 69.5277 400.135 63.6424 388.306C57.757 376.478 71.7223 380.744 71.7223 380.744C71.7223 380.744 62.1461 372.987 63.1436 367.655C64.1411 362.322 69.827 363.97 69.827 363.97C69.827 363.97 64.4404 353.014 71.822 348.845L102.246 453.266Z" fill="#0184FB"/>
<path d="M454.07 580.28C454.07 580.28 449.382 561.082 435.118 550.223C423.447 541.303 415.466 550.223 415.466 550.223C415.466 550.223 413.771 534.42 398.509 535.874C383.247 537.328 379.855 543.921 379.855 543.921C379.855 543.921 371.576 537.619 365.191 539.849C358.907 542.079 352.523 548.672 352.523 548.672L410.778 555.071L454.07 580.28Z" fill="#0184FB"/>
<path d="M352.723 551.968C352.723 551.968 387.936 543.145 415.567 554.586C443.198 566.027 454.171 580.28 454.171 580.28C454.171 580.28 436.515 590.654 422.55 583.479C408.584 576.304 407.587 563.118 407.587 563.118C407.587 563.118 398.609 570.293 387.637 567.287C376.664 564.282 373.971 556.622 373.971 556.622C373.971 556.622 364.295 563.409 352.723 551.968Z" fill="#0184FB"/>
<path d="M356.713 516.192C356.713 516.192 365.392 496.51 398.609 494.28C431.827 492.05 451.677 488.753 458.46 493.019C458.46 493.019 441.902 495.153 437.512 503.588C433.223 512.12 433.822 520.361 427.537 526.178C427.537 526.178 412.275 518.81 410.28 524.336C408.285 529.863 415.268 535.777 415.268 535.777C415.268 535.777 404.993 544.309 387.636 541.594C370.28 538.88 363.696 535.777 363.696 535.777C363.696 535.777 369.382 526.469 365.392 526.178C361.402 525.887 356.713 533.159 356.713 533.159V516.192Z" fill="#0184FB"/>
<path d="M380.155 555.75H165.888C159.005 555.75 153.419 550.32 153.419 543.63V70.7777C153.419 64.0877 159.005 58.6582 165.888 58.6582H380.055C386.938 58.6582 392.524 64.0877 392.524 70.7777V543.63C392.624 550.32 387.038 555.75 380.155 555.75Z" fill="#A3B2BF"/>
<path d="M368.783 71.6504H312.223C312.223 77.7586 307.136 82.7033 300.852 82.7033H245.19C238.906 82.7033 233.818 77.7586 233.818 71.6504H177.159C171.673 71.6504 167.284 75.9164 167.284 81.249V533.256C167.284 538.589 171.673 542.855 177.159 542.855H368.683C374.169 542.855 378.558 538.589 378.558 533.256V81.249C378.658 75.9164 374.269 71.6504 368.783 71.6504Z" fill="#EBF5F6"/>
<path d="M198.506 468.005H188.331C186.137 468.005 184.241 466.26 184.241 464.03C184.241 461.897 186.037 460.055 188.331 460.055H198.506C200.701 460.055 202.596 461.8 202.596 464.03C202.496 466.26 200.701 468.005 198.506 468.005Z" fill="#7799B7"/>
<path d="M210.776 468.005C208.581 468.005 206.686 466.26 206.686 464.03C206.686 461.897 208.481 460.055 210.776 460.055C212.97 460.055 214.865 461.8 214.865 464.03C214.865 466.26 212.97 468.005 210.776 468.005Z" fill="#B9D3EB"/>
<path d="M222.647 468.005C220.452 468.005 218.557 466.26 218.557 464.03C218.557 461.897 220.352 460.055 222.647 460.055C224.841 460.055 226.737 461.8 226.737 464.03C226.737 466.26 224.941 468.005 222.647 468.005Z" fill="#B9D3EB"/>
<path d="M367.286 276.711H184.441V298.72H367.286V276.711Z" fill="#A3B2BF"/>
<path d="M392.623 307.252C392.623 307.252 378.159 297.363 375.666 296.199C373.172 295.036 367.785 294.842 364.394 289.413C361.002 283.983 363.097 278.941 361.9 277.293C360.703 275.645 355.117 271.961 356.214 270.797C357.311 269.634 360.304 269.924 363.396 272.251C366.488 274.578 369.68 276.711 369.68 276.711L392.623 291.449V307.252Z" fill="url(#paint0_linear_921_3450)"/>
<path d="M367.286 310.646H184.441V332.655H367.286V310.646Z" fill="#C3D1DD"/>
<path d="M307.435 531.22H244.292V534.129H307.435V531.22Z" fill="#A3B2BF"/>
<path d="M367.187 106.845H255.964V173.939H367.187V106.845Z" fill="#C3D1DD"/>
<path d="M380.154 58.7554C380.154 58.7554 383.546 82.7034 376.763 106.845C369.98 130.987 365.89 140.974 365.89 140.974H351.326L373.272 59.0462L380.154 58.7554Z" fill="url(#paint1_linear_921_3450)"/>
<path d="M249.579 106.845H180.551V173.939H249.579V106.845Z" fill="#A3B2BF"/>
<path d="M219.454 78.5342H179.553V85.0302H219.454V78.5342Z" fill="#C3D1DD"/>
<path d="M351.326 84.9332V78.5342H367.286" fill="#C3D1DD"/>
<mask id="mask0_921_3450" style="mask-type:alpha" maskUnits="userSpaceOnUse" x="153" y="58" width="240" height="498">
<path d="M380.155 555.75H165.888C159.005 555.75 153.419 550.32 153.419 543.63V70.7777C153.419 64.0877 159.005 58.6582 165.888 58.6582H380.056C386.939 58.6582 392.525 64.0877 392.525 70.7777V543.63C392.624 550.32 387.038 555.75 380.155 555.75Z" fill="#A8D4DA"/>
</mask>
<g mask="url(#mask0_921_3450)">
<g opacity="0.7">
<g style="mix-blend-mode:multiply">
<path d="M328.581 556.332L181.447 58.2705H206.984L354.118 556.332H328.581Z" fill="#CADDEF"/>
</g>
</g>
<g opacity="0.7">
<g style="mix-blend-mode:multiply">
<path d="M368.582 556.332L221.348 58.2705H286.985L434.119 556.332H368.582Z" fill="#CADDEF"/>
</g>
</g>
<path d="M319.903 58.5615C319.903 58.5615 302.147 86.1939 297.958 102.192C293.768 118.189 296.561 132.927 296.561 132.927L279.204 130.987C279.204 130.987 276.411 117.414 283.194 97.5377C289.978 77.6618 308.432 58.5615 308.432 58.5615H319.903Z" fill="url(#paint2_linear_921_3450)"/>
</g>
<path d="M367.286 78.5342V84.9332H351.326" fill="#C3D1DD"/>
<path d="M153.817 156.68V199.147L389.332 226.294V175.49L153.817 156.68Z" fill="url(#paint3_linear_921_3450)"/>
<path d="M396.514 211.557L156.611 183.925C150.625 183.246 146.436 178.01 147.134 172.193L152.62 127.012C153.319 121.194 158.705 117.122 164.69 117.801L404.694 145.433C410.679 146.112 414.868 151.348 414.17 157.165L408.684 202.346C407.886 208.067 402.499 212.236 396.514 211.557Z" fill="#DEE5EC"/>
<g opacity="0.7">
<g style="mix-blend-mode:multiply">
<path opacity="0.7" d="M327.585 136.514C327.585 136.514 319.605 143.979 318.907 146.694C318.208 149.409 330.577 156.002 335.665 151.348C340.752 146.694 348.533 138.938 348.533 138.938L327.585 136.514Z" fill="#CADDEF"/>
</g>
</g>
<path d="M389.332 221.834V264.301L153.817 291.449V240.644L389.332 221.834Z" fill="url(#paint4_linear_921_3450)"/>
<path d="M411.975 242.486L134.366 269.731C128.979 270.215 124.191 266.434 123.593 261.199L120.7 233.76C120.201 228.524 124.091 223.871 129.478 223.289L407.088 196.044C412.474 195.56 417.262 199.341 417.861 204.576L420.754 232.015C421.252 237.25 417.362 242.001 411.975 242.486Z" fill="#DEE5EC"/>
<g opacity="0.7">
<g opacity="0.7">
<path opacity="0.7" d="M419.357 219.12C419.357 219.12 409.581 211.751 410.279 204.092C410.978 196.432 417.062 201.668 417.062 201.668C417.062 201.668 419.357 215.629 419.357 219.12Z" fill="#CADDEF"/>
</g>
</g>
<path d="M371.975 45.2783C367.785 41.9819 362.498 37.7158 347.536 35.2919C329.88 32.4802 311.824 32.4802 298.059 46.054C284.293 59.6278 282.298 66.1238 277.909 75.3346C273.52 84.5454 265.34 103.161 265.34 103.161C265.34 103.161 265.34 109.754 273.719 111.693C281.999 113.632 284.692 109.269 284.692 109.269C284.692 109.269 292.872 86.6784 297.36 77.4676C301.849 68.2568 310.627 58.7552 311.924 58.7552C313.221 58.7552 353.72 58.5613 353.72 58.5613C353.72 58.5613 358.01 58.7552 360.404 67.3842C362.698 76.0133 339.955 115.474 339.955 115.474C339.955 115.474 340.354 118.48 348.134 121.389C355.915 124.297 360.503 121.292 360.503 121.292C360.503 121.292 371.077 102.579 376.464 78.1463C380.354 60.9852 379.357 50.9987 371.975 45.2783Z" fill="#0184FB"/>
<path d="M339.955 115.474C339.955 115.474 345.641 113.729 350.828 115.28C355.915 116.832 360.604 121.291 360.604 121.291C360.604 121.291 356.913 124.006 348.933 121.582C340.952 119.158 339.955 115.474 339.955 115.474Z" fill="#172B4D"/>
<path d="M265.341 103.161C265.939 103.161 269.031 101.222 273.819 102.773C278.607 104.324 284.692 109.269 284.692 109.269C284.692 109.269 280.603 115.183 272.223 111.305C264.343 107.524 265.341 103.161 265.341 103.161Z" fill="#172B4D"/>
<path d="M336.663 15.0283C336.663 15.0283 340.554 22.6878 343.546 29.8625C346.638 37.0373 347.037 41.1094 347.037 41.1094C347.037 41.1094 344.145 49.4476 338.459 49.4476C332.773 49.4476 332.174 48.3811 332.174 48.3811L325.292 31.5108L336.663 15.0283Z" fill="#FFCC99"/>
<path d="M316.513 5.72059C316.513 5.72059 309.63 8.14448 307.336 15.4162C305.041 22.6878 308.633 36.8434 314.019 42.2729C319.406 47.7024 327.585 50.0293 333.172 41.982C338.758 33.8377 336.663 32.4803 339.157 25.6935C341.65 18.9066 339.356 16.1918 337.062 12.4105C333.271 6.01146 326.289 2.52105 316.513 5.72059Z" fill="#FFD6AD"/>
<path d="M316.712 34.1284C316.513 33.3528 316.613 31.4137 315.216 29.8624C313.82 28.3111 307.934 28.505 308.433 31.7045C309.031 35.3888 312.224 40.3336 313.421 41.691C314.717 42.9514 317.111 40.2366 317.111 40.2366C317.111 40.2366 316.712 40.2366 316.613 39.1701C316.513 38.1036 317.012 35.5827 316.712 34.1284Z" fill="url(#paint5_linear_921_3450)"/>
<path d="M355.416 117.413C355.416 117.413 355.515 122.067 354.817 125.945C354.219 129.92 351.426 138.646 349.131 141.652C346.837 144.658 345.241 147.566 343.445 147.954C341.65 148.342 340.952 147.372 340.652 146.694C340.652 146.694 339.156 148.536 337.361 148.148C335.565 147.76 335.465 145.918 335.465 145.918C335.465 145.918 333.77 148.051 331.475 147.179C329.48 146.403 330.178 144.367 330.178 144.367C330.178 144.367 326.488 145.239 325.39 143.979C324.293 142.719 325.291 141.264 326.687 140.683C328.084 140.101 331.076 136.513 331.076 136.513H327.186C327.186 136.513 326.887 134.09 331.076 131.763C334.867 129.63 336.862 129.242 338.258 127.594C339.655 125.945 345.141 114.601 345.141 114.601C345.141 114.601 351.326 114.311 355.416 117.413Z" fill="#FFCC99"/>
<path d="M269.629 102.094C269.629 102.094 267.036 105.876 265.24 109.463C263.444 113.05 260.851 121.873 261.05 125.558C261.25 129.242 260.951 132.635 262.148 133.799C263.345 134.962 264.542 134.671 265.24 134.187C265.24 134.187 265.439 136.514 267.135 137.192C268.831 137.871 269.928 136.32 269.928 136.32C269.928 136.32 270.128 139.034 272.522 139.519C274.617 140.004 275.215 137.871 275.215 137.871C275.215 137.871 277.809 140.586 279.405 140.101C281.001 139.616 281.001 137.871 280.203 136.707C279.405 135.447 279.105 130.987 279.105 130.987L282.597 131.375C282.597 131.375 284.193 128.66 282.098 126.333C279.305 123.134 278.108 121.582 277.908 119.546C277.709 117.51 279.604 105.682 279.604 105.682C279.604 105.682 273.819 101.513 269.629 102.094Z" fill="#FFCC99"/>
<path d="M341.252 146.985L340.454 146.403C340.454 146.403 343.047 143.398 345.242 140.101L346.04 140.586C343.845 143.882 341.252 146.888 341.252 146.985Z" fill="#FFA74F"/>
<path d="M336.065 146.209L335.267 145.627C335.267 145.531 339.357 140.198 340.155 138.744L341.052 139.228C340.254 140.683 336.264 145.918 336.065 146.209Z" fill="#FFA74F"/>
<path d="M330.777 144.658L330.179 143.882C330.179 143.882 333.67 141.071 336.763 137.192L337.561 137.774C334.369 141.846 330.777 144.658 330.777 144.658Z" fill="#FFA74F"/>
<path d="M203.594 286.504C203.594 286.504 204.791 285.728 204.592 280.493C204.392 275.354 202.896 270.894 204.392 269.924C205.888 268.955 207.085 273.027 207.684 276.227C207.684 276.227 209.579 275.742 210.776 272.154C211.973 268.567 208.781 263.041 209.18 260.52C209.579 257.999 213.07 258.678 213.968 260.52C213.968 260.52 213.769 258.387 215.963 257.902C218.357 257.514 219.155 260.035 219.155 260.035C219.155 260.035 220.153 258.29 221.849 258.774C224.143 259.453 224.143 261.974 224.143 261.974C224.143 261.974 226.337 261.78 226.936 263.525C227.435 265.271 225.938 271.379 225.24 273.609C224.542 275.839 219.754 282.529 219.754 282.529C219.754 282.529 219.854 284.177 218.856 285.437C217.859 286.698 216.961 289.509 216.961 289.509L203.594 286.504Z" fill="#FFCC99"/>
<path d="M109.628 432.81C109.628 432.81 103.244 421.369 106.635 416.036C110.126 410.704 111.224 413.225 111.224 413.225C111.224 413.225 114.316 421.466 113.418 427.283L109.628 432.81Z" fill="#0184FB"/>
<path d="M163.294 378.806C163.294 378.806 188.93 372.213 203.494 349.913C218.058 327.613 209.778 318.693 209.778 318.693L163.294 355.827V378.806Z" fill="url(#paint6_linear_921_3450)"/>
<path d="M130.874 276.711C130.874 276.711 110.225 311.325 107.233 335.564C104.24 359.802 111.921 373.473 111.921 373.473C111.921 373.473 114.714 381.23 111.223 426.702C111.223 426.702 118.505 432.519 133.168 432.81C147.832 433.101 167.782 425.732 167.782 425.732C167.782 425.732 162.495 375.024 163.094 369.207C163.692 363.39 164.391 361.451 164.391 361.451C164.391 361.451 187.334 350.495 198.306 338.86C209.279 327.225 219.953 290.091 219.953 290.091L201.698 286.213C201.698 286.213 192.72 319.857 184.441 327.225C176.161 334.691 165.488 339.151 156.51 339.151C147.533 339.151 138.555 328.486 138.555 328.486C138.555 328.486 134.266 315.882 138.854 302.986C143.543 290.091 147.134 283.595 147.134 283.595L130.874 276.711Z" fill="#0184FB"/>
<path d="M129.678 344.096C129.678 344.096 125.887 343.611 123.892 341.672C121.897 339.733 130.276 337.794 133.967 338.569C137.658 339.345 138.456 343.708 138.456 343.708C138.456 343.708 132.969 344.968 129.678 344.096Z" fill="#0184FB"/>
<path d="M374.867 194.299C385.555 194.299 394.219 185.878 394.219 175.49C394.219 165.101 385.555 156.68 374.867 156.68C364.18 156.68 355.515 165.101 355.515 175.49C355.515 185.878 364.18 194.299 374.867 194.299Z" fill="#EBF5F6"/>
<path d="M374.868 189.548C382.856 189.548 389.332 183.254 389.332 175.49C389.332 167.725 382.856 161.431 374.868 161.431C366.88 161.431 360.404 167.725 360.404 175.49C360.404 183.254 366.88 189.548 374.868 189.548Z" fill="#C3D1DD"/>
<path d="M129.678 344.096C129.678 344.096 136.062 344.968 141.449 342.641C146.835 340.315 147.234 339.151 147.234 339.151L144.94 329.649C144.94 329.649 151.025 328.777 153.419 323.444C155.813 318.209 146.037 307.059 140.451 303.762C134.865 300.369 130.077 298.624 124.391 302.114C118.705 305.604 116.211 313.555 116.012 320.923C115.812 328.292 126.386 334.691 126.785 335.467C127.184 336.242 129.678 344.096 129.678 344.096Z" fill="#FFCC99"/>
<path d="M170.875 556.525L172.671 564.088C172.671 564.088 176.461 565.251 180.85 564.088C185.14 562.924 186.836 560.5 186.836 560.5L184.541 553.617C184.541 553.617 179.653 555.944 170.875 556.525Z" fill="#FFCC99"/>
<path d="M170.875 556.525L171.673 559.628C171.673 559.628 173.868 560.404 178.855 559.628C183.843 558.852 185.738 557.107 185.738 557.107L184.541 553.617L170.875 556.525Z" fill="#FFA74F"/>
<path d="M111.323 426.605C111.323 426.605 105.936 439.791 111.323 451.91C116.71 464.029 118.006 468.199 118.006 468.199C118.006 468.199 120.799 480.997 120.799 489.529C120.799 498.061 119.802 555.75 119.802 555.75C119.802 555.75 122.994 558.852 129.278 560.016C135.463 561.179 140.75 557.301 140.75 557.301C140.75 557.301 145.338 510.956 144.74 490.595C144.441 478.185 144.141 476.828 144.141 476.828C144.141 476.828 157.408 517.743 160.201 526.469C162.995 535.195 166.586 555.75 166.586 555.75C166.586 555.75 171.473 557.883 178.456 556.913C185.439 555.943 187.932 552.356 187.932 552.356C187.932 552.356 176.361 488.656 173.867 472.852C171.374 457.049 167.882 425.538 167.882 425.538C167.882 425.538 153.418 429.222 133.169 429.222C118.306 429.416 111.323 426.605 111.323 426.605Z" fill="#FFC633"/>
<path d="M184.741 551.969C184.641 551.581 177.758 509.114 173.269 490.79C168.78 472.368 165.189 437.076 165.09 436.785L166.087 436.688C166.087 437.076 169.778 472.271 174.267 490.596C178.756 509.017 185.639 551.484 185.738 551.872L184.741 551.969Z" fill="#FF9D00"/>
<path d="M119.702 555.75C119.702 555.75 121.697 552.357 130.176 552.841C138.655 553.326 140.65 557.301 140.65 557.301C140.65 557.301 137.059 561.373 129.179 560.016C121.199 558.659 119.702 555.75 119.702 555.75Z" fill="#5D3E22"/>
<path d="M143.543 477.022C143.543 477.022 141.947 472.174 140.551 469.653C139.354 467.423 137.858 465.29 136.262 463.06C134.765 461.024 133.269 458.794 131.773 456.37C126.985 448.517 125.987 440.179 125.987 440.082L126.985 439.985C126.985 440.082 127.982 448.226 132.67 455.886C134.167 458.31 135.663 460.443 137.159 462.576C138.755 464.806 140.252 466.939 141.548 469.265C142.945 471.883 144.541 476.537 144.641 476.731L143.543 477.022Z" fill="#FF9D00"/>
<path d="M122.695 553.908L121.997 562.731C121.997 562.731 124.59 565.251 129.777 565.542C134.865 565.833 136.96 564.185 136.96 564.185L137.458 554.586C137.359 554.586 129.977 550.805 122.695 553.908Z" fill="#FFCC99"/>
<path d="M119.802 562.924C119.802 562.924 120.001 561.373 120.4 560.501C120.799 559.628 123.592 558.174 127.283 559.143C130.974 560.113 131.373 561.761 133.069 562.634C134.764 563.409 136.959 562.924 136.959 562.924L137.059 560.501C137.059 560.501 139.453 562.149 139.652 563.7C139.852 565.251 140.45 567.869 143.742 570.002C147.034 572.135 152.421 576.886 153.518 579.116C154.515 581.346 154.515 582.897 154.515 582.897H118.505C118.505 582.897 117.807 578.728 118.505 576.401C119.103 574.171 118.904 566.609 119.802 562.924Z" fill="#7298BB"/>
<path d="M172.271 562.44C172.271 562.44 170.476 562.052 170.177 563.603C169.977 565.252 171.074 571.263 171.773 574.947C172.271 577.468 173.269 582.995 173.269 582.995H231.325C231.325 582.995 231.524 581.346 230.128 578.922C228.831 576.498 224.142 573.881 219.654 572.717C215.165 571.554 204.89 568.16 203.095 566.9C201.299 565.639 191.923 561.276 190.526 560.598C189.03 559.919 186.536 559.725 186.536 559.725L186.835 560.986C186.835 560.986 182.945 563.409 178.855 564.282C173.269 565.349 172.271 562.44 172.271 562.44Z" fill="#7298BB"/>
<path d="M134.366 315.591C134.366 315.591 132.171 316.754 132.869 319.566C133.568 322.378 136.76 322.184 138.455 321.602C138.455 321.602 138.755 324.22 137.358 324.995C135.962 325.771 135.962 327.128 135.962 327.128C135.962 327.128 136.361 331.588 134.964 333.043C133.568 334.497 129.976 335.951 126.884 335.37C123.792 334.788 121.897 332.946 120.6 331.782C119.303 330.619 116.111 329.455 116.111 329.455C116.111 329.455 113.218 324.608 111.522 321.602C109.827 318.596 108.829 312.197 113.717 305.604C118.505 299.011 122.296 296.878 122.296 296.878L123.393 297.654C123.393 297.654 128.879 294.745 134.565 296.103C140.251 297.46 138.954 302.696 138.954 302.696L134.066 300.563C134.066 300.563 135.862 304.15 135.463 308.319C135.164 312.488 134.366 312.973 134.366 312.973C134.366 312.973 134.964 314.33 134.366 315.591Z" fill="#172B4D"/>
<path d="M133.768 277.875C133.768 277.875 136.162 272.251 137.359 268.955C138.556 265.658 138.855 263.525 141.349 261.392C143.843 259.259 149.529 256.157 150.526 256.932C151.524 257.708 149.928 260.326 146.436 263.525C142.945 266.725 143.344 266.046 143.344 266.046L143.843 268.858L155.314 267.694C155.314 267.694 156.212 272.057 154.915 273.706C153.519 275.451 148.531 275.936 146.736 278.844C144.94 281.753 144.142 282.141 144.142 282.141L133.768 277.875Z" fill="#FFCC99"/>
<path d="M187.932 501.164C187.932 501.164 187.633 493.989 193.618 493.989C199.603 493.989 198.805 510.666 198.805 510.666C198.805 510.666 203.294 502.424 210.776 507.272C218.257 512.12 222.048 529.766 222.048 529.766C222.048 529.766 227.534 524.724 234.716 529.766C241.898 534.808 239.704 553.714 239.704 553.714C239.704 553.714 245.888 548.575 251.375 554.684C256.861 560.792 256.163 582.995 256.163 582.995C256.163 582.995 240.901 571.069 237.709 567.482C234.517 563.894 231.225 559.822 231.225 559.822L211.574 536.65L200.601 528.118L186.935 503.103L187.932 501.164Z" fill="#0184FB"/>
<path d="M256.063 582.898C256.063 582.898 246.088 572.136 240.502 564.67C234.816 557.204 228.931 547.509 215.564 533.644C202.696 520.264 197.609 519.101 197.609 519.101C197.609 519.101 190.626 502.328 184.94 498.062C179.254 493.892 175.264 494.862 174.965 499.71C174.666 504.558 186.935 510.666 186.935 510.666C186.935 510.666 178.656 509.696 178.955 518.713C179.254 527.73 195.614 536.553 203.594 539.074C203.594 539.074 193.918 541.013 200.302 550.321C206.586 559.725 231.225 559.628 231.225 559.628C231.225 559.628 224.143 559.628 224.542 565.446C224.841 571.457 256.063 582.898 256.063 582.898Z" fill="#0184FB"/>
<path d="M207.584 525.694L206.587 525.403C206.587 525.403 208.083 520.555 207.983 514.641H208.981C209.18 520.749 207.684 525.5 207.584 525.694Z" fill="#B9D3EB"/>
<path d="M208.98 528.409C206.786 528.409 200.202 528.118 194.516 525.209L195.015 524.336C201.599 527.73 209.579 527.439 209.679 527.342V528.312C209.679 528.409 209.479 528.409 208.98 528.409Z" fill="#B9D3EB"/>
<path d="M212.272 546.539L211.873 545.667C218.656 543.146 224.541 543.534 224.841 543.534L224.741 544.503C224.741 544.406 218.855 544.115 212.272 546.539Z" fill="#B9D3EB"/>
<path d="M226.936 547.315C226.936 547.218 225.939 543.727 229.929 535.874L230.826 536.262C227.036 543.727 227.834 547.024 227.834 547.024L226.936 547.315Z" fill="#B9D3EB"/>
<path d="M401.551 490.136L392.666 488.888L378.872 581.678L387.758 582.926L401.551 490.136Z" fill="#FFD341"/>
<path d="M463.082 582.682L471.967 581.434L458.173 488.644L449.288 489.891L463.082 582.682Z" fill="#FFD341"/>
<path d="M477.512 485.651H373.271V495.443H477.512V485.651Z" fill="#FFE980"/>
<path d="M426.14 465.581C426.14 465.581 422.45 471.883 422.649 476.537C422.849 481.191 422.649 484.488 421.452 485.457H378.359C378.359 485.457 376.364 482.064 379.556 480.609C382.748 479.155 383.048 480.124 384.743 479.446C386.439 478.767 397.911 476.828 402.699 474.307C407.487 471.689 408.385 470.429 409.382 468.975C410.38 467.52 414.07 460.733 414.07 460.733L426.14 465.581Z" fill="#FFCC99"/>
<path d="M455.966 459.764C455.966 459.764 454.769 465.096 454.271 467.908C453.772 470.72 454.57 471.398 454.271 473.144C453.971 474.889 452.076 479.737 452.774 482.451C453.572 485.166 454.57 484.875 457.263 485.554C459.956 486.233 471.428 485.554 471.428 485.554H475.717C475.717 485.554 477.513 485.36 477.513 483.324C477.513 481.288 476.515 480.9 475.418 480.609C474.221 480.318 472.525 479.543 472.026 479.155C471.528 478.767 469.533 476.149 468.635 473.919C467.837 471.689 471.428 463.739 470.63 461.315C469.932 458.891 455.966 459.764 455.966 459.764Z" fill="#FFCC99"/>
<path d="M412.174 464.224L410.379 467.326C410.379 467.326 411.775 469.944 416.364 470.429C420.953 470.914 424.045 470.041 424.045 470.041L425.541 466.648L412.174 464.224Z" fill="#FFA74F"/>
<path d="M455.068 464.127L454.27 467.908C454.27 467.908 455.567 469.459 461.851 469.265C467.836 469.168 469.831 467.423 469.831 467.423L470.729 463.351L455.068 464.127Z" fill="#FFA74F"/>
<path d="M494.769 349.913C494.769 349.913 494.669 365.911 488.684 378.515L475.018 460.249C475.018 460.249 473.722 464.418 465.342 465.387C456.963 466.357 453.372 463.157 453.372 463.157L467.038 380.066L428.135 465.581C428.135 465.581 424.145 468.587 418.359 467.617C412.574 466.648 410.878 462.091 410.878 462.091C410.878 462.091 436.514 390.053 438.808 378.709C441.103 367.365 440.404 359.221 442.898 350.495L494.769 349.913Z" fill="#0184FB"/>
<path d="M423.247 305.701C423.247 305.701 419.158 306.671 410.878 304.635C401.901 302.405 393.721 299.399 384.643 292.515C375.566 285.632 372.075 285.438 369.681 281.075C367.287 276.712 368.982 268.47 368.184 266.337C367.386 264.204 363.197 261.49 363.396 257.902C363.596 254.315 367.885 258.872 368.883 259.841C369.88 260.811 376.364 268.567 377.661 269.731C377.661 269.731 377.661 263.623 378.16 262.168C378.658 260.714 381.651 262.362 381.451 265.756C381.252 269.149 382.15 273.512 382.648 275.16C383.147 276.809 387.935 281.656 392.424 285.147C396.913 288.734 416.564 289.898 423.846 289.704L423.247 305.701Z" fill="#FFCC99"/>
<path d="M472.426 231.821C472.426 231.821 458.46 220.962 443.797 216.89C429.133 212.818 425.642 211.557 425.642 211.557C425.642 211.557 423.048 206.128 419.757 203.316C416.465 200.504 414.869 201.862 414.969 203.316C415.068 204.77 417.762 208.746 417.961 210.297C418.161 211.848 417.163 213.593 417.961 215.533C418.759 217.472 420.555 221.835 420.555 221.835C420.555 221.835 423.048 223.774 427.537 222.901C427.537 222.901 439.308 225.81 443.597 228.525C447.887 231.239 460.455 240.644 460.455 240.644C460.455 240.644 469.832 236.378 472.426 231.821Z" fill="#FFCC99"/>
<path d="M457.761 238.608C457.761 238.608 458.26 234.051 462.25 231.53C466.24 229.009 468.634 229.203 468.634 229.203L472.325 231.821L460.554 240.741L457.761 238.608Z" fill="#FFA74F"/>
<path d="M419.257 289.606C419.257 289.606 416.963 292.806 417.163 297.751C417.362 302.695 418.759 305.895 418.759 305.895C418.759 305.895 422.35 306.089 423.347 305.701L423.846 289.606H419.257Z" fill="#FFA74F"/>
<path d="M464.345 264.107C464.345 264.107 464.345 250.728 459.357 241.808C459.357 241.808 461.352 235.505 468.335 232.985C475.318 230.464 479.308 232.985 479.308 232.985C479.308 232.985 486.49 250.34 488.285 261.683C490.081 273.027 488.485 279.136 488.285 289.995C488.086 300.854 494.47 336.533 494.769 342.351C495.068 348.168 494.769 349.913 494.769 349.913C494.769 349.913 488.385 356.991 466.041 356.7C447.786 356.506 442.898 350.689 442.898 350.689C442.898 350.689 448.684 334.012 446.689 325.674C444.694 317.336 441.502 316.754 441.901 307.253C441.901 307.253 432.125 310.355 426.938 310.646C426.938 310.646 423.347 308.998 422.15 301.532C420.953 294.067 423.746 289.704 423.746 289.704C423.746 289.704 436.614 286.698 444.095 283.111C451.577 279.523 461.452 270.991 464.345 264.107Z" fill="#FFC633"/>
<path d="M464.345 264.107C464.345 264.107 468.335 265.562 467.039 277.875C465.742 290.188 458.36 307.253 458.36 307.253H485.293C485.293 307.253 478.011 263.041 471.827 257.999C465.742 253.054 464.046 255.575 464.046 255.575L464.345 264.107Z" fill="#FFDEAF"/>
<path d="M467.438 380.357L466.64 379.775C466.74 379.678 471.927 371.922 473.523 364.068L474.52 364.262C472.924 372.31 467.538 380.26 467.438 380.357Z" fill="#0184FB"/>
<path d="M427.836 245.007C427.836 245.007 426.939 251.212 429.034 261.102C431.128 270.991 433.622 274.094 436.415 274.094C439.208 274.094 444.695 271.767 444.695 271.767L448.585 282.626C448.585 282.626 450.38 283.207 455.468 281.171C460.555 279.135 462.65 276.421 463.647 274.191C464.645 271.961 464.745 270.894 464.745 270.894C464.745 270.894 458.959 264.398 458.061 261.974C457.164 259.55 455.767 247.043 454.071 242.001C451.877 235.699 427.637 233.469 427.836 245.007Z" fill="#FFCC99"/>
<path d="M427.636 249.176C427.636 249.176 432.424 251.503 433.422 250.824C434.42 250.146 427.936 246.655 427.936 246.655L427.636 249.176Z" fill="#FFA74F"/>
<path d="M437.113 253.248C437.113 253.248 438.809 251.697 441.103 253.248C443.397 254.799 440.505 258.678 439.108 258.872C439.108 258.872 439.308 262.459 441.901 262.847C444.495 263.235 444.295 268.858 450.18 268.567C456.066 268.276 457.562 266.046 458.161 263.331C458.759 260.617 458.061 246.655 456.764 242.583C455.467 238.511 452.774 237.832 448.983 234.051C445.193 230.27 440.006 232.5 437.113 234.051C434.22 235.602 430.43 234.051 428.235 236.766C426.041 239.48 422.649 243.746 428.235 247.722C433.821 251.697 433.422 251.406 434.32 252.86C435.317 254.024 436.315 254.412 437.113 253.248Z" fill="#172B4D"/>
<path d="M453.074 244.813C453.074 244.813 450.679 244.813 451.178 247.334C451.677 249.855 452.575 250.049 453.572 250.049C454.57 250.049 470.53 258.484 470.53 273.706C470.53 288.928 463.747 307.156 463.747 307.156H473.922C473.922 307.156 476.515 300.466 478.111 293C478.111 293 477.612 302.211 477.014 307.156H486.59C486.59 307.156 486.79 291.546 486.59 283.305C486.59 283.305 489.084 299.69 489.084 307.156H494.071C494.071 307.156 492.874 290.867 488.086 276.518C483.298 262.168 474.121 251.115 467.338 247.431C460.555 243.747 454.071 242.195 453.074 244.813Z" fill="#172B4D"/>
<path d="M454.67 243.553C454.67 243.553 453.572 242.486 452.176 242.874C450.779 243.262 449.682 244.813 449.582 246.752C449.483 248.885 450.58 250.534 451.378 251.018C452.276 251.6 453.772 251.6 454.969 250.727C454.969 250.727 452.375 250.34 452.375 246.849C452.475 244.231 454.67 243.553 454.67 243.553Z" fill="#0184FB"/>
<path d="M403.397 473.919C403.397 473.919 401.102 475.47 401.501 478.379C401.9 481.385 403.397 482.16 403.397 482.16H422.549C422.549 482.16 424.444 481.675 424.444 485.554H376.065C376.065 485.554 376.264 483.227 377.86 482.645H384.145C384.145 482.645 383.746 480.706 386.539 478.961C386.539 479.058 400.205 475.955 403.397 473.919Z" fill="#FFB200"/>
<path d="M469.831 476.052C469.831 476.052 471.727 476.537 473.123 477.894C474.52 479.252 473.921 483.712 473.921 483.712H477.413C477.413 483.712 478.111 484.487 477.612 485.554H452.076C452.076 485.554 452.175 483.906 453.173 483.033C454.17 482.16 458.46 482.645 461.751 482.839C465.043 483.033 469.133 482.257 469.133 482.257C469.133 482.257 470.43 480.609 469.831 476.052Z" fill="#FFB200"/>
<path d="M332.174 22.6876C332.373 21.815 332.573 19.5851 335.067 20.4577C337.461 21.2333 337.56 23.4633 336.463 25.2085C335.366 26.8567 335.865 28.2141 336.862 28.505C339.256 29.1837 340.054 27.6324 340.054 27.6324C340.054 27.6324 340.154 29.8624 343.446 29.8624C343.446 29.8624 342.448 25.5963 342.548 22.0089C342.648 18.4216 343.845 11.7316 337.461 4.75084C331.077 -2.22997 315.715 -1.55128 307.336 6.88386C298.857 15.319 301.351 19.5851 302.747 22.3968C304.144 25.2085 307.036 26.8567 307.036 26.8567L306.637 23.4633C306.637 23.4633 309.231 24.3359 317.012 23.7541C324.792 23.1724 325.89 20.8455 327.286 21.1363C328.782 21.4272 331.575 25.9841 332.174 22.6876Z" fill="#172B4D"/>
<path d="M145.04 329.649L138.456 330.328C138.456 330.328 140.451 333.722 145.937 333.722L145.04 329.649Z" fill="#FFA74F"/>
<path d="M143.842 268.858L144.64 271.669C144.64 271.669 151.224 271.088 153.917 267.888L143.842 268.858Z" fill="#FFA74F"/>
<path d="M204.292 284.662C204.292 284.662 208.681 283.595 212.472 284.662C216.262 285.729 217.659 287.377 217.659 287.377L216.861 289.316L203.594 286.504L204.292 284.662Z" fill="#FFA74F"/>
<path d="M134.765 275.451C134.765 275.451 138.456 275.839 141.648 278.263C144.84 280.59 144.84 281.462 144.84 281.462L144.141 282.238L133.867 277.972L134.765 275.451Z" fill="#FFA74F"/>
<path d="M135.862 316.754C135.862 316.754 134.366 316.56 134.066 318.112C133.767 319.663 135.663 320.536 136.261 320.536C136.86 320.536 138.156 320.051 137.957 319.372C137.757 318.693 137.458 319.178 136.959 318.887C136.461 318.596 136.56 318.015 137.159 318.015C137.757 318.015 137.857 317.821 137.458 317.336C137.059 316.851 136.461 316.754 135.862 316.754Z" fill="#FFA74F"/>
<path d="M444.793 271.863C444.793 271.863 448.185 270.409 449.183 269.73C449.183 269.73 449.681 273.027 446.09 275.354L444.793 271.863Z" fill="#FFA74F"/>
<path d="M441.901 307.252C441.901 307.252 449.482 305.798 451.178 305.022C452.874 304.247 445.891 313.457 442.4 314.427C442.4 314.33 441.003 311.615 441.901 307.252Z" fill="#FF9D00"/>
<path d="M440.006 254.024C439.407 253.248 438.41 253.83 437.612 254.703C436.814 255.575 437.213 256.642 437.213 256.642C437.213 256.642 438.11 255.478 438.609 255.963C439.108 256.448 438.011 257.514 438.011 257.514C438.011 257.514 438.509 258.387 439.607 257.514C440.704 256.642 440.804 255.187 440.006 254.024Z" fill="#FFA74F"/>
<path d="M233.918 166.279L176.162 159.589C173.967 159.298 172.371 157.359 172.571 155.226L174.067 143.01C174.366 140.877 176.361 139.325 178.556 139.519L236.312 146.209C238.507 146.5 240.103 148.439 239.903 150.572L238.407 162.789C238.108 164.922 236.113 166.473 233.918 166.279Z" fill="#A3B2BF"/>
<path d="M343.745 179.174L249.679 168.315C247.484 168.024 245.888 166.085 246.088 163.952L247.584 151.736C247.883 149.603 249.878 148.051 252.073 148.245L346.139 159.104C348.333 159.395 349.93 161.334 349.73 163.467L348.234 175.684C347.934 177.914 345.939 179.465 343.745 179.174Z" fill="#A3B2BF"/>
<path d="M218.557 243.456L143.843 250.824C140.152 251.212 136.86 248.594 136.561 245.007L136.062 240.062C135.663 236.475 138.356 233.275 142.047 232.984L216.761 225.616C220.452 225.228 223.744 227.846 224.043 231.433L224.542 236.378C224.941 239.965 222.248 243.165 218.557 243.456Z" fill="#A3B2BF"/>
<path d="M316.513 234.439L241.799 241.808C238.108 242.195 234.816 239.578 234.517 235.99L234.018 231.046C233.619 227.458 236.312 224.259 240.003 223.968L314.718 216.599C318.408 216.211 321.7 218.829 321.999 222.416L322.498 227.361C322.897 230.852 320.204 234.051 316.513 234.439Z" fill="#A3B2BF"/>
<path d="M330.778 44.6963C330.778 44.6963 336.065 39.1698 336.663 35.7764C336.663 35.7764 338.459 41.1089 336.264 44.5024C334.07 47.8958 332.274 48.3806 332.274 48.3806L330.778 44.6963Z" fill="#FFA74F"/>
<path d="M307.136 26.7597C307.136 26.7597 310.128 27.6323 312.921 23.851C312.921 23.851 307.435 23.754 306.637 23.3662L307.136 26.7597Z" fill="#FFA74F"/>
<path d="M267.734 105.1C267.734 105.1 269.529 104.421 273.021 105.875C276.512 107.33 279.106 109.463 279.106 109.463L279.704 105.584C279.704 105.584 277.809 103.742 274.018 102.579C270.427 101.512 269.629 101.997 269.629 101.997L267.734 105.1Z" fill="#FFA74F"/>
<path d="M343.945 117.704C343.945 117.704 347.137 117.607 350.229 118.577C353.322 119.547 355.317 121.68 355.317 121.68L355.416 117.413C355.416 117.413 354.419 116.25 351.227 115.377C347.536 114.408 345.441 114.602 345.441 114.602L343.945 117.704Z" fill="#FFA74F"/>
<path d="M118.206 578.34H153.019C153.019 578.34 154.415 578.922 154.415 582.897H118.405C118.405 582.897 118.006 579.504 118.206 578.34Z" fill="white"/>
<path d="M172.47 578.34H230.127C230.127 578.34 231.324 579.795 231.324 582.897H173.268C173.268 582.897 172.271 579.504 172.47 578.34Z" fill="white"/>
<path d="M164.491 361.354C164.491 361.354 154.915 367.85 150.426 368.432C145.938 369.11 154.815 375.8 163.195 372.698C163.195 372.795 162.397 367.753 164.491 361.354Z" fill="#0184FB"/>
<path d="M376.265 275.451C374.769 274.578 373.671 274.481 372.674 276.227C371.676 277.972 371.277 282.432 372.674 283.692C374.07 284.953 376.465 286.795 377.163 286.31C377.861 285.825 380.155 277.681 376.265 275.451Z" fill="#FFA74F"/>
<path d="M214.267 275.354L213.269 275.063C213.269 275.063 214.666 270.603 214.666 267.403C214.666 264.107 212.87 260.035 212.87 260.035L213.768 259.647C213.868 259.841 215.663 264.01 215.663 267.403C215.663 270.797 214.267 275.16 214.267 275.354Z" fill="#FFA74F"/>
<path d="M218.855 275.548L217.858 275.257C217.858 275.16 219.354 270.021 219.653 266.434C219.952 262.944 218.656 259.356 218.556 259.356L219.454 259.065C219.553 259.259 220.85 262.847 220.551 266.531C220.351 270.215 218.955 275.354 218.855 275.548Z" fill="#FFA74F"/>
<path d="M222.147 275.742L221.449 275.063C221.449 275.063 222.447 273.997 223.245 269.44C224.143 264.689 223.943 261.974 223.943 261.974L224.941 261.877C224.941 261.974 225.14 264.592 224.242 269.537C223.345 274.579 222.247 275.645 222.147 275.742Z" fill="#FFA74F"/>
<path d="M418.06 210.394C418.06 210.394 420.953 211.363 420.953 215.629C420.953 219.895 420.055 220.574 420.055 220.574C420.055 220.574 417.96 216.89 417.761 214.563C417.561 212.139 418.06 210.394 418.06 210.394Z" fill="#FFA74F"/>
<path d="M274.916 138.065C274.816 137.871 272.921 132.829 272.522 126.236C272.123 119.352 272.522 119.062 272.721 118.868L273.021 119.255L273.42 119.449C273.42 119.546 273.12 120.419 273.519 126.139C273.918 132.635 275.814 137.677 275.814 137.774L274.916 138.065Z" fill="#FFA74F"/>
<path d="M269.63 136.514C269.63 136.417 268.134 131.472 268.034 126.042C267.834 120.613 268.433 119.158 268.533 119.062L269.43 119.449C269.43 119.449 268.932 120.807 269.031 126.042C269.231 131.375 270.627 136.223 270.627 136.32L269.63 136.514Z" fill="#FFA74F"/>
<path d="M264.842 134.477C264.742 134.187 262.348 127.788 263.245 123.231C264.043 119.255 263.944 118.48 263.944 118.48L264.842 118.189C265.041 118.674 264.842 120.516 264.243 123.522C263.345 127.788 265.739 134.09 265.739 134.187L264.842 134.477Z" fill="#FFA74F"/>
<path d="M391.726 495.443H400.803L399.606 503.588C399.606 503.588 394.519 503.297 391.028 500.291L391.726 495.443Z" fill="#FF9D00"/>
<path d="M450.081 495.443H459.158L459.956 500.582C459.956 500.582 455.068 501.843 450.579 498.449L450.081 495.443Z" fill="#FF9D00"/>
<path d="M323.296 34.2255C324.067 34.2255 324.692 33.6178 324.692 32.8681C324.692 32.1185 324.067 31.5107 323.296 31.5107C322.525 31.5107 321.899 32.1185 321.899 32.8681C321.899 33.6178 322.525 34.2255 323.296 34.2255Z" fill="#C97C00"/>
<path d="M312.024 34.2255C312.795 34.2255 313.42 33.6178 313.42 32.8681C313.42 32.1185 312.795 31.5107 312.024 31.5107C311.252 31.5107 310.627 32.1185 310.627 32.8681C310.627 33.6178 311.252 34.2255 312.024 34.2255Z" fill="#C97C00"/>
<path d="M326.388 31.0256C326.388 31.0256 325.391 29.7652 322.897 29.8621C320.304 29.9591 319.605 31.0256 319.605 31.0256L318.708 30.5408C318.708 30.4439 319.705 28.9895 322.897 28.8926C326.089 28.8926 327.186 30.4439 327.286 30.5408L326.388 31.0256Z" fill="#C97C00"/>
<path d="M313.321 31.0256C313.321 31.0256 312.323 29.7652 309.829 29.8621C307.236 29.9591 306.537 31.0256 306.537 31.0256L305.64 30.5408C305.64 30.4439 306.637 28.9895 309.829 28.8926C309.929 28.8926 309.929 28.8926 310.029 28.8926C313.021 28.8926 314.119 30.4439 314.218 30.5408L313.321 31.0256Z" fill="#C97C00"/>
<path d="M316.314 31.5107C316.314 31.5107 316.912 34.6133 316.713 36.7463C316.513 38.8794 316.314 40.4307 318.009 40.6246C319.506 40.8185 320.005 40.4307 321.501 39.0733" fill="url(#paint7_linear_921_3450)"/>
<path d="M317.61 42.3697C317.61 42.3697 318.308 42.5636 320.502 42.0788C322.697 41.594 323.695 41.4971 323.695 41.4971C323.695 41.4971 323.395 43.727 320.901 43.921C318.408 44.1149 317.61 42.3697 317.61 42.3697Z" fill="#FFA74F"/>
<path d="M334.568 21.5244C334.568 21.5244 333.97 21.1365 333.371 22.1061C332.773 23.0757 333.371 24.8209 333.97 24.8209C333.97 24.8209 333.87 24.0452 334.369 23.9483C334.867 23.8513 334.568 24.9178 334.768 25.3056C334.967 25.6935 335.865 25.4995 336.064 24.433C336.164 23.1726 335.765 21.6213 334.568 21.5244Z" fill="#FFA74F"/>
<path d="M311.924 58.7549C311.924 58.7549 315.316 53.8102 320.702 54.0041C326.089 54.198 331.475 58.7549 331.475 58.7549H311.924Z" fill="#0184FB"/>
<path d="M122.395 556.622L122.595 553.811C122.595 553.811 126.685 552.259 130.575 552.841C134.465 553.326 137.258 554.683 137.258 554.683L137.159 557.301C137.159 557.301 133.767 555.943 129.777 555.846C125.787 555.75 122.395 556.622 122.395 556.622Z" fill="#FFA74F"/>
<path d="M134.067 459.085C133.768 458.6 126.187 458.115 126.486 462.284C126.785 466.454 141.05 469.459 141.05 469.459L134.067 459.085Z" fill="#FF9D00"/>
<path d="M449.283 325.674C453.073 326.837 452.475 336.145 450.28 334.885C448.086 333.527 446.59 324.801 449.283 325.674Z" fill="#FF9D00"/>
<path d="M144.641 312.585C145.412 312.585 146.037 311.977 146.037 311.228C146.037 310.478 145.412 309.87 144.641 309.87C143.869 309.87 143.244 310.478 143.244 311.228C143.244 311.977 143.869 312.585 144.641 312.585Z" fill="#C97C00"/>
<path d="M141.448 310.258L140.451 310.161C140.85 305.798 143.942 305.895 143.942 305.895V306.865V306.38V306.865C143.843 306.865 141.748 306.865 141.448 310.258Z" fill="#C97C00"/>
<path d="M151.622 315.3C151.622 315.3 149.528 316.851 150.126 318.596C150.725 320.438 152.819 317.336 152.62 316.948C152.321 316.56 151.622 315.3 151.622 315.3Z" fill="#C97C00"/>
<path d="M430.031 265.368C430.031 265.368 431.128 265.077 433.223 264.883C435.318 264.689 434.52 267.404 430.829 267.985L430.031 265.368Z" fill="#C97C00"/>
<path d="M430.031 257.902C430.637 257.902 431.128 257.425 431.128 256.836C431.128 256.247 430.637 255.769 430.031 255.769C429.425 255.769 428.933 256.247 428.933 256.836C428.933 257.425 429.425 257.902 430.031 257.902Z" fill="#C97C00"/>
<path d="M432.924 256.254C432.924 256.254 432.226 255.09 430.53 254.606C428.834 254.121 428.136 254.509 428.136 254.509L427.537 253.733C427.637 253.636 428.635 253.054 430.729 253.636C432.924 254.218 433.722 255.769 433.722 255.769L432.924 256.254Z" fill="#C97C00"/>
<path d="M145.937 308.222C145.937 308.222 151.025 309.773 151.523 310.549C152.022 311.325 150.825 314.136 150.526 313.749C150.326 313.361 145.937 308.222 145.937 308.222Z" fill="#FFCC99"/>
<path d="M428.535 258.581C428.535 258.581 427.138 263.137 427.637 263.816C428.136 264.495 429.732 264.301 429.732 264.301L428.535 258.581Z" fill="#FFCC99"/>
<path d="M472.026 370.855C472.226 370.37 478.909 368.528 479.009 372.213C479.208 375.897 465.343 390.537 465.343 390.537L467.039 380.066L472.026 370.855Z" fill="#0184FB"/>
<path d="M215.564 571.457C215.564 571.457 217.758 573.396 215.564 574.268C213.369 575.141 189.429 571.069 184.741 572.911C180.052 574.753 180.651 578.437 180.651 578.437H230.227C230.128 578.34 226.936 573.977 215.564 571.457Z" fill="#CADDEF"/>
<path d="M196.411 563.313C196.411 563.313 196.91 564.282 197.309 566.415C197.708 568.548 197.608 569.033 198.805 569.227C200.002 569.421 199.005 565.446 198.805 564.185C198.606 562.925 197.109 562.246 196.411 563.313Z" fill="#005C90"/>
<path d="M200.202 565.155C200.202 565.155 200.701 566.027 201 568.063C201.299 570.099 201.299 570.487 202.396 570.681C203.494 570.875 202.596 567.094 202.396 565.93C202.197 564.767 200.8 564.185 200.202 565.155Z" fill="#005C90"/>
<path d="M203.892 567.191C203.892 567.191 204.291 567.869 204.491 569.518C204.69 571.166 204.69 571.457 205.588 571.651C206.486 571.844 205.688 568.839 205.588 567.869C205.488 566.9 204.391 566.512 203.892 567.191Z" fill="#005C90"/>
<path d="M207.384 568.839C207.384 568.839 207.783 569.517 207.982 571.166C208.182 572.814 208.182 573.105 209.08 573.299C209.977 573.493 209.179 570.39 209.08 569.518C208.98 568.645 207.883 568.063 207.384 568.839Z" fill="#005C90"/>
<path d="M140.95 567.287C140.95 567.287 141.847 570.584 141.448 571.844C141.049 573.105 142.446 573.299 142.745 572.135C143.044 570.972 142.745 569.421 142.446 568.548C142.147 567.675 141.648 566.609 140.95 567.287Z" fill="#005C90"/>
<path d="M143.144 569.517C143.144 569.517 143.543 568.936 144.241 569.517C144.94 570.099 145.139 573.396 144.74 573.977C144.341 574.559 143.543 574.171 143.543 573.589C143.543 573.008 143.443 570.002 143.144 569.517Z" fill="#005C90"/>
<path d="M145.139 570.972C145.139 570.972 145.039 570.584 145.837 570.875C146.635 571.166 147.034 574.656 146.635 575.044C146.236 575.432 145.538 575.432 145.438 574.85C145.339 574.268 145.339 571.36 145.139 570.972Z" fill="#005C90"/>
<path d="M149.329 574.462C149.229 574.462 148.331 574.656 148.132 575.723C148.032 576.789 140.351 574.753 136.86 575.626C133.369 576.498 133.768 578.341 133.768 578.341H152.92C153.02 578.341 151.324 575.529 149.329 574.462Z" fill="#CADDEF"/>
<path d="M154.915 583.382H128.481V582.413H153.917C153.818 581.54 153.518 579.892 152.621 578.632L153.419 578.05C154.915 579.989 154.915 582.801 154.915 582.898V583.382Z" fill="#CADDEF"/>
<path d="M231.624 583.382H186.836V582.412H230.926C231.026 581.734 231.026 579.989 228.532 577.468L229.23 576.789C232.921 580.57 231.824 582.994 231.724 583.091L231.624 583.382Z" fill="#CADDEF"/>
<path d="M137.358 440.082C137.358 440.082 141.847 440.276 148.83 438.821C148.83 438.821 152.82 446.384 152.321 450.165C151.822 453.849 146.735 453.559 144.84 453.365C143.044 452.977 138.356 445.899 137.358 440.082Z" fill="#FF9D00"/>
<path d="M111.423 438.724C111.423 438.724 113.118 439.5 115.712 439.791C118.305 440.082 121.398 439.985 121.398 439.985L121.697 442.893C121.697 442.893 118.804 442.99 115.712 442.699C112.52 442.408 111.123 441.536 111.123 441.536L111.423 438.724Z" fill="#FF9D00"/>
<path d="M133.468 552.744L132.471 552.647C133.668 538.395 135.164 483.712 134.765 477.022C134.266 470.429 135.763 464.127 135.763 464.03L136.76 464.224C136.76 464.321 135.364 470.429 135.763 476.925C136.162 483.615 134.765 538.395 133.468 552.744Z" fill="#FF9D00"/>
<path d="M129.777 436.591C128.879 436.591 127.981 436.591 127.084 436.591C111.722 436.107 109.328 433.392 109.128 433.101L109.926 432.519C109.926 432.519 112.22 435.04 127.084 435.622C144.54 436.203 167.982 430.58 168.181 430.58L168.381 431.55C168.281 431.453 147.034 436.591 129.777 436.591Z" fill="#FF9D00"/>
<path d="M483.498 362.614C483.498 362.614 487.289 361.451 491.378 360.093C491.378 360.093 490.381 368.819 487.987 370.855C485.593 372.891 484.196 370.758 483.498 369.886C482.8 369.013 483.498 362.614 483.498 362.614Z" fill="#0184FB"/>
<path d="M456.165 364.65C456.165 364.262 456.465 364.068 456.864 364.068C457.961 364.262 460.355 364.65 464.146 364.65H469.033C469.333 364.65 469.632 364.941 469.632 365.232V366.783C469.632 367.074 469.333 367.365 469.033 367.365H463.846C460.854 367.365 457.761 366.977 456.564 366.783C456.265 366.783 456.066 366.492 456.066 366.201V364.65H456.165Z" fill="#0184FB"/>
<path d="M447.293 374.942L414.072 466.159L415.012 466.483L448.233 375.265L447.293 374.942Z" fill="#0184FB"/>
<path d="M458.859 464.32L457.861 464.127C457.961 463.545 467.737 406.632 469.133 400.911C470.53 395.191 471.627 379.29 471.627 379.193L472.625 379.29C472.625 379.969 471.428 395.385 470.131 401.202C468.834 406.923 458.959 463.739 458.859 464.32Z" fill="#0184FB"/>
<path d="M120.301 560.501C120.301 560.501 119.603 562.828 119.403 564.67C119.204 566.415 121.997 567.191 123.892 567.094C125.788 566.997 128.281 566.318 129.578 564.67C130.775 563.022 130.077 560.307 130.077 560.307C130.077 560.307 127.284 558.756 124.391 558.853C121.598 558.949 120.301 560.501 120.301 560.501Z" fill="white"/>
<path d="M170.177 563.603C170.177 563.603 169.778 562.052 172.072 561.664C172.072 561.664 172.072 564.185 176.062 564.476C176.062 564.476 176.86 567.384 175.763 568.936C174.765 570.584 170.975 570.875 170.975 570.875C170.975 570.875 169.778 564.864 170.177 563.603Z" fill="white"/>
<g opacity="0.3" filter="url(#filter0_f_921_3450)">
<circle cx="574" cy="470" r="29" fill="url(#paint8_linear_921_3450)" fill-opacity="0.3"/>
</g>
</g>
<defs>
<filter id="filter0_f_921_3450" x="445" y="341" width="258" height="258" filterUnits="userSpaceOnUse" color-interpolation-filters="sRGB">
<feFlood flood-opacity="0" result="BackgroundImageFix"/>
<feBlend mode="normal" in="SourceGraphic" in2="BackgroundImageFix" result="shape"/>
<feGaussianBlur stdDeviation="50" result="effect1_foregroundBlur_921_3450"/>
</filter>
<linearGradient id="paint0_linear_921_3450" x1="390.636" y1="297.908" x2="362.915" y2="279.988" gradientUnits="userSpaceOnUse">
<stop stop-color="#537EA5"/>
<stop offset="0.998" stop-color="white" stop-opacity="0"/>
</linearGradient>
<linearGradient id="paint1_linear_921_3450" x1="364.946" y1="96.0364" x2="374.943" y2="148.609" gradientUnits="userSpaceOnUse">
<stop stop-color="#3C6183"/>
<stop offset="0.998" stop-color="white" stop-opacity="0"/>
</linearGradient>
<linearGradient id="paint2_linear_921_3450" x1="303.061" y1="66.8863" x2="291.498" y2="134.383" gradientUnits="userSpaceOnUse">
<stop stop-color="#3D72A1"/>
<stop offset="0.998" stop-color="white" stop-opacity="0"/>
</linearGradient>
<linearGradient id="paint3_linear_921_3450" x1="273.51" y1="186.336" x2="256.909" y2="232.696" gradientUnits="userSpaceOnUse">
<stop stop-color="#3D6C96"/>
<stop offset="0.998" stop-color="white" stop-opacity="0"/>
</linearGradient>
<linearGradient id="paint4_linear_921_3450" x1="269.967" y1="248.656" x2="278.466" y2="293.346" gradientUnits="userSpaceOnUse">
<stop stop-color="#3E6990"/>
<stop offset="0.998" stop-color="white" stop-opacity="0"/>
</linearGradient>
<linearGradient id="paint5_linear_921_3450" x1="310.79" y1="38.3964" x2="314.202" y2="32.9774" gradientUnits="userSpaceOnUse">
<stop stop-color="#FFCC99" stop-opacity="0.3"/>
<stop offset="1" stop-color="#FFB759"/>
</linearGradient>
<linearGradient id="paint6_linear_921_3450" x1="163.311" y1="348.745" x2="212.206" y2="348.745" gradientUnits="userSpaceOnUse">
<stop stop-color="#5A81A5"/>
<stop offset="0.998" stop-color="white" stop-opacity="0"/>
</linearGradient>
<linearGradient id="paint7_linear_921_3450" x1="319.653" y1="32.7338" x2="317.88" y2="39.5459" gradientUnits="userSpaceOnUse">
<stop offset="0.00200123" stop-color="#FFCC99" stop-opacity="0"/>
<stop offset="0.2563" stop-color="#FFD19F" stop-opacity="0.1278"/>
<stop offset="0.3101" stop-color="#FFD3A1" stop-opacity="0.1549"/>
<stop offset="0.566" stop-color="#FFDDAD" stop-opacity="0.4684"/>
<stop offset="1" stop-color="#FFF7CA"/>
</linearGradient>
<linearGradient id="paint8_linear_921_3450" x1="574" y1="441" x2="574" y2="499" gradientUnits="userSpaceOnUse">
<stop stop-color="#0184FB"/>
<stop offset="1" stop-color="#46BDF0" stop-opacity="0"/>
</linearGradient>
<clipPath id="clip0_921_3450">
<rect width="563" height="586" fill="white"/>
</clipPath>
</defs>
</svg>
