<svg width="20" height="21" viewBox="0 0 20 21" fill="none" xmlns="http://www.w3.org/2000/svg">
<path fill-rule="evenodd" clip-rule="evenodd" d="M5.87727 0.35834C6.94364 0.309249 7.28364 0.29834 10 0.29834C12.7164 0.29834 13.0564 0.310158 14.1218 0.35834C15.1873 0.406522 15.9145 0.576522 16.5509 0.822885C17.2173 1.0747 17.8218 1.46834 18.3218 1.97743C18.8309 2.47652 19.2236 3.08016 19.4745 3.74743C19.7218 4.38379 19.8909 5.11107 19.94 6.1747C19.9891 7.24289 20 7.58289 20 10.2983C20 13.0147 19.9882 13.3547 19.94 14.4211C19.8918 15.4847 19.7218 16.212 19.4745 16.8483C19.2236 17.5157 18.8303 18.1203 18.3218 18.6202C17.8218 19.1292 17.2173 19.522 16.5509 19.7729C15.9145 20.0202 15.1873 20.1892 14.1236 20.2383C13.0564 20.2874 12.7164 20.2983 10 20.2983C7.28364 20.2983 6.94364 20.2865 5.87727 20.2383C4.81364 20.1902 4.08636 20.0202 3.45 19.7729C2.78266 19.5219 2.17802 19.1286 1.67818 18.6202C1.16944 18.1208 0.775741 17.5164 0.524545 16.8492C0.278182 16.2129 0.109091 15.4856 0.06 14.422C0.0109091 13.3538 0 13.0138 0 10.2983C0 7.58198 0.0118182 7.24198 0.06 6.17652C0.108182 5.11107 0.278182 4.38379 0.524545 3.74743C0.776112 3.08023 1.17011 2.4759 1.67909 1.97652C2.17822 1.46789 2.78225 1.0742 3.44909 0.822885C4.08545 0.576522 4.81273 0.407431 5.87636 0.35834H5.87727ZM14.0409 2.15834C12.9864 2.11016 12.67 2.10016 10 2.10016C7.33 2.10016 7.01364 2.11016 5.95909 2.15834C4.98364 2.20289 4.45455 2.36561 4.10182 2.50289C3.63545 2.6847 3.30182 2.90016 2.95182 3.25016C2.62004 3.57293 2.36471 3.96587 2.20455 4.40016C2.06727 4.75289 1.90455 5.28198 1.86 6.25743C1.81182 7.31198 1.80182 7.62834 1.80182 10.2983C1.80182 12.9683 1.81182 13.2847 1.86 14.3392C1.90455 15.3147 2.06727 15.8438 2.20455 16.1965C2.36455 16.6302 2.62 17.0238 2.95182 17.3465C3.27455 17.6783 3.66818 17.9338 4.10182 18.0938C4.45455 18.2311 4.98364 18.3938 5.95909 18.4383C7.01364 18.4865 7.32909 18.4965 10 18.4965C12.6709 18.4965 12.9864 18.4865 14.0409 18.4383C15.0164 18.3938 15.5455 18.2311 15.8982 18.0938C16.3645 17.912 16.6982 17.6965 17.0482 17.3465C17.38 17.0238 17.6355 16.6302 17.7955 16.1965C17.9327 15.8438 18.0955 15.3147 18.14 14.3392C18.1882 13.2847 18.1982 12.9683 18.1982 10.2983C18.1982 7.62834 18.1882 7.31198 18.14 6.25743C18.0955 5.28198 17.9327 4.75289 17.7955 4.40016C17.6136 3.93379 17.3982 3.60016 17.0482 3.25016C16.7254 2.9184 16.3325 2.66308 15.8982 2.50289C15.5455 2.36561 15.0164 2.20289 14.0409 2.15834ZM8.72273 13.3811C9.43605 13.678 10.2303 13.7181 10.9699 13.4945C11.7095 13.2708 12.3485 12.7974 12.7778 12.1549C13.2071 11.5125 13.4001 10.7409 13.3237 9.97207C13.2473 9.20319 12.9064 8.48468 12.3591 7.93925C12.0102 7.59059 11.5884 7.32362 11.1239 7.15756C10.6595 6.99151 10.164 6.93049 9.67318 6.9789C9.18233 7.02731 8.70832 7.18396 8.28528 7.43755C7.86223 7.69114 7.50068 8.03538 7.22664 8.44548C6.9526 8.85557 6.7729 9.32133 6.70047 9.80921C6.62804 10.2971 6.66468 10.795 6.80776 11.267C6.95084 11.739 7.1968 12.1734 7.52793 12.539C7.85906 12.9046 8.26711 13.1921 8.72273 13.3811ZM6.36545 6.66379C6.84275 6.1865 7.40938 5.80789 8.033 5.54958C8.65661 5.29127 9.325 5.15832 10 5.15832C10.675 5.15832 11.3434 5.29127 11.967 5.54958C12.5906 5.80789 13.1573 6.1865 13.6345 6.66379C14.1118 7.14109 14.4905 7.70772 14.7488 8.33134C15.0071 8.95495 15.14 9.62334 15.14 10.2983C15.14 10.9733 15.0071 11.6417 14.7488 12.2653C14.4905 12.889 14.1118 13.4556 13.6345 13.9329C12.6706 14.8968 11.3632 15.4384 10 15.4384C8.63678 15.4384 7.3294 14.8968 6.36545 13.9329C5.40151 12.9689 4.85998 11.6616 4.85998 10.2983C4.85998 8.93512 5.40151 7.62774 6.36545 6.66379ZM16.28 5.92379C16.3983 5.81222 16.493 5.67805 16.5585 5.52923C16.624 5.3804 16.6589 5.21995 16.6613 5.05737C16.6637 4.89479 16.6334 4.73338 16.5723 4.58271C16.5111 4.43204 16.4204 4.29517 16.3054 4.18019C16.1904 4.06522 16.0536 3.97448 15.9029 3.91336C15.7522 3.85223 15.5908 3.82195 15.4282 3.82432C15.2657 3.82669 15.1052 3.86166 14.9564 3.92715C14.8076 3.99265 14.6734 4.08734 14.5618 4.20561C14.3448 4.43564 14.226 4.74118 14.2306 5.05737C14.2352 5.37356 14.3629 5.6755 14.5865 5.89911C14.8101 6.12271 15.1121 6.25037 15.4282 6.25498C15.7444 6.25958 16.05 6.14079 16.28 5.92379Z" fill="#0184FB"/>
</svg>
