<svg width="144" height="32" viewBox="0 0 144 32" fill="none" xmlns="http://www.w3.org/2000/svg">
<path d="M0.0957031 11.8136H21.2412V3.896L0.0957031 11.8136Z" fill="black" fill-opacity="0.24"/>
<path d="M21.2413 3.89611V31.8828L31.24 0.164551L21.2413 3.89611ZM21.2413 11.8137H13.252L21.2413 31.8589V11.8137Z" fill="black" fill-opacity="0.24"/>
<path d="M0.0957031 11.8136L15.309 16.9564L13.2518 11.8136H0.0957031ZM48.5582 24.4913C48.4386 24.6109 48.2472 24.7544 47.9841 24.9219C47.721 25.0893 47.3621 25.2807 46.9316 25.4481C46.501 25.6156 45.9748 25.783 45.3289 25.9026C44.707 26.0222 43.9894 26.094 43.1761 26.094C41.6213 26.094 40.2578 25.8308 39.1097 25.3524C37.9615 24.8501 37.0286 24.1564 36.2871 23.2474C35.5455 22.3385 34.9954 21.286 34.6605 20.0661C34.3017 18.8461 34.1342 17.4827 34.1342 16.0235C34.1342 14.5644 34.3256 13.2009 34.7083 11.9571C35.0911 10.7132 35.6412 9.63682 36.4067 8.72785C37.1482 7.81888 38.105 7.10127 39.2293 6.59894C40.3535 6.09662 41.693 5.8335 43.2239 5.8335C43.9655 5.8335 44.6592 5.90526 45.2572 6.02486C45.8552 6.16838 46.4053 6.3119 46.8598 6.50326C47.3143 6.69463 47.697 6.88599 47.9841 7.07735C48.295 7.26871 48.5103 7.46007 48.6538 7.57968C48.8213 7.7232 48.9887 7.91456 49.1083 8.12984C49.2279 8.34512 49.2997 8.58433 49.2997 8.82353C49.2997 9.20625 49.1562 9.58898 48.8691 9.9717C48.5821 10.3544 48.2711 10.7132 47.9123 11.0481C47.6731 10.8089 47.41 10.5697 47.1229 10.3305C46.8359 10.0913 46.501 9.87602 46.1422 9.68466C45.7834 9.4933 45.3768 9.34978 44.9223 9.23017C44.4678 9.11057 43.9655 9.03881 43.3914 9.03881C42.4107 9.03881 41.5734 9.23017 40.9037 9.63682C40.2339 10.0435 39.7077 10.5458 39.301 11.1916C38.8944 11.8375 38.6073 12.5551 38.4399 13.3684C38.2724 14.1817 38.1768 15.0189 38.1768 15.88C38.1768 16.789 38.2724 17.6501 38.4399 18.4873C38.6073 19.3245 38.9183 20.0421 39.3489 20.688C39.7794 21.3338 40.3296 21.8362 41.0233 22.2189C41.717 22.6016 42.5542 22.793 43.5827 22.793C44.1329 22.793 44.6113 22.7212 45.0658 22.6016C45.5203 22.4581 45.9269 22.2906 46.2618 22.0993C46.6206 21.9079 46.9077 21.6926 47.1708 21.5013C47.4339 21.286 47.6492 21.0946 47.8166 20.9511C47.9362 21.0946 48.0558 21.2621 48.2233 21.4534C48.3907 21.6448 48.5342 21.8601 48.6538 22.0514C48.7974 22.2667 48.893 22.482 49.0126 22.6973C49.1083 22.9126 49.1562 23.1039 49.1562 23.2714C49.1562 23.5345 49.1083 23.7259 49.0126 23.9172C48.917 24.0847 48.7495 24.276 48.5582 24.4913V24.4913ZM63.4844 22.2667C63.4844 23.7976 63.6997 24.9219 64.1542 25.6156C63.7954 25.7591 63.4844 25.8548 63.1734 25.9026C62.8625 25.9504 62.5515 25.9983 62.2166 25.9983C61.5229 25.9983 60.9967 25.8548 60.6379 25.5916C60.2791 25.3285 60.0399 24.9219 59.9442 24.4195C59.5136 24.874 58.9635 25.2568 58.2459 25.5677C57.5522 25.8787 56.6911 26.0222 55.6864 26.0222C55.1602 26.0222 54.6339 25.9504 54.1077 25.8069C53.5814 25.6634 53.103 25.4242 52.6724 25.0893C52.2419 24.7544 51.907 24.3239 51.62 23.7737C51.3568 23.2235 51.2133 22.5538 51.2133 21.7644C51.2133 20.7837 51.4525 19.9704 51.9309 19.3484C52.4093 18.7265 53.0073 18.2481 53.7249 17.8893C54.4425 17.5305 55.2319 17.2913 56.0452 17.1478C56.8824 17.0043 57.6479 16.9325 58.3415 16.8847C58.5808 16.8607 58.796 16.8607 59.0352 16.8607H59.6572V16.3345C59.6572 15.593 59.4658 15.0667 59.0592 14.7318C58.6525 14.4209 58.0067 14.2534 57.1216 14.2534C56.2844 14.2534 55.5429 14.397 54.897 14.6601C54.2512 14.9232 53.6053 15.2342 52.9834 15.593C52.7203 15.2581 52.4811 14.8993 52.3376 14.4926C52.1701 14.086 52.0984 13.7989 52.0984 13.6076C52.0984 13.3445 52.2419 13.0813 52.5528 12.8182C52.8638 12.5551 53.2705 12.3398 53.7967 12.1245C54.3229 11.9092 54.921 11.7657 55.6146 11.6222C56.2844 11.5026 57.002 11.4308 57.7675 11.4308C58.82 11.4308 59.705 11.5265 60.4226 11.7418C61.1402 11.9571 61.7382 12.292 62.1927 12.7225C62.6472 13.177 62.9821 13.7272 63.1734 14.397C63.3648 15.0667 63.4605 15.8561 63.4605 16.7411L63.4844 22.2667V22.2667ZM59.7528 18.894H59.3462C59.2027 18.894 59.0831 18.894 58.9396 18.9179C58.4611 18.9657 57.9827 19.0136 57.5043 19.0853C57.0259 19.1571 56.5954 19.3006 56.2366 19.492C55.8778 19.6833 55.5668 19.9465 55.3276 20.2574C55.0884 20.5684 54.9688 20.975 54.9688 21.4534C54.9688 22.0036 55.1123 22.4581 55.4233 22.8408C55.7342 23.2235 56.2605 23.4149 57.002 23.4149C57.3608 23.4149 57.7196 23.3671 58.0545 23.2714C58.3894 23.1757 58.6764 23.0561 58.9396 22.8886C59.2027 22.7212 59.394 22.5538 59.5376 22.3863C59.6811 22.195 59.7528 22.0275 59.7528 21.884V18.894V18.894ZM70.7322 13.1531C71.0432 12.7943 71.5216 12.4116 72.1914 12.0288C72.8611 11.6461 73.6744 11.4548 74.6791 11.4548C75.3967 11.4548 76.0904 11.5744 76.7362 11.8136C77.3821 12.0528 77.9562 12.4594 78.4585 12.9857C78.9608 13.5358 79.3675 14.2534 79.6545 15.1385C79.9655 16.0235 80.109 17.1239 80.109 18.4395C80.109 19.9465 79.9416 21.2142 79.5827 22.195C79.2239 23.1757 78.7934 23.9651 78.2432 24.5152C77.693 25.0893 77.0711 25.496 76.4013 25.7352C75.7316 25.9744 75.0379 26.094 74.3681 26.094C73.818 26.094 73.3156 26.0222 72.909 25.9026C72.5023 25.783 72.1435 25.6395 71.8565 25.472C71.5695 25.3285 71.3542 25.1611 71.1867 25.0175C71.0432 24.874 70.9236 24.7544 70.8997 24.7066V31.8827H66.9289V11.8853C67.0246 11.8614 67.1442 11.8375 67.2877 11.8375C67.4073 11.8136 67.5509 11.8136 67.6944 11.7896C67.8618 11.7896 68.0293 11.7657 68.2445 11.7657C68.8904 11.7657 69.4406 11.8614 69.895 12.0767C70.3256 12.292 70.6126 12.6508 70.7322 13.1531V13.1531ZM75.9947 18.5352C75.9947 17.9611 75.9469 17.4109 75.8512 16.9086C75.7555 16.4063 75.5881 15.9757 75.3728 15.593C75.1575 15.2342 74.8465 14.9471 74.4638 14.7318C74.0811 14.5166 73.6266 14.4209 73.0764 14.4209C72.2631 14.4209 71.6891 14.5883 71.3781 14.8754C71.0671 15.1863 70.8997 15.5212 70.8997 15.9039V22.0993C71.0432 22.2667 71.3303 22.4342 71.7369 22.6494C72.1435 22.8647 72.598 22.9604 73.1243 22.9604C74.105 22.9604 74.8226 22.5777 75.301 21.7883C75.7555 21.0229 75.9947 19.9465 75.9947 18.5352V18.5352ZM83.1708 23.5584C83.0273 23.1757 82.9555 22.769 82.9077 22.3385C82.8598 21.9079 82.8598 21.4773 82.8598 21.0468V7.53183C83.0033 7.50791 83.1469 7.48399 83.2904 7.48399C83.4339 7.46007 83.5774 7.46007 83.721 7.43615C83.8645 7.43615 84.0319 7.41223 84.1754 7.41223C84.4864 7.41223 84.7974 7.43615 85.1083 7.50791C85.4193 7.55576 85.7063 7.67536 85.9455 7.86672C86.2087 8.03416 86.4 8.27336 86.5675 8.58433C86.711 8.89529 86.8067 9.27801 86.8067 9.75642V11.8375H90.897V14.7797H86.8306V20.9989C86.8306 22.3624 87.3807 23.0322 88.4811 23.0322C88.7442 23.0322 89.0073 22.9843 89.2465 22.9126C89.4857 22.8169 89.701 22.7212 89.8924 22.6255C90.0837 22.5298 90.2512 22.4102 90.3947 22.2906C90.5382 22.171 90.6339 22.0754 90.7057 22.0275C90.9927 22.4581 91.2319 22.8169 91.3754 23.1278C91.519 23.4388 91.6146 23.7259 91.6146 24.0129C91.6146 24.276 91.519 24.5152 91.3037 24.7544C91.0884 24.9936 90.8014 25.2328 90.4425 25.4242C90.0837 25.6395 89.6293 25.8069 89.103 25.9265C88.5768 26.0461 88.0027 26.1179 87.3807 26.1179C86.1847 26.1179 85.2279 25.8787 84.5582 25.4242C83.9362 24.9219 83.4578 24.3239 83.1708 23.5584V23.5584ZM100.944 23.1757C101.422 23.1757 101.853 23.1278 102.235 23.0082C102.594 22.9126 102.929 22.769 103.24 22.6255C103.527 22.482 103.79 22.2906 104.005 22.1232C104.221 21.9318 104.412 21.7644 104.579 21.6209C104.819 21.9079 105.058 22.2906 105.321 22.7451C105.584 23.1996 105.704 23.5823 105.704 23.8694C105.704 24.2999 105.464 24.6827 104.986 25.0415C104.579 25.3524 104.005 25.6156 103.24 25.8548C102.498 26.07 101.613 26.1896 100.609 26.1896C99.6997 26.1896 98.7907 26.07 97.9057 25.8308C97.0206 25.5916 96.2312 25.185 95.5376 24.6109C94.8439 24.0368 94.2937 23.2474 93.8631 22.2667C93.4326 21.286 93.2173 20.0421 93.2173 18.5591C93.2173 17.3391 93.4087 16.2867 93.7914 15.4016C94.1741 14.5166 94.6764 13.775 95.2984 13.2009C95.9203 12.6269 96.6379 12.1963 97.4512 11.9092C98.2405 11.6461 99.0538 11.5026 99.8911 11.5026C100.967 11.5026 101.9 11.67 102.666 12.0049C103.431 12.3398 104.029 12.7943 104.508 13.3684C104.986 13.9425 105.321 14.5883 105.536 15.3298C105.752 16.0714 105.847 16.8368 105.847 17.6501V18.0568C105.847 18.2242 105.847 18.3677 105.823 18.5591C105.823 18.7265 105.799 18.894 105.799 19.0614C105.799 19.2288 105.775 19.3484 105.752 19.4441H97.1641C97.2359 20.5205 97.5708 21.4056 98.1688 22.1232C98.7429 22.8169 99.6758 23.1757 100.944 23.1757V23.1757ZM102.283 17.2674C102.283 16.3345 102.092 15.569 101.733 14.995C101.374 14.4209 100.728 14.1099 99.7954 14.1099C98.9821 14.1099 98.3602 14.397 97.8818 14.9471C97.4033 15.4973 97.1641 16.2627 97.1641 17.2674H102.283V17.2674ZM112.76 13.2249C112.88 13.0574 113.023 12.8661 113.215 12.6508C113.406 12.4355 113.645 12.2441 113.932 12.0767C114.219 11.9092 114.53 11.7657 114.865 11.6461C115.2 11.5265 115.559 11.4787 115.965 11.4787C116.205 11.4787 116.444 11.5026 116.707 11.5265C116.97 11.5744 117.209 11.6461 117.425 11.7418C117.64 11.8375 117.831 11.981 117.975 12.1724C118.118 12.3637 118.19 12.579 118.19 12.8421C118.19 13.2727 118.094 13.7511 117.879 14.3013C117.664 14.8514 117.449 15.3298 117.233 15.7126C116.898 15.4494 116.563 15.2342 116.253 15.0906C115.918 14.9471 115.535 14.8754 115.08 14.8754C114.482 14.8754 113.98 15.0428 113.573 15.4016C113.167 15.7604 112.952 16.1671 112.952 16.6694V26.094H108.981V11.8614C109.076 11.8375 109.196 11.8136 109.34 11.8136C109.459 11.7896 109.603 11.7896 109.746 11.7657C109.89 11.7657 110.081 11.7418 110.296 11.7418C110.918 11.7418 111.468 11.8614 111.923 12.1006C112.354 12.3637 112.641 12.7225 112.76 13.2249V13.2249ZM124.027 13.2249C124.146 13.0574 124.29 12.8661 124.481 12.6508C124.672 12.4355 124.912 12.2441 125.199 12.0767C125.486 11.9092 125.797 11.7657 126.132 11.6461C126.466 11.5265 126.825 11.4787 127.232 11.4787C127.471 11.4787 127.71 11.5026 127.973 11.5265C128.237 11.5744 128.476 11.6461 128.691 11.7418C128.906 11.8375 129.098 11.981 129.241 12.1724C129.385 12.3637 129.456 12.579 129.456 12.8421C129.456 13.2727 129.361 13.7511 129.146 14.3013C128.93 14.8514 128.715 15.3298 128.5 15.7126C128.165 15.4494 127.83 15.2342 127.519 15.0906C127.184 14.9471 126.801 14.8754 126.347 14.8754C125.749 14.8754 125.247 15.0428 124.84 15.4016C124.433 15.7604 124.218 16.1671 124.218 16.6694V26.094H120.247V11.8614C120.343 11.8375 120.462 11.8136 120.606 11.8136C120.726 11.7896 120.869 11.7896 121.013 11.7657C121.156 11.7657 121.348 11.7418 121.563 11.7418C122.185 11.7418 122.735 11.8614 123.189 12.1006C123.62 12.3637 123.907 12.7225 124.027 13.2249V13.2249ZM142.948 22.2667C142.948 23.7976 143.163 24.9219 143.617 25.6156C143.258 25.7591 142.948 25.8548 142.637 25.9026C142.326 25.9504 142.015 25.9983 141.68 25.9983C140.986 25.9983 140.46 25.8548 140.101 25.5916C139.742 25.3285 139.503 24.9219 139.407 24.4195C138.977 24.874 138.427 25.2568 137.709 25.5677C137.015 25.8787 136.154 26.0222 135.15 26.0222C134.623 26.0222 134.097 25.9504 133.571 25.8069C133.045 25.6634 132.566 25.4242 132.136 25.0893C131.705 24.7544 131.37 24.3239 131.083 23.7737C130.82 23.2235 130.676 22.5538 130.676 21.7644C130.676 20.7837 130.916 19.9704 131.394 19.3484C131.872 18.7265 132.47 18.2481 133.188 17.8893C133.906 17.5305 134.695 17.2913 135.508 17.1478C136.346 17.0043 137.111 16.9325 137.805 16.8847C138.044 16.8607 138.259 16.8607 138.498 16.8607H139.12V16.3345C139.12 15.593 138.929 15.0667 138.522 14.7318C138.116 14.4209 137.47 14.2534 136.585 14.2534C135.748 14.2534 135.006 14.397 134.36 14.6601C133.714 14.9232 133.068 15.2342 132.447 15.593C132.183 15.2581 131.944 14.8993 131.801 14.4926C131.633 14.086 131.561 13.7989 131.561 13.6076C131.561 13.3445 131.705 13.0813 132.016 12.8182C132.327 12.5551 132.734 12.3398 133.26 12.1245C133.786 11.9092 134.384 11.7657 135.078 11.6222C135.748 11.5026 136.465 11.4308 137.231 11.4308C138.283 11.4308 139.168 11.5265 139.886 11.7418C140.603 11.9571 141.201 12.292 141.656 12.7225C142.11 13.177 142.445 13.7272 142.637 14.397C142.828 15.0667 142.924 15.8561 142.924 16.7411L142.948 22.2667V22.2667ZM139.216 18.894H138.809C138.666 18.894 138.546 18.894 138.403 18.9179C137.924 18.9657 137.446 19.0136 136.967 19.0853C136.489 19.1571 136.058 19.3006 135.7 19.492C135.341 19.6833 135.03 19.9465 134.791 20.2574C134.552 20.5684 134.432 20.975 134.432 21.4534C134.432 22.0036 134.575 22.4581 134.886 22.8408C135.197 23.2235 135.724 23.4149 136.465 23.4149C136.824 23.4149 137.183 23.3671 137.518 23.2714C137.853 23.1757 138.14 23.0561 138.403 22.8886C138.666 22.7212 138.857 22.5538 139.001 22.3863C139.144 22.195 139.216 22.0275 139.216 21.884V18.894Z" fill="black" fill-opacity="0.24"/>
</svg>
