<svg width="145" height="22" viewBox="0 0 145 22" fill="none" xmlns="http://www.w3.org/2000/svg">
<path d="M24.4505 18.8745V3.14823C24.4505 2.3316 24.6366 1.71836 25.0092 1.3102C25.3813 0.901889 25.8635 0.697266 26.4535 0.697266C27.0626 0.697266 27.5552 0.899707 27.9325 1.3035C28.3093 1.70729 28.4982 2.32194 28.4982 3.14807V18.8745C28.4982 19.7004 28.3092 20.3176 27.9325 20.726C27.5552 21.1348 27.0626 21.3391 26.4535 21.3391C25.8719 21.3391 25.393 21.1326 25.0157 20.7195C24.6387 20.3064 24.4503 19.6909 24.4503 18.8745M134.417 4.88542C131.032 4.88542 128.278 7.63981 128.278 11.0247C128.278 14.4095 131.032 17.1638 134.417 17.1638C137.802 17.1638 140.556 14.4095 140.556 11.0247C140.556 7.63981 137.802 4.88558 134.417 4.88558M134.417 21.3391C128.73 21.3391 124.102 16.7118 124.102 11.0249C124.102 5.33706 128.73 0.710045 134.417 0.710045C140.105 0.710045 144.731 5.33706 144.731 11.0247C144.731 16.7118 140.105 21.3391 134.417 21.3391ZM88.1134 4.88542C84.7287 4.88542 81.9747 7.63981 81.9747 11.0247C81.9747 14.4095 84.7287 17.1638 88.1134 17.1638C91.4988 17.1638 94.2521 14.4095 94.2521 11.0247C94.2521 7.63981 91.4988 4.88558 88.1134 4.88558M88.1134 21.3391C82.4261 21.3391 77.7992 16.7118 77.7992 11.0249C77.7992 5.33706 82.4261 0.710045 88.1134 0.710045C93.8011 0.710045 98.428 5.33706 98.428 11.0247C98.428 16.7118 93.801 21.3391 88.1134 21.3391ZM111.214 17.1131C110.715 17.1458 110.178 17.1513 109.6 17.1513H106.893V4.88495H109.6C110.178 4.88495 110.715 4.89134 111.214 4.92314C113.004 5.13711 114.56 6.12267 115.537 7.53976L115.537 7.55004V7.55441C116.411 8.61602 116.771 9.90641 116.619 11.4256C116.305 14.5421 114.504 16.438 111.214 17.1131H111.214ZM110.789 0.70537C110.687 0.702253 110.585 0.697266 110.482 0.697266L105.303 0.703811C104.419 0.703811 103.778 0.905318 103.383 1.30802C102.986 1.71088 102.788 2.36153 102.788 3.26106V18.7753C102.788 19.6749 102.986 20.3254 103.383 20.7285C103.778 21.1316 104.419 21.3329 105.303 21.3329L110.483 21.3391C110.586 21.3391 110.687 21.3341 110.789 21.3313C114.075 21.2344 116.979 19.5948 118.802 17.1106C120.054 15.4026 120.796 13.2974 120.798 11.021V11.0182C120.798 3.59768 114.075 0.802149 110.789 0.70537H110.789ZM70.8475 0.811811C70.4791 0.943676 70.164 1.19243 69.9503 1.52012L63.7312 10.9936L57.5125 1.52012C57.074 0.85124 56.2592 0.555136 55.5054 0.789214C54.752 1.0236 54.2374 1.73394 54.2374 2.53919V19.3763C54.2374 20.3866 55.0386 21.2054 56.0265 21.2054C57.0147 21.2054 57.8158 20.3866 57.8158 19.3763V8.54807L62.2315 15.2737L62.2403 15.2874L62.2458 15.2952C62.2511 15.3036 62.2573 15.3109 62.2629 15.3193C62.2902 15.3596 62.3187 15.3998 62.3501 15.4379C62.3638 15.4551 62.378 15.4702 62.3921 15.4863C62.4169 15.5148 62.4409 15.5431 62.4673 15.5699C62.4906 15.5939 62.5159 15.6167 62.541 15.6396C62.5591 15.6561 62.5771 15.6737 62.596 15.6898C62.6314 15.7194 62.667 15.7459 62.704 15.7721C62.7146 15.7794 62.7239 15.7881 62.7347 15.7953C62.7359 15.7964 62.7373 15.7969 62.7394 15.7981C62.7786 15.8249 62.8193 15.8491 62.8609 15.8727C62.8723 15.8793 62.8837 15.8872 62.8952 15.8932C62.9261 15.9103 62.958 15.9243 62.9903 15.9393C63.0285 15.9424 63.0663 15.9432 63.1036 15.9447C63.1245 15.9455 63.1456 15.9474 63.1659 15.9474C63.1873 15.9474 63.2075 15.9455 63.2282 15.9447C63.2664 15.9432 63.304 15.9424 63.342 15.9393C63.3738 15.924 63.4062 15.91 63.4368 15.8928C63.4488 15.8871 63.4595 15.8791 63.4715 15.8726C63.513 15.8489 63.5535 15.8246 63.5931 15.7978C63.5948 15.7967 63.5963 15.7962 63.5979 15.7951C63.6083 15.788 63.6177 15.7792 63.628 15.7719C63.6649 15.7457 63.7014 15.7192 63.7363 15.6896C63.7553 15.6736 63.7731 15.656 63.7919 15.6388C63.8164 15.6164 63.8415 15.5936 63.8649 15.5701C63.8917 15.5428 63.9155 15.5143 63.9401 15.4859C63.9545 15.47 63.969 15.4545 63.9822 15.4378C64.0134 15.3994 64.0417 15.3594 64.0695 15.3193C64.0749 15.3108 64.0813 15.3034 64.0868 15.2952L64.0918 15.2872C64.0949 15.2826 64.0977 15.278 64.1011 15.2735L68.516 8.54791V19.3761C68.516 20.3865 69.3166 21.2054 70.3061 21.2054C71.2933 21.2054 72.0952 20.3865 72.0952 19.3761V2.53903C72.0952 1.77446 71.6388 1.09249 70.9466 0.825214C70.9098 0.811032 70.9034 0.804642 70.8476 0.811811H70.8475ZM48.1477 20.7116H34.7727C34.069 20.7116 33.2875 20.2714 32.9979 19.5864C32.7083 18.9022 32.649 17.9706 33.2719 17.228L44.2129 4.53337H35.174C34.1859 4.53337 33.3842 3.67747 33.3842 2.62163C33.3842 1.56563 34.1858 0.920902 35.174 0.920902H47.3628C48.0662 0.920902 48.7947 1.0328 49.431 1.72973C50.0127 2.36714 49.9869 3.74215 49.3355 4.5622L38.7641 16.8885H48.148C49.1362 16.8885 49.8557 17.7444 49.8557 18.7998C49.8557 19.8555 49.1362 20.7116 48.148 20.7116M11.1151 21.3391C8.147 21.3391 5.45526 20.1624 3.53557 18.0256C1.84451 16.1428 0.875 13.6624 0.875 11.2196C0.875 3.5542 7.247 0.697266 11.2639 0.697266C15.2133 0.697266 18.1123 2.63394 18.2335 2.71607C19.1231 3.31966 19.3611 4.53945 18.7653 5.44023C18.1709 6.33789 16.9725 6.58085 16.0838 5.98397C16.0319 5.95077 13.9756 4.62423 11.2639 4.62423C8.74622 4.62423 5.27417 6.28584 5.27417 11.2196C5.27417 14.0263 7.36186 17.3366 11.1899 17.3366C13.3435 17.3366 14.8576 16.7626 15.7379 16.2027V13.2837H12.7553C11.6847 13.2837 10.8166 12.4047 10.8166 11.3201C10.8166 10.2359 11.6847 9.35675 12.7553 9.35675H17.6767C18.7474 9.35675 19.6153 10.2359 19.6153 11.3202C19.6276 14.9787 19.6262 17.0914 19.6111 17.6584C18.7653 20.0537 13.9481 21.133 13.2749 21.2411C12.6967 21.334 11.9767 21.3667 11.1151 21.3391V21.3391Z" fill="black" fill-opacity="0.24"/>
</svg>
