<svg width="145" height="16" viewBox="0 0 145 16" fill="none" xmlns="http://www.w3.org/2000/svg">
<path d="M12.2276 9.25359V2.85969C12.2276 2.85969 7.20575 2.79794 6.33791 2.85969C5.47007 2.92143 0.688361 2.5544 0.750104 8.9826C0.811848 15.4108 6.07721 15.1021 6.07721 15.1021C12.7455 15.2221 12.2276 9.25359 12.2276 9.25359ZM6.93133 12.6838H5.8028C5.8028 12.6838 3.18555 12.5329 3.18555 9.59661V8.46464C3.18555 8.46464 3.06206 5.20595 5.92971 5.20595H9.76811V9.40795C9.76811 9.40795 9.94648 12.6941 6.93133 12.6941V12.6838ZM137.327 9.25359V2.85969C137.327 2.85969 132.302 2.79794 131.42 2.85969C130.539 2.92143 125.785 2.5544 125.846 8.9826C125.908 15.4108 131.177 15.1021 131.177 15.1021C137.845 15.2221 137.327 9.25359 137.327 9.25359V9.25359ZM132.027 12.6838H130.902C130.902 12.6838 128.282 12.5329 128.282 9.59661V8.46464C128.282 8.46464 128.162 5.20595 131.026 5.20595H134.864V9.40795C134.864 9.40795 135.043 12.6941 132.027 12.6941V12.6838ZM37.3881 4.68799V0.729529H35.035V2.8391C33.5977 2.8391 31.9478 2.8391 31.4744 2.85969C30.5895 2.92143 25.8386 2.5544 25.8901 8.9826C25.9415 15.4108 31.2309 15.1021 31.2309 15.1021C37.8992 15.2221 37.3813 9.27074 37.3813 9.27074V4.68799H37.3881ZM32.0816 12.6941H30.9565C30.9565 12.6941 28.3358 12.5432 28.3358 9.6069V8.46464C28.3358 8.46464 28.2158 5.20595 31.08 5.20595H34.9184V9.40795C34.9184 9.40795 35.0967 12.6941 32.0816 12.6941ZM73.2269 4.68799V0.729529H70.8704V2.8391C69.4331 2.8391 67.7832 2.8391 67.3098 2.85969C66.4248 2.92143 61.6774 2.5544 61.7357 8.9826C61.794 15.4108 67.0663 15.1021 67.0663 15.1021C73.7346 15.2221 73.2166 9.27074 73.2166 9.27074V4.68799H73.2269ZM67.9204 12.6941H66.7953C66.7953 12.6941 64.178 12.5432 64.178 9.6069V8.46464C64.178 8.46464 64.0545 5.20595 66.9222 5.20595H70.7606V9.40795C70.7606 9.40795 70.9355 12.6941 67.9204 12.6941ZM138.565 0.719238H141.001V10.6154C141.001 10.6154 140.726 12.5054 144.747 12.5054V14.8483C144.747 14.8483 141.55 15.0609 139.663 13.4179C138.959 12.6296 138.569 11.6105 138.565 10.5536V0.719238ZM118.804 14.8585H121.25V6.67407C121.25 6.67407 120.975 4.78746 124.996 4.78746V2.44463C124.996 2.44463 121.799 2.22853 119.909 3.87503C119.205 4.65736 118.812 5.67005 118.804 6.7221V14.8585ZM38.9249 14.8585H41.3603V6.67407C41.3603 6.67407 41.0859 4.78746 45.1061 4.78746V2.44463C45.1061 2.44463 41.9091 2.22853 40.0225 3.87503C39.321 4.65803 38.9305 5.67082 38.9249 6.7221V14.8585ZM113.703 10.6154V5.04473H117.477V2.66759H113.703V0.729529H111.268V10.5536C111.271 11.6105 111.662 12.6296 112.366 13.4179C114.252 15.0609 117.449 14.8483 117.449 14.8483V12.5054C113.446 12.5054 113.703 10.6154 113.703 10.6154V10.6154ZM98.5864 14.8585H100.988V7.99813C100.988 7.99813 100.895 5.0756 104.335 5.0756C107.776 5.0756 107.687 7.72715 107.687 8.21424V14.8585H110.06V8.15935C110.06 8.15935 110.458 2.67102 104.322 2.67102C98.1851 2.67102 98.583 8.33429 98.583 8.33429L98.5864 14.8585ZM13.2223 14.8585H15.6235V7.99813C15.6235 7.99813 15.5343 5.0756 18.9748 5.0756C22.4153 5.0756 22.3227 7.72715 22.3227 8.21424V14.8585H24.6998V8.15935C24.6998 8.15935 25.0943 2.67102 18.9576 2.67102C12.821 2.67102 13.2223 8.34115 13.2223 8.34115V14.8585ZM90.8513 12.4814C90.8513 12.4814 88.7932 12.5432 88.385 9.95678H97.3378V8.52295C97.3378 8.52295 97.8832 2.69161 91.4893 2.69161C85.0954 2.69161 85.8878 8.78022 85.8878 8.78022C85.8878 8.78022 85.6443 13.5825 89.318 14.6116C89.8118 14.768 90.3237 14.8603 90.841 14.886H97.3378V12.4814H90.8513ZM91.6265 5.00699C94.8989 5.00699 94.8715 7.59337 94.8715 7.59337H88.385C88.385 7.59337 88.3541 5.00699 91.6265 5.00699ZM58.2095 4.83891H60.614V15.1021H58.2095V4.83891ZM58.2095 0.729529H60.614V3.50113H58.2095V0.729529ZM85.339 2.82881V5.35002H79.9501C79.9501 5.35002 76.8423 5.31914 76.8423 8.75964C76.8423 12.2001 79.1269 12.3236 80.0119 12.3854C80.8968 12.4471 85.339 12.3854 85.339 12.3854V14.8517H79.6448C79.6448 14.8517 74.4995 15.2153 74.4995 8.75964C74.4995 2.30399 80.4303 2.82881 80.4303 2.82881H85.339ZM51.205 2.94887C47.4318 2.94887 45.4594 5.4049 45.4594 8.4372V9.80928C45.4594 12.8382 47.4009 15.2976 51.205 15.2976C55.1429 15.2976 56.9472 12.8416 56.9472 9.80928V8.4372C56.9472 4.68456 54.3608 2.94887 51.205 2.94887ZM54.522 9.53144C54.522 11.3872 53.908 12.8896 51.2016 12.8896C48.4951 12.8896 47.8811 11.3872 47.8811 9.53144V8.6979C47.8811 6.84215 48.725 5.33972 51.2016 5.33972C53.294 5.33972 54.522 6.40309 54.522 8.6979V9.53144Z" fill="black" fill-opacity="0.24"/>
</svg>
