<svg width="145" height="32" viewBox="0 0 145 32" fill="none" xmlns="http://www.w3.org/2000/svg">
<path d="M72.0703 12.4668C72.1546 12.3821 72.2551 12.3153 72.3659 12.2704C72.4767 12.2256 72.5954 12.2037 72.7149 12.206C72.8336 12.2057 72.9511 12.2288 73.0608 12.2741C73.1705 12.3194 73.2702 12.3859 73.3541 12.4698C73.438 12.5537 73.5046 12.6534 73.5498 12.7631C73.5951 12.8728 73.6182 12.9904 73.6179 13.109V18.85C73.6182 18.9687 73.5951 19.0862 73.5498 19.196C73.5046 19.3057 73.438 19.4053 73.3541 19.4893C73.2702 19.5732 73.1705 19.6397 73.0608 19.6849C72.9511 19.7302 72.8336 19.7534 72.7149 19.753C72.5954 19.7554 72.4767 19.7334 72.3659 19.6886C72.2551 19.6438 72.1546 19.577 72.0703 19.4922C71.9852 19.4094 71.9181 19.3098 71.8732 19.1999C71.8284 19.0899 71.8066 18.9719 71.8095 18.8532V13.1114C71.8066 12.9927 71.8284 12.8746 71.8732 12.7647C71.9181 12.6547 71.9852 12.5552 72.0703 12.4724V12.4668ZM64.8554 12.378V15.7341H65.8068C65.9255 15.7367 66.0435 15.7149 66.1535 15.6701C66.2634 15.6252 66.3629 15.5582 66.4459 15.4733C66.5306 15.389 66.5974 15.2885 66.6423 15.1777C66.6871 15.0669 66.709 14.9482 66.7067 14.8287V13.2914C66.7249 13.1682 66.7141 13.0426 66.6753 12.9243C66.6365 12.8061 66.5706 12.6985 66.483 12.6101C66.3954 12.5217 66.2884 12.4549 66.1705 12.415C66.0525 12.3752 65.927 12.3633 65.8037 12.3804L64.8554 12.378ZM57.9085 12.378V19.6849H58.86C58.978 19.6881 59.0955 19.6666 59.2047 19.6217C59.314 19.5767 59.4126 19.5094 59.4942 19.424C59.5777 19.34 59.6438 19.2403 59.6885 19.1306C59.7333 19.0209 59.7559 18.9034 59.7551 18.785V13.3041C59.7574 13.1846 59.7355 13.0659 59.6906 12.9551C59.6458 12.8443 59.579 12.7437 59.4942 12.6595C59.4122 12.5746 59.3135 12.5077 59.2044 12.4628C59.0952 12.4179 58.9779 12.3961 58.86 12.3986L57.9085 12.378ZM43.5097 17.2937H44.6816L44.0972 13.1606L43.5097 17.2937ZM82.4169 12.3693V19.6761H83.3683C83.4864 19.6794 83.6038 19.6579 83.7131 19.6129C83.8223 19.568 83.921 19.5007 84.0026 19.4153C84.0861 19.3313 84.1521 19.2315 84.1969 19.1219C84.2417 19.0122 84.2643 18.8947 84.2634 18.7763V13.2938C84.2657 13.1743 84.2438 13.0556 84.199 12.9448C84.1541 12.834 84.0873 12.7334 84.0026 12.6492C83.9205 12.5643 83.8218 12.4974 83.7127 12.4525C83.6035 12.4076 83.4863 12.3858 83.3683 12.3883L82.4169 12.3693ZM41.2351 21.2396H42.8818L43.2655 18.831H44.917L45.2873 21.2396H46.9523L45.1961 10.7622H43.0198L41.2351 21.2396ZM63.2761 21.2396H64.8578V17.2968H65.902L66.8597 21.2452H68.5691L67.3973 16.6681C67.6665 16.4348 67.8815 16.1456 68.0275 15.8207C68.1735 15.4957 68.2468 15.1429 68.2425 14.7867V13.2652C68.2815 12.6276 68.0886 11.9974 67.6994 11.4908C67.4503 11.2327 67.1467 11.0334 66.8108 10.9074C66.4749 10.7815 66.1151 10.7322 65.7577 10.763H63.2658L63.2761 21.2396ZM77.2555 21.2396H78.8372V10.763H77.2555V21.2396ZM52.7448 17.8058L50.654 10.7598H48.8797V21.2491H50.4614V14.5282L52.6377 21.2476H54.3368V10.7551H52.7551L52.7448 17.8058ZM56.3276 21.2476H58.8195C59.1471 21.2525 59.4722 21.1897 59.7744 21.0631C60.0766 20.9365 60.3494 20.7488 60.5757 20.5118C60.8109 20.2808 60.9967 20.0044 61.1218 19.6994C61.247 19.3943 61.3088 19.0671 61.3035 18.7374V13.2573C61.3085 12.9293 61.247 12.6037 61.1227 12.3001C60.9984 11.9965 60.814 11.7212 60.5804 11.4908C60.3535 11.2532 60.0798 11.0651 59.7766 10.9384C59.4734 10.8118 59.1473 10.7494 58.8187 10.7551H56.3348L56.3276 21.2476ZM80.8383 21.2476H83.3223C83.6499 21.2525 83.975 21.1897 84.2772 21.0631C84.5794 20.9365 84.8522 20.7488 85.0785 20.5118C85.3137 20.2808 85.4995 20.0044 85.6246 19.6994C85.7498 19.3943 85.8116 19.0671 85.8063 18.7374V13.2573C85.8113 12.9293 85.7498 12.6037 85.6255 12.3001C85.5012 11.9965 85.3168 11.7212 85.0832 11.4908C84.8563 11.2532 84.5826 11.0651 84.2794 10.9384C83.9762 10.8118 83.6501 10.7494 83.3215 10.7551H80.8375L80.8383 21.2476ZM70.9849 20.6371C71.214 20.8754 71.4899 21.0637 71.7952 21.1903C72.1006 21.317 72.4288 21.3791 72.7593 21.3728C73.4234 21.3707 74.0596 21.1053 74.5283 20.6347C74.9969 20.1641 75.2597 19.5268 75.2591 18.8627V13.1399C75.265 12.807 75.2046 12.4763 75.0813 12.167C74.958 11.8577 74.7743 11.576 74.5409 11.3385C74.3076 11.101 74.0293 10.9123 73.7222 10.7835C73.4151 10.6547 73.0855 10.5884 72.7525 10.5884C72.4196 10.5884 72.0899 10.6547 71.7829 10.7835C71.4758 10.9123 71.1975 11.101 70.9642 11.3385C70.7308 11.576 70.5471 11.8577 70.4238 12.167C70.3005 12.4763 70.24 12.807 70.246 13.1399V18.8627C70.2407 19.1923 70.3024 19.5196 70.4276 19.8247C70.5527 20.1297 70.7385 20.4061 70.9738 20.6371H70.9849ZM88.1816 9.12896C88.5692 9.12896 88.9409 9.28291 89.2149 9.55694C89.4889 9.83097 89.6429 10.2026 89.6429 10.5902V21.4117C89.6429 21.7992 89.4889 22.1709 89.2149 22.4449C88.9409 22.7189 88.5692 22.8729 88.1816 22.8729H38.8748C38.4872 22.8729 38.1156 22.7189 37.8416 22.4449C37.5675 22.1709 37.4136 21.7992 37.4136 21.4117V10.5799C37.4136 10.1923 37.5675 9.82066 37.8416 9.54663C38.1156 9.2726 38.4872 9.11865 38.8748 9.11865L88.1816 9.12896Z" fill="black" fill-opacity="0.24"/>
<path d="M95.2769 17.201H96.4487L95.8723 13.0703L95.2769 17.201ZM96.9577 10.6782L98.7099 21.1565H97.045L96.6747 18.7478H95.0232L94.6395 21.1565H93.0015L94.7838 10.6782H96.9577ZM102.929 10.6782V18.7652C102.929 18.8839 102.906 19.0015 102.861 19.1112C102.815 19.2209 102.749 19.3206 102.665 19.4045C102.581 19.4884 102.481 19.5549 102.372 19.6002C102.262 19.6455 102.144 19.6686 102.026 19.6683C101.906 19.6706 101.787 19.6487 101.677 19.6038C101.566 19.559 101.465 19.4922 101.381 19.4074C101.296 19.3246 101.229 19.2251 101.184 19.1151C101.139 19.0052 101.117 18.8871 101.12 18.7684V10.6782H99.5725V18.7732C99.5715 19.1014 99.6355 19.4265 99.7608 19.7299C99.8862 20.0332 100.07 20.3087 100.303 20.5404C100.535 20.7721 100.811 20.9554 101.115 21.0798C101.419 21.2042 101.744 21.2672 102.072 21.2651C102.401 21.2706 102.728 21.2097 103.033 21.086C103.338 20.9623 103.615 20.7784 103.847 20.5452C104.086 20.3167 104.275 20.0409 104.401 19.7354C104.528 19.4299 104.59 19.1014 104.583 18.7708V10.6664L102.929 10.6782ZM105.604 10.6782V12.2639H107.285V21.1438H108.866V12.2584H110.539V10.6664L105.604 10.6782ZM115.063 10.6782V15.1182H113.156V10.6664H111.574V21.1493H113.156V16.7094H115.063V21.1493H116.645V10.6664L115.063 10.6782ZM119.62 19.3884C119.704 19.4732 119.804 19.54 119.915 19.5848C120.026 19.6296 120.145 19.6516 120.264 19.6493C120.383 19.6496 120.5 19.6264 120.61 19.5812C120.72 19.5359 120.819 19.4694 120.903 19.3855C120.987 19.3015 121.054 19.2019 121.099 19.0922C121.144 18.9825 121.167 18.8649 121.167 18.7462V13.0044C121.167 12.8858 121.144 12.7682 121.099 12.6585C121.054 12.5488 120.987 12.4491 120.903 12.3652C120.819 12.2813 120.72 12.2148 120.61 12.1695C120.5 12.1242 120.383 12.1011 120.264 12.1014C120.145 12.0991 120.026 12.121 119.915 12.1658C119.804 12.2107 119.704 12.2775 119.62 12.3622C119.535 12.4451 119.467 12.5446 119.423 12.6546C119.378 12.7645 119.356 12.8826 119.359 13.0013V18.7422C119.356 18.861 119.378 18.979 119.423 19.089C119.467 19.1989 119.534 19.2984 119.62 19.3813V19.3884ZM118.539 11.265C118.89 10.9155 119.336 10.6779 119.822 10.582C120.308 10.4862 120.811 10.5365 121.268 10.7265C121.726 10.9165 122.116 11.2378 122.391 11.6497C122.666 12.0616 122.813 12.5458 122.812 13.0409V18.7652C122.818 19.098 122.758 19.4285 122.635 19.7376C122.511 20.0467 122.328 20.3282 122.095 20.5656C121.861 20.8029 121.583 20.9915 121.276 21.1202C120.97 21.2489 120.64 21.3152 120.307 21.3152C119.975 21.3152 119.645 21.2489 119.338 21.1202C119.031 20.9915 118.753 20.8029 118.52 20.5656C118.287 20.3282 118.103 20.0467 117.98 19.7376C117.857 19.4285 117.796 19.098 117.802 18.7652V13.0441C117.797 12.7133 117.859 12.3849 117.986 12.0793C118.112 11.7736 118.3 11.4973 118.538 11.2673L118.539 11.265ZM125.556 15.6359H126.507C126.626 15.6387 126.744 15.6169 126.854 15.572C126.964 15.5272 127.063 15.4601 127.146 15.375C127.231 15.2908 127.298 15.1902 127.342 15.0795C127.387 14.9687 127.409 14.85 127.407 14.7305V13.19C127.425 13.0668 127.414 12.9412 127.375 12.8229C127.337 12.7046 127.271 12.5971 127.183 12.5087C127.096 12.4203 126.989 12.3535 126.871 12.3136C126.753 12.2738 126.627 12.2619 126.504 12.279H125.552L125.556 15.6359ZM126.466 10.6782C126.823 10.6478 127.183 10.6973 127.519 10.8232C127.855 10.9491 128.158 11.1482 128.407 11.4061C128.796 11.9118 128.989 12.5412 128.951 13.1781V14.698C128.956 15.0542 128.883 15.4072 128.738 15.7326C128.593 16.0579 128.379 16.3477 128.11 16.5818L129.274 21.1485H127.565L126.613 17.2002H125.569V21.1485H123.977V10.6664L126.466 10.6782ZM130.398 21.1501H131.98V10.6664H130.398V21.1501ZM133.007 10.6703V12.256H134.688V21.1493H136.27V12.2584H137.943V10.6664L133.007 10.6703ZM142.869 10.6703L141.705 14.4331L140.543 10.66H138.799L140.915 16.7586V21.1501H142.497V16.757L144.621 10.6584L142.869 10.6703Z" fill="black" fill-opacity="0.24"/>
<path d="M25.2713 14.8381C24.9151 14.9958 24.5218 15.0508 24.136 14.9966C23.1845 14.8381 21.7574 12.7236 21.9723 11.5835C22.1237 10.7748 23.558 10.7851 23.558 10.7851C22.7875 9.59245 21.6851 8.65106 20.3866 8.07672L20.9479 5.91305L20.7941 5.81394L19.6746 7.78971C18.6586 7.44668 17.5894 7.28773 16.5175 7.32035C15.9079 7.33179 15.301 7.40619 14.7067 7.54234L12.673 5.00049L12.5145 5.15906L13.6934 7.83886C12.1671 8.4282 10.8579 9.47095 9.94209 10.8268C9.02625 12.1826 8.54771 13.7864 8.57087 15.4224C14.9826 14.2094 23.6801 16.281 25.4124 17.2459C25.4991 16.441 25.4514 15.6273 25.2713 14.8381V14.8381ZM16.7308 14.3814C14.3824 14.1071 14.1081 12.6015 14.1216 11.8443C14.1604 9.96844 15.2696 9.77499 16.47 9.77261C17.9764 9.77261 20.0449 10.1508 20.5927 11.2441C21.1691 12.4064 18.521 14.5931 16.7308 14.3814Z" fill="black" fill-opacity="0.24"/>
<path d="M16.4819 31.8558C13.3457 31.8558 10.2799 30.9258 7.67226 29.1834C5.06462 27.4411 3.03221 24.9646 1.83204 22.0671C0.631871 19.1696 0.317852 15.9814 0.929692 12.9054C1.54153 9.8295 3.05175 7.00408 5.26937 4.78646C7.48699 2.56884 10.3124 1.05862 13.3883 0.446782C16.4643 -0.165058 19.6525 0.14896 22.55 1.34913C25.4475 2.54929 27.924 4.58171 29.6663 7.18935C31.4087 9.797 32.3387 12.8628 32.3387 15.9989C32.3387 20.2044 30.6681 24.2377 27.6943 27.2114C24.7206 30.1852 20.6874 31.8558 16.4819 31.8558ZM9.71257 28.709C9.97177 28.8547 10.2382 28.987 10.511 29.1054L10.568 29.134L10.6989 29.191L10.8265 29.2458L10.9391 29.2925L11.0017 29.2798C12.5484 28.9522 14.1138 28.7205 15.689 28.5861L16.0061 28.5599C17.0749 28.4737 18.1465 28.4285 19.2187 28.4244H19.5359C20.2669 28.4244 20.9995 28.445 21.7122 28.4791C21.9422 28.4791 22.1745 28.5029 22.406 28.5179C22.7429 28.5385 23.0815 28.5647 23.4208 28.5972H23.4708L23.5152 28.579L23.5675 28.5528L23.8783 28.3728C23.9909 28.3078 24.1027 28.2373 24.2152 28.1643C24.3278 28.0914 24.4634 28.0057 24.5831 27.9217L24.6695 27.8646L25.1262 27.5475L24.5712 27.4904C22.9448 27.3183 21.3109 27.2265 19.6754 27.2153H19.3583C18.2785 27.2156 17.1991 27.2582 16.1227 27.3429C15.8151 27.3635 15.5043 27.3897 15.1967 27.4222L14.9644 27.4484C13.2955 27.6186 11.6392 27.8959 10.0059 28.2785C10.0579 27.4302 9.81538 26.59 9.31932 25.9L10.7781 25.4956L10.8574 25.4568C11.2284 25.2471 11.5372 24.9429 11.7525 24.5751C12.2258 23.7385 12.394 22.7636 12.2283 21.8168C12.1586 20.9194 11.8533 20.0563 11.3434 19.3146C11.158 19.0469 10.9125 18.8264 10.6265 18.6705C10.3406 18.5147 10.0222 18.4279 9.69671 18.4171C9.63148 18.4136 9.56611 18.4136 9.50088 18.4171L9.18374 18.4615V18.3521C11.0688 17.9393 12.9952 17.7458 14.9247 17.7757C18.395 17.7513 21.8473 18.2755 25.154 19.3289C25.5863 21.6414 25.8807 23.9775 26.0356 26.3249L26.0641 26.7451L26.3718 26.4557C26.5985 26.2417 26.8205 26.0197 27.0322 25.7905L27.0925 25.7255V25.6391C26.9771 24.1134 26.803 22.5926 26.5708 21.0803C27.3321 21.3838 28.0515 21.7835 28.7114 22.2695C28.8288 22.356 28.9414 22.4416 29.0452 22.5304L29.2387 22.6842L29.3481 22.4654C30.3672 20.4623 30.8973 18.2463 30.8949 15.9989C30.8956 13.8373 30.4096 11.7033 29.4731 9.75503C28.5365 7.80681 27.1734 6.0944 25.4849 4.74477C23.7964 3.39514 21.8257 2.44292 19.719 1.95872C17.6123 1.47452 15.4236 1.47076 13.3152 1.94772C11.2069 2.42467 9.2329 3.37011 7.53973 4.71393C5.84656 6.05775 4.4776 7.76547 3.53437 9.71046C2.59115 11.6554 2.09784 13.7878 2.09104 15.9494C2.08425 18.1111 2.56412 20.2465 3.4951 22.1974L3.60451 22.4273L3.80272 22.2687C5.47253 20.8647 7.48658 19.9314 9.63725 19.5651H9.70781C10.2295 19.5651 10.924 20.1939 11.1429 21.9659C11.3617 23.7379 10.5086 24.3444 10.3786 24.411L8.43688 24.9509C8.0652 24.6167 7.62923 24.3617 7.15565 24.2017H7.12631L6.74813 24.2326L6.98598 24.5276C9.12666 27.1368 8.91972 28.0398 8.90942 28.0763L8.87057 28.2222L8.99822 28.3015C9.21704 28.4347 9.41604 28.5496 9.6087 28.6535H9.62932L9.68402 28.6797L9.71257 28.709Z" fill="black" fill-opacity="0.24"/>
</svg>
