<svg width="145" height="18" viewBox="0 0 145 18" fill="none" xmlns="http://www.w3.org/2000/svg">
<path d="M14.5399 11.0798C14.2811 11.8141 13.8703 12.4854 13.3341 13.0499C12.798 13.6143 12.1487 14.0592 11.4288 14.3554V11.0798L13.2065 9.4665L11.4288 7.87539V5.62205C12.1623 5.60711 12.8612 5.30757 13.3779 4.78672C13.8946 4.26588 14.1886 3.56455 14.1977 2.83094C14.1977 0.89761 12.3577 0.21761 11.3132 0.21761C11.029 0.209491 10.745 0.239385 10.4688 0.306499V0.395388C10.6065 0.395388 10.811 0.373166 10.8777 0.373166C11.6065 0.373166 12.1532 0.715388 12.1532 1.37317C12.1489 1.5157 12.1156 1.65586 12.0552 1.78508C11.9949 1.91429 11.9089 2.02986 11.8024 2.1247C11.6959 2.21954 11.5712 2.29167 11.4359 2.33669C11.3006 2.3817 11.1575 2.39865 11.0154 2.3865C9.23766 2.3865 7.10432 0.928721 4.79321 0.928721C2.74877 0.928721 1.33988 2.45317 1.33988 3.99983C1.33988 5.5465 2.22877 6.02205 3.15766 6.36428V6.27094C2.99211 6.16475 2.85841 6.01571 2.77077 5.83964C2.68313 5.66357 2.64481 5.46704 2.65988 5.27094C2.66861 5.0901 2.71408 4.91292 2.79351 4.75022C2.87295 4.58752 2.98469 4.44271 3.12193 4.3246C3.25916 4.2065 3.41901 4.11758 3.59173 4.06328C3.76445 4.00897 3.94642 3.99041 4.12655 4.00872C6.05988 4.00872 9.17544 5.62205 11.1088 5.62205H11.291V7.89761L9.49099 9.4665L11.291 11.0798V14.3865C10.5462 14.6499 9.76097 14.7807 8.97099 14.7732C5.96655 14.7865 4.05544 12.9687 4.05544 9.94205C4.0497 9.22635 4.14852 8.51364 4.34877 7.8265L5.85099 7.16872V13.8354L8.89544 12.5021V5.6665L4.41988 7.67094C4.6293 7.05827 4.95833 6.49329 5.38787 6.00881C5.81741 5.52434 6.33892 5.13001 6.9221 4.84872V4.78205C3.89988 5.43983 0.98877 7.71983 0.98877 11.1243C0.98877 15.0576 4.30877 17.7909 8.17544 17.7909C12.2688 17.7909 14.5843 15.0621 14.6065 11.0843L14.5399 11.0798ZM54.8999 14.0487V9.05317H53.9888V6.08428H60.0554V7.76872C61.0332 6.72428 62.1265 5.83539 63.651 5.83539C63.8631 5.8317 64.0752 5.83911 64.2865 5.85761V9.63539C63.4702 9.58877 62.6513 9.65004 61.851 9.81761C61.5397 9.88169 61.2444 10.0075 60.9826 10.1877C60.7207 10.3678 60.4976 10.5987 60.3265 10.8665C60.1221 11.2532 60.0554 11.7065 60.0554 12.9598V14.0487H61.2821V17.0087H53.9888V14.0487H54.8999ZM71.0554 17.2354C69.4154 17.2354 67.5932 16.8932 66.3221 15.7554C65.717 15.2263 65.2346 14.5717 64.9083 13.8371C64.5821 13.1026 64.42 12.3057 64.4332 11.5021C64.4332 7.9465 67.2777 5.85761 70.6554 5.85761C74.3399 5.85761 76.7754 8.45317 76.7754 11.5909C76.7754 11.9554 76.7532 12.2976 76.731 12.6621H69.5977C69.7354 13.9376 70.4154 14.5065 71.4643 14.5065C71.8064 14.5046 72.1424 14.4159 72.4409 14.2488C72.7394 14.0817 72.9906 13.8416 73.171 13.5509H76.7265C75.9932 16.0532 73.6954 17.2354 71.0554 17.2354V17.2354ZM69.5754 10.9776H72.2421V10.7065C72.2421 9.77317 72.0154 8.81761 70.9088 8.81761C70.6384 8.80845 70.3723 8.88766 70.151 9.04324C69.9297 9.19882 69.765 9.42231 69.6821 9.67983C69.566 10.102 69.5299 10.5421 69.5754 10.9776V10.9776ZM82.4332 5.85761C83.5932 5.85761 84.5265 6.13317 85.0999 6.79094V6.08428H88.3754V10.3421H85.0999C85.0999 9.34205 84.6554 8.81761 84.0065 8.81761C83.1888 8.81761 82.6421 9.7065 82.6421 10.9554C82.6421 13.0265 83.9399 14.0265 85.7532 14.0265C86.6483 14.0175 87.5374 13.8798 88.3932 13.6176V16.4621C87.05 17.0045 85.6104 17.2676 84.1621 17.2354C82.8475 17.3009 81.5403 17.0026 80.3843 16.3732C79.4921 15.842 78.7567 15.0838 78.2531 14.1758C77.7495 13.2677 77.4957 12.2424 77.5177 11.2043C77.5177 8.11094 79.611 5.85761 82.4332 5.85761V5.85761ZM94.0377 17.2354C91.6021 17.2354 90.0999 15.8265 90.0999 13.5509V9.05317H89.1443V6.08428H95.2421V12.6398C95.2421 13.5509 95.6288 14.0487 96.4021 14.0487C97.0865 14.0487 97.4954 13.5509 97.4954 12.6398V9.05317H96.4732V6.08428H102.638V14.0487H103.549V17.0087H97.4954V15.7198C96.6777 16.3732 95.4243 17.2354 94.0377 17.2354V17.2354ZM103.78 9.05317V6.08428H104.807V2.67094H109.949V6.08428H111.473V9.05317H109.949V14.0487H111.473V17.0087H104.807V9.05317H103.78ZM112.131 9.05317V6.08428H113.158V2.67094H118.3V6.08428H119.824V9.05317H118.3V14.0487H119.824V17.0087H113.158V9.05317H112.131ZM127.167 17.2354C125.531 17.2354 123.709 16.8932 122.433 15.7554C121.829 15.2256 121.347 14.5708 121.021 13.8364C120.695 13.102 120.532 12.3055 120.544 11.5021C120.544 7.9465 123.389 5.85761 126.767 5.85761C130.455 5.85761 132.891 8.45317 132.891 11.5909C132.891 11.9554 132.869 12.2976 132.847 12.6621H125.718C125.851 13.9376 126.535 14.5065 127.584 14.5065C127.926 14.5037 128.262 14.4147 128.56 14.2477C128.859 14.0806 129.11 13.841 129.291 13.5509H132.847C132.113 16.0532 129.833 17.2354 127.167 17.2354V17.2354ZM125.691 10.9776H128.358V10.7065C128.358 9.77317 128.131 8.81761 127.024 8.81761C126.753 8.8082 126.487 8.88724 126.265 9.04279C126.042 9.19834 125.877 9.42195 125.793 9.67983C125.681 10.1027 125.648 10.5427 125.695 10.9776H125.691ZM134.638 14.0487V9.05317H133.727V6.08428H139.78V7.76872C140.758 6.72428 141.851 5.83539 143.375 5.83539C143.588 5.8317 143.8 5.83911 144.011 5.85761V9.63539C143.195 9.58877 142.376 9.65004 141.575 9.81761C141.265 9.88223 140.97 10.0083 140.709 10.1885C140.448 10.3686 140.226 10.5991 140.055 10.8665C139.851 11.2532 139.784 11.7065 139.784 12.9598V14.0487H141.011V17.0087H133.727V14.0487H134.638ZM47.1665 14.0665V9.09317H46.2777V6.15539H52.291V14.0665H53.2377V17.0043H46.251V14.0665H47.1665ZM52.2777 1.17761V5.03983H47.1665V1.15983L52.2777 1.17761ZM23.7443 4.35539V1.15983H31.2732V4.35539H30.2332L31.8243 10.7598L34.2777 1.15983H38.1977L40.6065 11.0709H40.6465L42.3843 4.35539H40.7577V1.15983H46.2243V4.35539H45.6021L42.0465 17.0087H37.0332L35.2554 9.84872H35.211L33.3888 17.0087H28.3399L24.7532 4.35539H23.7443ZM18.7888 1.24872H19.2065V17.0443H18.7888V1.24872Z" fill="black" fill-opacity="0.24"/>
</svg>
