<svg width="115" height="62" viewBox="0 0 115 62" fill="none" xmlns="http://www.w3.org/2000/svg">
<path d="M5.7123 0.808594H114.356C112.982 8.60648 111.657 16.1751 110.314 23.7403C108.612 33.3186 106.882 42.8917 105.194 52.4723C104.681 55.3863 104.726 55.3941 108.921 61.1535H0.578125C1.42427 56.2353 2.24766 51.2961 3.12692 46.3667C5.38686 33.697 7.71044 21.038 9.87937 8.35275C10.0703 7.23647 9.53492 5.83362 8.9428 4.78703C8.21243 3.49535 7.06907 2.43752 5.7123 0.808594V0.808594ZM7.02587 55.8114C8.75905 55.8114 10.0571 55.6544 11.3032 55.8422C14.4309 56.3137 15.6952 55.1504 16.1969 51.9269C17.8486 41.3144 19.8545 30.7571 21.7182 20.1777C22.5278 15.5824 22.6839 15.4753 27.8244 16.5345L20.9726 55.8028C23.1248 55.8028 24.9153 55.7089 26.6914 55.8281C28.646 55.9591 29.4899 55.3529 29.8438 53.2376C31.6824 42.2466 33.7523 31.2945 35.6856 20.3189C36.5182 15.5922 36.8244 15.3422 41.7785 16.616L34.9264 55.8258C36.9825 55.8258 38.5878 55.71 40.1695 55.8532C42.521 56.066 43.4942 55.2625 43.8838 52.7716C45.2463 44.063 46.9231 35.4037 48.4613 26.7223C49.6415 20.062 50.7935 13.3965 51.9792 6.61179C51.2051 6.42603 50.7359 6.21608 50.2662 6.21493C39.5114 6.19045 28.7563 6.21378 18.0018 6.15848C16.1889 6.14927 15.5852 6.94731 15.3007 8.63643C13.7858 17.6312 12.1603 26.6073 10.5775 35.5906C9.4226 42.1484 8.27377 48.7073 7.02587 55.8114V55.8114ZM99.1193 55.6398L107.855 6.18152C101.161 6.18152 94.988 6.30133 88.8236 6.12363C86.2884 6.05048 85.3023 6.84939 84.8806 9.37775C82.8136 21.7707 80.5517 34.1311 78.3724 46.5053C77.8517 49.4624 77.3831 52.4288 76.8492 55.64L99.1193 55.6398V55.6398ZM48.874 55.8238C55.71 55.8238 61.9921 55.7449 68.2708 55.8656C70.546 55.9093 71.3962 55.1398 71.7763 52.8534C73.6391 41.6542 75.717 30.4907 77.691 19.3097C78.4381 15.0778 79.1091 10.8327 79.8844 6.17605C78.2054 6.17605 77.1089 6.17893 76.0122 6.17547C71.6139 6.16136 71.6188 6.16136 70.8711 10.38C68.9957 20.9614 67.1338 31.5451 65.2281 42.121C64.479 46.2789 63.4955 46.7656 59.153 45.1931L66.0039 6.18383C64.2713 6.18383 62.9658 6.33992 61.7116 6.15301C58.5666 5.68443 57.3207 6.87675 56.8363 10.0995C55.4813 19.1159 53.7187 28.0707 52.1347 37.0528C51.0642 43.1204 50.0246 49.1926 48.874 55.8238V55.8238Z" fill="black" fill-opacity="0.24"/>
</svg>
