<svg width="105" height="70" viewBox="0 0 105 70" fill="none" xmlns="http://www.w3.org/2000/svg">
<path d="M14.8296 12.9854H94.0487C93.047 18.6713 92.0813 24.1901 91.1014 29.7064C89.8609 36.6906 88.599 43.671 87.3682 50.6568C86.994 52.7816 87.0272 52.7873 90.0856 56.9869H11.0859C11.7029 53.4007 12.3033 49.7992 12.9444 46.2048C14.5923 36.9665 16.2866 27.736 17.8681 18.4863C18.0073 17.6723 17.6169 16.6494 17.1852 15.8863C16.6526 14.9444 15.8189 14.1731 14.8296 12.9854ZM15.7874 53.0916C17.0512 53.0916 17.9977 52.9771 18.9063 53.114C21.1869 53.4578 22.1088 52.6096 22.4747 50.2591C23.679 42.5208 25.1417 34.8228 26.5006 27.1087C27.0909 23.7579 27.2047 23.6798 30.953 24.4522L25.9569 53.0853C27.5262 53.0853 28.8318 53.0168 30.1268 53.1037C31.5521 53.1993 32.1674 52.7573 32.4255 51.2148C33.7661 43.2006 35.2754 35.2147 36.6851 27.2116C37.2923 23.7651 37.5155 23.5828 41.1279 24.5116L36.1316 53.1021C37.6308 53.1021 38.8013 53.0177 39.9546 53.122C41.6693 53.2772 42.3789 52.6913 42.663 50.875C43.6565 44.525 44.8791 38.211 46.0007 31.8807C46.8613 27.0243 47.7013 22.164 48.5659 17.2169C48.0014 17.0814 47.6593 16.9283 47.3168 16.9275C39.4748 16.9096 31.6325 16.9266 23.7907 16.8863C22.4688 16.8796 22.0286 17.4615 21.8211 18.6932C20.7165 25.2519 19.5313 31.7969 18.3771 38.3473C17.535 43.129 16.6973 47.9115 15.7874 53.0916ZM82.9389 52.9664L89.3086 16.9031C84.4276 16.9031 79.9265 16.9905 75.4316 16.8609C73.583 16.8076 72.8639 17.3901 72.5565 19.2337C71.0493 28.2702 69.4 37.283 67.8109 46.3058C67.4312 48.4621 67.0896 50.6251 66.7002 52.9666L82.9389 52.9664ZM46.3017 53.1006C51.2862 53.1006 55.867 53.0431 60.4452 53.1311C62.1042 53.163 62.7241 52.6018 63.0013 50.9347C64.3596 42.7686 65.8747 34.6286 67.3141 26.4758C67.8588 23.39 68.3481 20.2946 68.9134 16.8991C67.6891 16.8991 66.8897 16.9012 66.09 16.8987C62.8829 16.8884 62.8864 16.8884 62.3413 19.9645C60.9737 27.6801 59.6161 35.3974 58.2265 43.109C57.6803 46.1408 56.9632 46.4957 53.7968 45.3491L58.7923 16.9048C57.5289 16.9048 56.577 17.0186 55.6624 16.8823C53.3692 16.5407 52.4608 17.4101 52.1075 19.76C51.1195 26.3344 49.8343 32.864 48.6793 39.4134C47.8987 43.8377 47.1406 48.2654 46.3017 53.1006Z" fill="black" fill-opacity="0.24"/>
<path d="M81.8464 24.3742C80.6567 31.1799 79.5818 37.8588 78.2831 44.4937C77.7722 47.1038 75.6711 45.3007 74.0312 45.9507C74.879 41.0867 75.6394 36.6817 76.4175 32.2799C76.7245 30.5419 77.0605 28.809 77.4005 27.0771C78.0408 23.8167 78.046 23.8177 81.8464 24.3742Z" fill="black" fill-opacity="0.24"/>
</svg>
