<svg width="22" height="14" viewBox="0 0 22 14" fill="none" xmlns="http://www.w3.org/2000/svg">
<path fill-rule="evenodd" clip-rule="evenodd" d="M0 1C0 0.44772 0.44772 0 1 0H21C21.5522 0 22 0.44772 22 1C22 1.55228 21.5522 2 21 2H1C0.44772 2 0 1.55228 0 1ZM10 7C10 6.44772 10.4477 6 11 6H21C21.5522 6 22 6.44772 22 7C22 7.55228 21.5522 8 21 8H11C10.4477 8 10 7.55228 10 7ZM4 13C4 12.4478 4.44772 12 5 12H21C21.5522 12 22 12.4478 22 13C22 13.5522 21.5522 14 21 14H5C4.44772 14 4 13.5522 4 13Z" fill="#8A94A6"/>
</svg>
