<svg width="30" height="30" viewBox="0 0 30 30" fill="none" xmlns="http://www.w3.org/2000/svg">
<g opacity="0.15">
<path d="M15 3.45283C21.3672 3.45283 26.5472 8.63275 26.5472 15C26.5472 21.3672 21.3672 26.5472 15 26.5472C8.63275 26.5472 3.45283 21.3672 3.45283 15C3.45283 8.63275 8.63275 3.45283 15 3.45283ZM15 3C8.37238 3 3 8.37238 3 15C3 21.6276 8.37238 27 15 27C21.6276 27 27 21.6276 27 15C27 8.37238 21.6276 3 15 3Z" fill="#002444" stroke="#002444" stroke-width="0.3"/>
</g>
<path d="M18.1129 13.0188H8.49023V14.1509H18.1129V13.0188Z" fill="#002444"/>
<path d="M21.5094 15.8491H11.8867V16.9812H21.5094V15.8491Z" fill="#002444"/>
</svg>
