<svg width="20" height="17" viewBox="0 0 20 17" fill="none" xmlns="http://www.w3.org/2000/svg">
<path fill-rule="evenodd" clip-rule="evenodd" d="M9.10059 4.86109C9.10059 2.34107 11.1429 0.29834 13.6618 0.29834C15.1404 0.29834 16.3212 0.997795 17.1124 2.01285C17.9622 1.83899 18.7613 1.52456 19.4843 1.09559C19.1993 1.98678 18.596 2.73606 17.8096 3.21021C17.8103 3.21174 17.8109 3.21329 17.8116 3.21482C18.5829 3.1212 19.3167 2.9161 20 2.61331L19.9984 2.61578C19.5068 3.35201 18.8888 4.00195 18.1784 4.53147C18.2166 4.78878 18.236 5.04779 18.236 5.3053C18.236 10.6829 14.1392 16.9376 6.6029 16.9376C4.29483 16.9376 2.1451 16.2613 0.335606 15.1003C-0.00344798 14.8828 -0.101953 14.4316 0.115588 14.0926C0.1348 14.0625 0.155851 14.0345 0.178477 14.0083C0.307553 13.7947 0.55345 13.6644 0.817524 13.6955C2.15271 13.8529 3.48755 13.6901 4.6641 13.1762C3.49715 12.6615 2.59128 11.6642 2.19849 10.4388C2.12781 10.2183 2.17852 9.97687 2.33193 9.80344C2.33725 9.79743 2.34267 9.79153 2.34817 9.78575C1.41346 8.96312 0.82384 7.75798 0.82384 6.41493V6.36556C0.82384 6.13295 0.946935 5.91771 1.14743 5.79976C1.21331 5.761 1.2843 5.73465 1.35717 5.72075C1.03648 5.10216 0.855102 4.39945 0.855102 3.65508C0.855102 2.97246 0.859012 2.11215 1.33966 1.33736C1.44741 1.16368 1.62305 1.05777 1.81097 1.03268C2.08739 0.94576 2.40102 1.02938 2.59532 1.26765C4.18732 3.21988 6.48538 4.56866 9.10103 4.92428L9.10059 4.86109ZM6.6029 15.4788C5.45431 15.4788 4.35136 15.2875 3.32242 14.9356C4.57355 14.719 5.77408 14.2261 6.80854 13.4154C7.02725 13.244 7.11436 12.9534 7.02601 12.69C6.93767 12.4266 6.69303 12.2472 6.4152 12.2423C5.38984 12.2242 4.48165 11.7188 3.91389 10.9475C4.19158 10.925 4.46291 10.8774 4.72575 10.8063C5.01981 10.7268 5.22055 10.4554 5.2105 10.1509C5.20045 9.84647 4.98227 9.58893 4.68359 9.52896C3.54774 9.30095 2.63145 8.46632 2.28551 7.37819C2.57853 7.44896 2.88264 7.49105 3.19454 7.50126C3.48748 7.51084 3.75128 7.32508 3.84098 7.04604C3.93067 6.76699 3.82451 6.46231 3.58085 6.2994C2.72832 5.72946 2.16803 4.75657 2.16803 3.65508C2.16803 3.4108 2.17147 3.19278 2.18611 2.99513C4.16659 5.01111 6.87644 6.30972 9.89202 6.46153C10.1201 6.47303 10.3405 6.377 10.4873 6.20209C10.6342 6.02716 10.6906 5.79355 10.6399 5.57087C10.5874 5.34086 10.5594 5.10405 10.5594 4.86109C10.5594 3.14635 11.949 1.75715 13.6618 1.75715C15.4624 1.75715 16.7772 3.42531 16.7772 5.3053C16.7772 10.0556 13.1661 15.4788 6.6029 15.4788Z" fill="#0184FB"/>
</svg>
